<?xml version="1.0" encoding="UTF-8"?>
<svg width="11px" height="11px" viewBox="0 0 11 11" version="1.1" xmlns="http://www.w3.org/2000/svg" xmlns:xlink="http://www.w3.org/1999/xlink">
    <!-- Generator: Sketch 47 (45396) - http://www.bohemiancoding.com/sketch -->
    <title>active_bookmark_ico</title>
    <desc>Created with Sketch.</desc>
    <defs></defs>
    <g stroke="none" stroke-width="1" fill="none" fill-rule="evenodd">
        <g id="03-Nav-Rollover-States" transform="translate(-11.000000, -228.000000)" fill="#0232F5">
            <g transform="translate(0.000000, 100.000000)">
                <g transform="translate(11.000000, 125.000000)">
                    <path d="M8.60492097,8.71428061 C8.60492097,8.60044118 8.56474235,8.4932982 8.48438511,8.41294096 L5.45089936,5.3794552 C5.37054212,5.29909796 5.26339913,5.25891934 5.14955971,5.25891934 C5.03572029,5.25891934 4.9285773,5.29909796 4.84822007,5.3794552 L4.23884434,5.98883093 C4.1584871,6.06918817 4.11830848,6.17633115 4.11830848,6.29017057 C4.11830848,6.40400999 4.1584871,6.51115298 4.23884434,6.59151022 L5.50447085,7.85713673 L2.1428597,7.85713673 C1.90848442,7.85713673 1.71428776,8.05133339 1.71428776,8.28570867 L1.71428776,9.14285254 C1.71428776,9.37722782 1.90848442,9.57142448 2.1428597,9.57142448 L5.50447085,9.57142448 L4.23884434,10.837051 C4.1584871,10.9174082 4.11161204,11.0245512 4.11161204,11.1383906 C4.11161204,11.2522301 4.1584871,11.359373 4.23884434,11.4397303 L4.84822007,12.049106 C4.9285773,12.1294632 5.03572029,12.1696419 5.14955971,12.1696419 C5.26339913,12.1696419 5.37054212,12.1294632 5.45089936,12.049106 L8.48438511,9.01562025 C8.56474235,8.93526301 8.60492097,8.82812003 8.60492097,8.71428061 Z M10.2857265,8.71428061 C10.2857265,11.5535697 7.98215237,13.8571439 5.14286327,13.8571439 C2.30357417,13.8571439 0,11.5535697 0,8.71428061 C0,5.87499151 2.30357417,3.57141733 5.14286327,3.57141733 C7.98215237,3.57141733 10.2857265,5.87499151 10.2857265,8.71428061 Z" id="active_bookmark_ico"></path>
                </g>
            </g>
        </g>
    </g>
</svg>