<?xml version="1.0" encoding="UTF-8"?>
<svg width="534px" height="140px" viewBox="0 0 534 140" version="1.1" xmlns="http://www.w3.org/2000/svg" xmlns:xlink="http://www.w3.org/1999/xlink">
    <!-- Generator: Sketch 62 (91390) - https://sketch.com -->
    <title>Conifer-Logo-Horizontal for Nav Bar</title>
    <desc>Created with Sketch.</desc>
    <g id="Conifer-Logo-Horizontal-for-Nav-Bar" stroke="none" stroke-width="1" fill="none" fill-rule="evenodd">
        <g id="Horizontal-Logo-B&amp;W-Copy" transform="translate(0.000000, 4.000000)" fill="#FFFFFF">
            <path d="M197.23127,121 C215.680782,121 226,106.123967 226,93.0041322 C222.351792,100.545455 215.368078,108.603306 201.609121,108.603306 C185.452769,108.603306 174.716612,96.5165289 174.716612,78.8512397 C174.716612,60.8760331 185.765472,51.5785124 198.37785,51.5785124 C202.338762,51.5785124 206.091205,53.4380165 207.758958,55.2975207 L215.889251,75.1322314 L225.166124,55.9173554 C220.892508,50.338843 212.032573,46 200.462541,46 C177.42671,46 162,63.3553719 162,85.0495868 C162,106.020661 176.175896,121 197.23127,121 Z M258,121 C272.618474,121 284,109.939759 284,95.5 C284,81.060241 272.618474,70 258,70 C243.381526,70 232,81.060241 232,95.5 C232,109.939759 243.381526,121 258,121 Z M258.5,117 C250.166667,117 246,110 246,98.4347826 L246,93.5652174 C246,82 250.166667,75 258.5,75 C266.833333,75 271,82 271,93.5652174 L271,98.4347826 C271,110 266.833333,117 258.5,117 Z M316.157895,120 L308.578947,113.469512 L308.578947,80.195122 C310.157895,79.2621951 313.210526,78.0182927 319.947368,78.0182927 C326.368421,78.0182927 329.421053,80.8170732 329.421053,88.902439 L329.421053,113.469512 L321.842105,120 L349,120 L341.421053,113.469512 L341.421053,83.304878 C341.421053,73.0426829 337.736842,69.6219512 330.052632,69.6219512 C321.631579,69.6219512 313.421053,73.9756098 308.578947,78.1219512 L308.578947,69 L289.631579,77.7073171 L296.578947,81.1280488 L296.578947,113.469512 L289,120 L316.157895,120 Z M364.5,63 C369.222222,63 373,59.2222222 373,54.5 C373,49.7777778 369.222222,46 364.5,46 C359.777778,46 356,49.7777778 356,54.5 C356,59.2222222 359.777778,63 364.5,63 Z M379,120 L371.465116,113.469512 L371.465116,69 L352.627907,77.7073171 L359.534884,81.1280488 L359.534884,113.469512 L352,120 L379,120 Z M412.657143,120 L405.114286,113.470588 L405.114286,75.8487395 L416.847619,75.8487395 L416.847619,70.8739496 L405.114286,70.8739496 L399.980952,59.0588235 C399.457143,57.9187675 399.247619,56.8823529 399.247619,55.9495798 C399.247619,53.6694678 400.609524,52.2184874 402.390476,52.2184874 C407.733333,52.2184874 405.428571,61.5462185 412.133333,61.5462185 C415.485714,61.5462185 418,59.0588235 418,55.3277311 C418,50.3529412 413.390476,46 405.847619,46 C397.780952,46 391.809524,52.2184874 391.809524,60.302521 C391.809524,61.1316527 391.914286,61.9607843 392.019048,62.789916 L393.171429,70.8739496 L385,70.8739496 L385,75.8487395 L393.171429,75.8487395 L393.171429,113.470588 L385.628571,120 L412.657143,120 Z M443.591224,121 C456.581986,121 464.376443,111.783133 464.376443,101.951807 C461.258661,107.481928 455.646651,111.168675 448.579677,111.168675 C438.394919,111.168675 431.120092,103.180723 430.704388,92.1204819 L465,92.1204819 C465,78.6024096 456.47806,70 443.903002,70 C429.872979,70 420,81.9819277 420,96.4216867 C420,110.861446 429.353349,121 443.591224,121 Z M453,89 L430,89 C430,80.7272727 435.324074,75 442.032407,75 C450.018519,75 453,82 453,89 Z M496.689655,120 L489.241379,113.469512 L489.241379,87.0365854 C489.241379,82.6829268 492.448276,80.5060976 494.931034,80.5060976 C499.896552,80.5060976 500.517241,85.2743902 505.172414,85.2743902 C509.206897,85.2743902 512,82.1646341 512,77.8109756 C512,73.1463415 508.896552,70.1402439 504.034483,70.1402439 C498.655172,70.1402439 492.758621,74.4939024 489.241379,80.195122 L489.241379,69 L470.62069,77.7073171 L477.448276,81.1280488 L477.448276,113.469512 L470,120 L496.689655,120 Z" id="Conifer" fill-rule="nonzero"></path>
            <path d="M59.7609562,0 C92.7660209,0 119.521912,26.5120106 119.521912,59.216233 L119.521912,135.059761 L65.899,135.059 L65.8776188,104.909644 L92.1389317,109.942207 L59.8795479,40.7625615 L27.048961,110.302465 L53.2074783,104.894615 L53.237,135.059 L0,135.059761 L0,59.216233 C0,26.5120106 26.7558914,0 59.7609562,0 Z" id="Combined-Shape-Copy-2"></path>
        </g>
    </g>
</svg>