<?xml version="1.0" encoding="utf-8"?>
<!-- Generator: Adobe Illustrator 21.1.0, SVG Export Plug-In . SVG Version: 6.00 Build 0)  -->
<svg version="1.1" id="Layer_1" xmlns="http://www.w3.org/2000/svg" xmlns:xlink="http://www.w3.org/1999/xlink" x="0px" y="0px"
	 viewBox="0 0 11 11" style="enable-background:new 0 0 11 11;" xml:space="preserve">
<style type="text/css">
	.st0{fill:#666666;}
</style>
<title>active_bookmark_ico</title>
<desc>Created with Sketch.</desc>
<g id="Page-1">
	<g id="_x30_3-Nav-Rollover-States" transform="translate(-11.000000, -228.000000)">
		<g id="Group-12" transform="translate(0.000000, 100.000000)">
			<g id="Group-7" transform="translate(11.000000, 125.000000)">
				<path id="active_bookmark_ico" class="st0" d="M8.6,8.7c0-0.1,0-0.2-0.1-0.3l-3-3C5.4,5.3,5.3,5.3,5.1,5.3c-0.1,0-0.2,0-0.3,0.1
					L4.2,6C4.2,6.1,4.1,6.2,4.1,6.3c0,0.1,0,0.2,0.1,0.3l1.3,1.3H2.1c-0.2,0-0.4,0.2-0.4,0.4v0.9c0,0.2,0.2,0.4,0.4,0.4h3.4
					l-1.3,1.3c-0.1,0.1-0.1,0.2-0.1,0.3s0,0.2,0.1,0.3L4.8,12c0.1,0.1,0.2,0.1,0.3,0.1c0.1,0,0.2,0,0.3-0.1l3-3
					C8.6,8.9,8.6,8.8,8.6,8.7z M10.3,8.7c0,2.8-2.3,5.1-5.1,5.1S0,11.6,0,8.7s2.3-5.1,5.1-5.1S10.3,5.9,10.3,8.7z"/>
			</g>
		</g>
	</g>
</g>
</svg>
