<?xml version="1.0" encoding="UTF-8" standalone="no"?>
<svg width="69px" height="69px" viewBox="0 0 69 69" version="1.1" xmlns="http://www.w3.org/2000/svg" xmlns:xlink="http://www.w3.org/1999/xlink">
    <!-- Generator: Sketch 41.2 (35397) - http://www.bohemiancoding.com/sketch -->
    <title>loading</title>
    <desc>Created with Sketch.</desc>
    <defs></defs>
    <g id="Page-1" stroke="none" stroke-width="1" fill="none" fill-rule="evenodd">
        <g id="01_Opening-File" transform="translate(-602.000000, -391.000000)" fill="#0232F5">
            <path d="M669.455438,432.571403 C669.455438,431.812474 668.830437,431.14283 668.026864,431.14283 L659.455426,431.14283 C658.785782,431.14283 658.339353,431.544616 658.116138,432.169617 C657.357209,433.955333 656.821494,435.651764 655.750064,437.392837 C651.598273,444.17856 644.232193,448.285707 636.285755,448.285707 C630.52682,448.285707 624.946456,446.053562 620.750022,442.124986 L626.866101,436.008907 C627.401816,435.473192 627.714316,434.758906 627.714316,433.999976 C627.714316,432.437474 626.419672,431.14283 624.85717,431.14283 L604.857146,431.14283 C603.294644,431.14283 602,432.437474 602,433.999976 L602,454 C602,455.562502 603.294644,456.857146 604.857146,456.857146 C605.616076,456.857146 606.330362,456.544646 606.866077,456.008931 L612.625013,450.249996 C618.964306,456.276788 627.401816,459.714293 636.107184,459.714293 C652.580417,459.714293 665.616147,448.687494 669.410795,432.883903 C669.455438,432.794618 669.455438,432.660689 669.455438,432.571403 Z M670.57151,396.857075 C670.57151,395.294573 669.276866,393.999928 667.714364,393.999928 C666.955435,393.999928 666.241148,394.312429 665.705433,394.848144 L659.901855,400.607079 C653.562561,394.624929 645.035766,391.142782 636.285755,391.142782 C619.812521,391.142782 606.642863,402.124938 602.803572,417.973171 L602.803572,418.285672 C602.803572,419.044601 603.428573,419.714245 604.232146,419.714245 L613.116085,419.714245 C613.785728,419.714245 614.232157,419.312459 614.455372,418.687458 C615.214301,416.901741 615.750016,415.205311 616.821446,413.464237 C620.973237,406.678515 628.339317,402.571367 636.285755,402.571367 C642.044691,402.571367 647.625054,404.75887 651.866131,408.687446 L645.705409,414.848168 C645.169694,415.383883 644.857194,416.098169 644.857194,416.857099 C644.857194,418.4196 646.151838,419.714245 647.71434,419.714245 L667.714364,419.714245 C669.276866,419.714245 670.57151,418.4196 670.57151,416.857099 L670.57151,396.857075 Z" id="loading"></path>
        </g>
    </g>
</svg>