<?xml version="1.0" encoding="UTF-8" standalone="no"?>
<svg width="142px" height="83px" viewBox="0 0 142 83" version="1.1" xmlns="http://www.w3.org/2000/svg" xmlns:xlink="http://www.w3.org/1999/xlink">
    <!-- Generator: Sketch 41.2 (35397) - http://www.bohemiancoding.com/sketch -->
    <title>Load_WARC</title>
    <desc>Created with Sketch.</desc>
    <defs></defs>
    <g id="Page-1" stroke="none" stroke-width="1" fill="none" fill-rule="evenodd">
        <g id="00_Launch-Screen" transform="translate(-568.000000, -375.000000)" fill="#FFFFFF">
            <g id="Launch-Button" transform="translate(442.000000, 345.000000)">
                <g id="Group-4">
                    <g id="Load_WARC" transform="translate(126.000000, 30.000000)">
                        <path d="M31.33,45.38 L19.93,45.38 L19.93,0.98 L15.31,0.98 L15.31,50 L31.33,50 L31.33,45.38 Z M52.35,45.86 C48.45,45.86 44.91,43.58 44.91,40.46 L44.91,10.88 C44.91,7.76 48.45,5.48 52.35,5.48 C56.31,5.48 59.79,7.76 59.79,10.88 L59.79,40.46 C59.79,43.58 56.31,45.86 52.35,45.86 Z M64.41,10.88 C64.41,5.24 58.77,0.98 52.35,0.98 C46.05,0.98 40.29,5.24 40.29,10.88 L40.29,40.46 C40.29,46.1 46.05,50.36 52.35,50.36 C58.77,50.36 64.41,46.1 64.41,40.46 L64.41,10.88 Z M80.99,32.84 C82.61,24.74 83.87,18.2 85.31,11.3 L89.81,32.84 L80.99,32.84 Z M98.21,50 L87.95,0.98 L82.61,0.98 L72.71,50 L77.51,50 L80.21,37.1 L90.59,37.1 L93.41,50 L98.21,50 Z M117.67,5.48 C120.67,5.48 123.43,7.76 123.43,10.88 L123.43,40.1 C123.43,43.22 120.67,45.5 117.67,45.5 L111.85,45.5 L111.85,5.48 L117.67,5.48 Z M117.67,50 C123.13,50 128.11,45.8 128.11,40.1 L128.11,10.88 C128.11,5.18 123.13,0.98 117.67,0.98 L107.23,0.98 L107.23,50 L117.67,50 Z" id="LOAD"></path>
                        <path d="M15.367,82 L19.547,67.326 L17.523,67.326 L14.289,79.558 L10.923,67.326 L9.405,67.326 L6.039,79.558 L2.783,67.326 L0.759,67.326 L4.939,82 L6.919,82 L10.153,70.164 L13.387,82 L15.367,82 Z M31.207,82 L31.207,80.372 L23.419,80.372 L23.419,75.312 L31.053,75.312 L31.053,73.684 L23.419,73.684 L23.419,68.954 L31.207,68.954 L31.207,67.326 L21.593,67.326 L21.593,82 L31.207,82 Z M40.799,82 C43.483,82 45.045,80.394 45.045,78.04 C45.045,76.28 43.747,74.674 42.185,74.432 C43.527,74.146 44.759,72.914 44.759,71.066 C44.759,68.866 43.197,67.326 40.645,67.326 L34.111,67.326 L34.111,82 L40.799,82 Z M40.337,73.684 L35.937,73.684 L35.937,68.954 L40.337,68.954 C41.987,68.954 42.867,70.01 42.867,71.33 C42.867,72.672 41.987,73.684 40.337,73.684 Z M40.425,80.372 L35.937,80.372 L35.937,75.312 L40.425,75.312 C42.229,75.312 43.153,76.5 43.153,77.842 C43.153,79.404 42.141,80.372 40.425,80.372 Z M66.187,82 L60.269,67.326 L58.003,67.326 L52.107,82 L54.197,82 L55.495,78.744 L62.799,78.744 L64.097,82 L66.187,82 Z M62.249,77.116 L56.023,77.116 L59.147,69.218 L62.249,77.116 Z M78.749,82 L74.789,76.016 C76.791,75.84 78.595,74.388 78.595,71.748 C78.595,69.042 76.681,67.326 73.997,67.326 L68.101,67.326 L68.101,82 L69.927,82 L69.927,76.17 L72.853,76.17 L76.593,82 L78.749,82 Z M73.777,74.564 L69.927,74.564 L69.927,68.954 L73.777,68.954 C75.515,68.954 76.703,70.098 76.703,71.748 C76.703,73.398 75.515,74.564 73.777,74.564 Z M88.429,82.264 C91.025,82.264 92.785,81.032 94.017,79.36 L92.455,78.502 C91.619,79.756 90.101,80.636 88.429,80.636 C85.217,80.636 82.775,78.15 82.775,74.674 C82.775,71.176 85.217,68.712 88.429,68.712 C90.101,68.712 91.619,69.614 92.455,70.846 L93.995,69.988 C92.829,68.338 91.025,67.084 88.429,67.084 C84.205,67.084 80.883,70.164 80.883,74.674 C80.883,79.184 84.205,82.264 88.429,82.264 Z M108.581,82 L108.581,67.326 L106.755,67.326 L106.755,73.64 L98.175,73.64 L98.175,67.326 L96.349,67.326 L96.349,82 L98.175,82 L98.175,75.268 L106.755,75.268 L106.755,82 L108.581,82 Z M113.839,82 L113.839,67.326 L112.013,67.326 L112.013,82 L113.839,82 Z M123.915,82 L129.833,67.326 L127.743,67.326 L122.793,79.998 L117.843,67.326 L115.753,67.326 L121.649,82 L123.915,82 Z M141.361,82 L141.361,80.372 L133.573,80.372 L133.573,75.312 L141.207,75.312 L141.207,73.684 L133.573,73.684 L133.573,68.954 L141.361,68.954 L141.361,67.326 L131.747,67.326 L131.747,82 L141.361,82 Z" id="WEB-ARCHIVE"></path>
                    </g>
                </g>
            </g>
        </g>
    </g>
</svg>