<?xml version="1.0" encoding="UTF-8"?>
<!DOCTYPE svg PUBLIC "-//W3C//DTD SVG 1.1//EN" "http://www.w3.org/Graphics/SVG/1.1/DTD/svg11.dtd">
<svg version="1.1" xmlns="http://www.w3.org/2000/svg" xmlns:xlink="http://www.w3.org/1999/xlink" x="0px" y="0px" viewBox="0 0 270 127" enable-background="new 0 0 270 127" xml:space="preserve">
<g>
	<path fill="#232325" d="M45.8,93.8h-6.9V56.4h-0.1L24,75h-1.1L8,56.4H7.9v37.4H1v-48h6.5l15.9,19.7l16-19.7h6.4V93.8z"/>
	<path fill="#232325" d="M83.4,52H63v14.5h19.6v6.2H63v14.9h21v6.2H56.1v-48h27.3V52z"/>
	<path fill="#232325" d="M99.9,87.6h21.7v6.2H93v-48h6.9V87.6z"/>
	<path fill="#232325" d="M138,87.6h21.7v6.2h-28.6v-48h6.9V87.6z"/>
	<path fill="#232325" d="M189.3,45.1c15.8,0,25.8,11.3,25.8,24.6c0,13-9.7,24.6-26,24.6c-15.7,0-25.6-11.6-25.6-24.6C163.5,56.5,173.7,45.1,189.3,45.1z M189.3,88.1c10.8,0,18.7-7.8,18.7-18.3c0-10.6-8-18.3-18.7-18.3c-10.7,0-18.7,7.7-18.7,18.3C170.6,80.3,178.6,88.1,189.3,88.1z"/>
	<path fill="#232325" d="M268,93.8h-5.9l-32.1-37v37h-6.5v-48h5.5L261.6,83V45.8h6.5V93.8z"/>
</g>
<g>
	<path fill="#5E5F5F" d="M9.1,4H5.8v8.3H4.4V4H1.1V2.8h8V4z"/>
	<path fill="#5E5F5F" d="M18.6,12.3h-1.4V8.2h-5.4v4.2h-1.4V2.8h1.4v4.2h5.4V2.8h1.4V12.3z"/>
	<path fill="#5E5F5F" d="M26.3,4h-4v2.9h3.9v1.2h-3.9v3h4.2v1.2h-5.5V2.8h5.4V4z"/>
	<path fill="#5E5F5F" d="M10.2,30.3H8.8l-1.3-2.8H3.5l-1.2,2.8H0.9L5,20.7h1L10.2,30.3z M4,26.3h3l-1.5-3.5L4,26.3z"/>
	<path fill="#5E5F5F" d="M20.2,30.3h-1.2L12.7,23v7.4h-1.3v-9.6h1.1l6.5,7.4v-7.4h1.3V30.3z"/>
	<path fill="#5E5F5F" d="M22.5,20.8h3.7c3.5,0,5.1,2.5,5.1,4.8c0,2.5-1.9,4.8-5.1,4.8h-3.7V20.8z M23.9,29.1H26c3.1,0,3.8-2.4,3.8-3.5c0-1.9-1.2-3.5-3.9-3.5h-2.1V29.1z"/>
	<path fill="#5E5F5F" d="M35.5,20.8c1.9,0,3.1,1,3.1,2.7c0,1.1-0.6,1.9-1.6,2.3c0.9,0.6,1.4,1.5,2.1,2.6c0.4,0.7,0.6,1,1.3,1.9h-1.6l-1.3-2c-1.3-2-1.8-2.2-2.5-2.2h-0.6v4.1h-1.4v-9.6H35.5z M34.5,24.9h0.9c1.5,0,1.9-0.8,1.9-1.6c0-0.9-0.5-1.4-1.9-1.4h-0.9V24.9z"/>
	<path fill="#5E5F5F" d="M47.1,22h-4v2.9H47v1.2h-3.9v3h4.2v1.2h-5.5v-9.6h5.4V22z"/>
	<path fill="#5E5F5F" d="M58.5,30.4h-0.3l-3.1-7.8l-3.2,7.8h-0.3l-3.9-9.6h1.4l2.6,6.6l2.6-6.6h1.3l2.7,6.6l2.6-6.6h1.4L58.5,30.4z"/>
	<path fill="#5E5F5F" d="M79.5,30.4h-0.3l-3.1-7.8L73,30.4h-0.3l-3.9-9.6h1.4l2.6,6.6l2.6-6.6h1.3l2.7,6.6l2.6-6.6h1.4L79.5,30.4z"/>
	<path fill="#5E5F5F" d="M84.1,29.6c0,0.5-0.4,0.8-0.8,0.8s-0.8-0.4-0.8-0.8c0-0.5,0.4-0.8,0.8-0.8S84.1,29.2,84.1,29.6z"/>
</g>
<polygon fill="#EF4B4B" points="39.3,45.7 45.8,45.7 45.8,47.9 24.1,75 22.8,75 19.3,70.6 "/>
<g>
	<path fill="#232325" d="M144.2,112.3h-5.3v3.8h5.3v1.8h-5.3v6.3h-2v-13.6h7.3V112.3z"/>
	<path fill="#232325" d="M153.7,110.4c4.5,0,7.3,3.2,7.3,7c0,3.7-2.8,7-7.4,7c-4.5,0-7.3-3.3-7.3-7C146.4,113.6,149.3,110.4,153.7,110.4z M153.7,122.6c3.1,0,5.3-2.2,5.3-5.2c0-3-2.3-5.2-5.3-5.2c-3,0-5.3,2.2-5.3,5.2C148.4,120.4,150.6,122.6,153.7,122.6z"/>
	<path fill="#232325" d="M175.3,118.8c0,3.3-2,5.5-6.1,5.5c-2.9,0-5.7-1.6-5.7-5.3v-8.5h2v8.1c0,1.5,0.2,2.2,0.8,2.8c0.8,0.8,1.8,1.2,2.9,1.2c1.5,0,2.6-0.5,3.2-1.1c0.7-0.7,0.9-1.7,0.9-3v-7.9h2V118.8z"/>
	<path fill="#232325" d="M191,124.2h-1.7l-9.1-10.5v10.5h-1.8v-13.6h1.6l9.2,10.6v-10.6h1.8V124.2z"/>
	<path fill="#232325" d="M194.5,110.6h5.3c5,0,7.3,3.6,7.3,6.8c0,3.5-2.7,6.8-7.2,6.8h-5.3V110.6z M196.5,122.4h3.1c4.4,0,5.5-3.4,5.5-5.1c0-2.7-1.7-5.1-5.6-5.1h-3V122.4z"/>
	<path fill="#232325" d="M220.8,124.2h-2l-1.8-4h-5.8l-1.7,4h-2l5.9-13.7h1.4L220.8,124.2z M211.9,118.4h4.2l-2.2-4.9L211.9,118.4z"/>
	<path fill="#232325" d="M231,112.3h-4.7v11.9h-2v-11.9h-4.7v-1.8H231V112.3z"/>
	<path fill="#232325" d="M235.3,124.2h-2v-13.6h2V124.2z"/>
	<path fill="#232325" d="M245.5,110.4c4.5,0,7.3,3.2,7.3,7c0,3.7-2.8,7-7.4,7c-4.5,0-7.3-3.3-7.3-7C238.2,113.6,241.1,110.4,245.5,110.4z M245.5,122.6c3.1,0,5.3-2.2,5.3-5.2c0-3-2.3-5.2-5.3-5.2c-3,0-5.3,2.2-5.3,5.2C240.2,120.4,242.5,122.6,245.5,122.6z"/>
	<path fill="#232325" d="M268.3,124.2h-1.7l-9.1-10.5v10.5h-1.8v-13.6h1.6l9.2,10.6v-10.6h1.8V124.2z"/>
</g>
</svg>