<?xml version="1.0" encoding="UTF-8"?>
<svg width="18px" height="16px" viewBox="0 0 18 16" version="1.1" xmlns="http://www.w3.org/2000/svg" xmlns:xlink="http://www.w3.org/1999/xlink">
    <g stroke="none" stroke-width="1" fill="none" fill-rule="evenodd" opacity="0.6">
        <g transform="translate(-9.000000, -20.000000)" fill="#3E3E3E">
            <g>
                <path d="M25.3125,20.0292969 C25.7812498,20.0292969 26.1796877,20.1933592 26.5078125,20.5214832 C26.8359373,20.8496072 27,21.2480441 27,21.7167929 L27,34.0917633 C27,34.5605121 26.8359373,34.958949 26.5078125,35.287073 C26.1796877,35.615197 25.7812498,35.7792593 25.3125,35.7792593 L10.6875,35.7792593 C10.2187502,35.7792593 9.82031232,35.615197 9.4921875,35.287073 C9.16406268,34.958949 9,34.5605121 9,34.0917633 L9,21.7167929 C9,21.2480441 9.16406268,20.8496072 9.4921875,20.5214832 C9.82031232,20.1933592 10.2187502,20.0292969 10.6875,20.0292969 L25.3125,20.0292969 Z M25.1015241,34.0917633 C25.1483988,34.0917633 25.1952741,34.0683257 25.2421488,34.021451 C25.2890235,33.9745763 25.3124611,33.9277011 25.3124611,33.8808264 L25.3124611,21.9277298 C25.3124611,21.8808551 25.2890235,21.8339799 25.2421488,21.7871052 C25.1952741,21.7402305 25.1483988,21.7167929 25.1015241,21.7167929 L10.898433,21.7167929 C10.8515583,21.7167929 10.804683,21.7402305 10.7578083,21.7871052 C10.7109336,21.8339799 10.687496,21.8808551 10.687496,21.9277298 L10.687496,33.8808264 C10.687496,33.9277011 10.7109336,33.9745763 10.7578083,34.021451 C10.804683,34.0683257 10.8515583,34.0917633 10.898433,34.0917633 L25.1015241,34.0917633 Z M23.6249651,31.701144 C23.6249651,31.8183311 23.5839494,31.9179406 23.5019185,31.9999715 C23.4198877,32.0820023 23.3202782,32.123018 23.2030911,32.123018 L16.1718579,32.123018 C16.0546709,32.123018 15.9550614,32.0820023 15.8730305,31.9999715 C15.7909996,31.9179406 15.7499839,31.8183311 15.7499839,31.701144 L15.7499839,30.8573961 C15.7499839,30.740209 15.7909996,30.6405995 15.8730305,30.5585686 C15.9550614,30.4765378 16.0546709,30.4355221 16.1718579,30.4355221 L23.2030911,30.4355221 C23.3202782,30.4355221 23.4198877,30.4765378 23.5019185,30.5585686 C23.5839494,30.6405995 23.6249651,30.740209 23.6249651,30.8573961 L23.6249651,31.701144 Z M23.6249651,28.3261521 C23.6249651,28.4433391 23.5839494,28.5429486 23.5019185,28.6249795 C23.4198877,28.7070104 23.3202782,28.7480261 23.2030911,28.7480261 L16.1718579,28.7480261 C16.0546709,28.7480261 15.9550614,28.7070104 15.8730305,28.6249795 C15.7909996,28.5429486 15.7499839,28.4433391 15.7499839,28.3261521 L15.7499839,27.4824041 C15.7499839,27.3652171 15.7909996,27.2656076 15.8730305,27.1835767 C15.9550614,27.1015458 16.0546709,27.0605301 16.1718579,27.0605301 L23.2030911,27.0605301 C23.3202782,27.0605301 23.4198877,27.1015458 23.5019185,27.1835767 C23.5839494,27.2656076 23.6249651,27.3652171 23.6249651,27.4824041 L23.6249651,28.3261521 Z M23.6249651,24.9511601 C23.6249651,25.0683472 23.5839494,25.1679567 23.5019185,25.2499876 C23.4198877,25.3320184 23.3202782,25.3730341 23.2030911,25.3730341 L16.1718579,25.3730341 C16.0546709,25.3730341 15.9550614,25.3320184 15.8730305,25.2499876 C15.7909996,25.1679567 15.7499839,25.0683472 15.7499839,24.9511601 L15.7499839,24.1074122 C15.7499839,23.9902251 15.7909996,23.8906156 15.8730305,23.8085847 C15.9550614,23.7265539 16.0546709,23.6855382 16.1718579,23.6855382 L23.2030911,23.6855382 C23.3202782,23.6855382 23.4198877,23.7265539 23.5019185,23.8085847 C23.5839494,23.8906156 23.6249651,23.9902251 23.6249651,24.1074122 L23.6249651,24.9511601 Z M14.7656113,24.5292861 C14.7656113,24.8808478 14.6425647,25.1796752 14.3964715,25.4257684 C14.1503783,25.6718615 13.8515509,25.7949081 13.4999893,25.7949081 C13.1484276,25.7949081 12.8496002,25.6718615 12.603507,25.4257684 C12.3574139,25.1796752 12.2343673,24.8808478 12.2343673,24.5292861 C12.2343673,24.1777245 12.3574139,23.8788971 12.603507,23.6328039 C12.8496002,23.3867107 13.1484276,23.2636642 13.4999893,23.2636642 C13.8515509,23.2636642 14.1503783,23.3867107 14.3964715,23.6328039 C14.6425647,23.8788971 14.7656113,24.1777245 14.7656113,24.5292861 Z M14.7656113,27.9042781 C14.7656113,28.2558398 14.6425647,28.5546672 14.3964715,28.8007603 C14.1503783,29.0468535 13.8515509,29.1699001 13.4999893,29.1699001 C13.1484276,29.1699001 12.8496002,29.0468535 12.603507,28.8007603 C12.3574139,28.5546672 12.2343673,28.2558398 12.2343673,27.9042781 C12.2343673,27.5527164 12.3574139,27.253889 12.603507,27.0077959 C12.8496002,26.7617027 13.1484276,26.6386561 13.4999893,26.6386561 C13.8515509,26.6386561 14.1503783,26.7617027 14.3964715,27.0077959 C14.6425647,27.253889 14.7656113,27.5527164 14.7656113,27.9042781 Z M14.7656113,31.2792701 C14.7656113,31.6308317 14.6425647,31.9296591 14.3964715,32.1757523 C14.1503783,32.4218455 13.8515509,32.544892 13.4999893,32.544892 C13.1484276,32.544892 12.8496002,32.4218455 12.603507,32.1757523 C12.3574139,31.9296591 12.2343673,31.6308317 12.2343673,31.2792701 C12.2343673,30.9277084 12.3574139,30.628881 12.603507,30.3827878 C12.8496002,30.1366947 13.1484276,30.0136481 13.4999893,30.0136481 C13.8515509,30.0136481 14.1503783,30.1366947 14.3964715,30.3827878 C14.6425647,30.628881 14.7656113,30.9277084 14.7656113,31.2792701 Z" id=""></path>
            </g>
        </g>
    </g>
</svg>