<?xml version="1.0" encoding="UTF-8" standalone="no"?>
<svg width="21px" height="22px" viewBox="0 0 21 22" version="1.1" xmlns="http://www.w3.org/2000/svg" xmlns:xlink="http://www.w3.org/1999/xlink">
    <!-- Generator: Sketch 41.2 (35397) - http://www.bohemiancoding.com/sketch -->
    <title>Refresh</title>
    <desc>Created with Sketch.</desc>
    <defs></defs>
    <g id="Page-1" stroke="none" stroke-width="1" fill="none" fill-rule="evenodd">
        <g id="03-Replay-View" transform="translate(-166.000000, -48.000000)" fill="#000000">
            <g id="Refresh" transform="translate(166.000000, 48.000000)">
                <g id="Layer_1">
                    <path d="M18.3318975,2.8912275 C16.3834912,1.10011125 13.7862637,0.00438375 10.9374825,0.00438375 C4.90657125,0.00438375 0,4.91092875 0,10.9418662 C0,16.9728037 4.90657125,21.879375 10.9375087,21.879375 C13.9481737,21.879375 16.6781737,20.6565712 18.6578437,18.6816787 L16.4933213,16.5171562 C15.0681562,17.9372812 13.10358,18.8168662 10.9375087,18.8168662 C6.5951025,18.8168662 3.06250875,15.2842725 3.06250875,10.9418662 C3.06250875,6.59946 6.5951025,3.06686625 10.9375087,3.06686625 C12.9421425,3.06686625 14.7728438,3.8208975 16.16454,5.058585 L13.5625087,7.66061625 L18.0934688,7.66061625 L21,7.66061625 L21,6.65742 L21,0.223125 L18.3318975,2.8912275 Z" id="Shape"></path>
                </g>
            </g>
        </g>
    </g>
</svg>