<?xml version="1.0" encoding="UTF-8"?>
<svg width="911px" height="331px" viewBox="0 0 911 331" version="1.1" xmlns="http://www.w3.org/2000/svg" xmlns:xlink="http://www.w3.org/1999/xlink">
    <!-- Generator: Sketch 51.3 (57544) - http://www.bohemiancoding.com/sketch -->
    <title>Webrecorder-Player-Logo-Vector</title>
    <desc>Created with Sketch.</desc>
    <defs></defs>
    <g id="Webrecorder-Player-Logo-Vector" stroke="none" stroke-width="1" fill="none" fill-rule="evenodd">
        <g transform="translate(66.000000, 55.000000)" fill="#000000">
            <path d="M306.0625,208.9375 L306.0625,164.78125 L310.3125,164.78125 L310.3125,171.6875 C312.28125,167.0625 316.59375,164.28125 321.53125,164.28125 C329.90625,164.28125 334.75,171.5625 334.75,180.40625 C334.75,189.28125 329.90625,196.46875 321.46875,196.46875 C316.5,196.46875 312.28125,193.6875 310.3125,189.125 L310.3125,208.9375 L306.0625,208.9375 Z M320.5625,192.71875 C327.09375,192.71875 330.59375,187.3125 330.59375,180.40625 C330.59375,173.46875 327.09375,168.125 320.5625,168.125 C314.0625,168.125 309.96875,173.40625 309.96875,180.40625 C309.96875,187.40625 314.0625,192.71875 320.5625,192.71875 Z M349.0625,196.46875 C344.625,196.46875 343.3125,193.8125 343.3125,189.40625 L343.3125,151.84375 L347.4375,151.84375 L347.4375,188.34375 C347.4375,190.75 347.75,192.75 350.875,192.75 C351.53125,192.75 352.46875,192.625 353.40625,192.4375 L353.46875,195.96875 C352.09375,196.25 350.40625,196.46875 349.0625,196.46875 Z M371.1875,164.28125 C379.1875,164.28125 383.625,169.09375 383.625,176.9375 L383.625,196 L380.1875,196 L379.90625,189.65625 C377.5625,194.1875 373.21875,196.46875 368.5625,196.46875 C362.21875,196.46875 357.78125,192.9375 357.78125,186.9375 C357.78125,180.59375 362.8125,178.03125 370.875,178.03125 L379.875,178.03125 L379.875,177.65625 C379.875,171.0625 377.46875,167.9375 371.21875,167.9375 C367.0625,167.9375 364.3125,169.8125 362.15625,173.03125 L359,170.71875 C362.03125,166.53125 365.65625,164.28125 371.1875,164.28125 Z M369.34375,192.9375 C374.78125,192.9375 378.4375,189.40625 379.875,184.28125 L379.875,181.09375 L371.09375,181.09375 C364.9375,181.09375 362,183.3125 362,187.0625 C362,190.625 364.65625,192.9375 369.34375,192.9375 Z M397.4375,209.375 L402.75,195.625 L389.46875,164.78125 L394,164.78125 L404.9375,190.78125 L414.5625,164.78125 L419.0625,164.78125 L401.9375,209.375 L397.4375,209.375 Z M437.875,196.46875 C428.46875,196.46875 423.3125,189.5 423.3125,180.53125 C423.3125,171.71875 428.28125,164.28125 437.375,164.28125 C447.5625,164.28125 450.90625,172.53125 450.90625,178.71875 C450.90625,179.78125 450.8125,181.03125 450.6875,181.5 L427.6875,181.5 C428,188.46875 431.625,192.71875 437.90625,192.71875 C441.65625,192.71875 444.25,191.6875 447.0625,188.75 L449.9375,191.28125 C446.4375,194.9375 442.90625,196.46875 437.875,196.46875 Z M427.6875,178.4375 L446.78125,178.4375 C446.8125,177.78125 446.8125,177.09375 446.71875,176.46875 C446.34375,172.25 443.53125,167.8125 437.34375,167.8125 C431.65625,167.8125 428.21875,172.1875 427.6875,178.4375 Z M459.40625,196 L459.40625,164.78125 L463.4375,164.78125 L463.4375,171.3125 C465,166.5 469.34375,164.28125 473.0625,164.28125 C474.8125,164.28125 476.59375,164.78125 477.9375,165.78125 L476.0625,169.21875 C474.96875,168.625 473.75,168.3125 472.5,168.3125 C468.34375,168.3125 463.40625,171.59375 463.40625,180.0625 L463.40625,196 L459.40625,196 Z" id="player"></path>
            <path d="M130.481725,22.7586658 L102.286225,101.289236 L90.0681752,107.40383 L71.3886564,50.9337559 L53.8839501,101.289236 L41.6659001,107.40383 L11.4732188,22.5188778 L0.3125,15.6849197 L2.66212501,10.8891597 L34.8519876,10.8891597 L34.8519876,14.6058737 L26.2758563,21.2000437 L50.7119564,91.4579281 L68.2166627,41.5820239 L61.8726752,22.3989838 L51.0644001,15.6849197 L53.4140251,10.8891597 L87.9535127,10.8891597 L87.9535127,14.6058737 L77.4976815,22.8785598 L99.349194,91.2181401 L123.550332,22.8785598 L102.638669,15.6849197 L104.988294,10.8891597 L140.702594,10.8891597 L140.702594,14.6058737 L130.481725,22.7586658 Z M169.994586,105.365632 C166.861737,106.00507 163.102374,106.324784 158.716386,106.324784 C153.547185,106.324784 148.906722,104.946017 144.794858,102.188441 C140.682993,99.4308654 137.471871,95.6942064 135.161395,90.9783521 C132.850919,86.2624978 131.695698,81.0671431 131.695698,75.392132 C131.695698,69.2375426 133.536219,63.4627059 137.217317,58.0674489 C140.898415,52.6721919 145.499718,48.3560511 151.021364,45.1188969 C156.54301,41.8817427 161.888354,40.2631898 167.057555,40.2631898 C174.498071,40.2631898 180.274175,43.2605099 184.386039,49.2552399 C188.497903,55.2499699 190.553805,63.1628948 190.553805,72.994252 L147.085742,72.994252 C147.555669,79.7882794 149.376611,85.3433125 152.54862,89.6595181 C155.72063,93.9757237 160.047813,96.1337941 165.530298,96.1337941 C170.621178,96.1337941 177.865783,92.0974031 187.26433,84.0245001 L190.788767,88.5804721 L169.994586,105.365632 Z M160.243642,50.3342859 C151.78495,50.3342859 147.359867,56.2489974 146.968261,68.078598 L174.458873,68.078598 C173.753982,63.7623924 173.029522,60.4653403 172.28547,58.1873429 C171.541419,55.9093455 170.249138,54.031025 168.408589,52.5523249 C166.56804,51.0736248 163.846418,50.3342859 160.243642,50.3342859 Z M243.459528,40.2631898 C247.688874,40.2631898 251.506976,41.6419571 254.91395,44.3995329 C258.320923,47.1571087 260.983805,50.8937677 262.902675,55.6096219 C264.821545,60.3254762 265.780965,65.5208309 265.780965,71.195842 C265.780965,77.3504315 263.940444,83.1252681 260.259347,88.5205251 C256.578249,93.9157821 251.976946,98.231923 246.4553,101.469077 C240.933653,104.706231 235.58831,106.324784 230.419109,106.324784 C227.207939,106.324784 224.212197,105.605427 221.431793,104.166692 C218.65139,102.727957 216.203888,100.689779 214.089215,98.0520981 L209.037521,105.125844 L204.573234,105.125844 L204.573234,19.2817397 L194.117403,11.8483117 L194.117403,8.13159768 L214.206696,0.458381637 L218.670984,0.458381637 L218.670984,53.9311059 L234.413471,41.2223419 C236.919751,40.582904 239.935073,40.2631898 243.459528,40.2631898 Z M237.233021,96.2536881 C246.08332,96.2536881 250.508403,89.8194411 250.508403,76.950754 C250.508403,69.5172888 249.372762,63.2428989 247.101446,58.1273959 C244.830131,53.011893 241.619009,50.4541799 237.467984,50.4541799 C234.491777,50.4541799 231.593936,51.0536439 228.774371,52.2525899 C225.954807,53.4515359 222.587045,55.8094277 218.670984,59.3263359 L218.670984,80.7873621 C218.670984,85.1834974 220.276545,88.86021 223.487715,91.8176101 C226.698885,94.7750103 231.280608,96.2536881 237.233021,96.2536881 Z M315.04477,40.3830838 C317.62937,40.3830838 319.900651,41.1024407 321.858682,42.5411759 C323.816713,43.9799111 325.343954,45.9781244 326.440451,48.5358759 L318.686688,58.4870779 L314.222401,58.4870779 C313.909116,56.4888346 313.341296,55.0701031 312.518923,54.2308409 C311.69655,53.3915787 310.580489,52.9719539 309.170707,52.9719539 C307.44764,52.9719539 305.626699,53.431543 303.707829,54.3507349 C301.788959,55.2699269 299.615578,57.0083725 297.18762,59.5661239 L297.18762,95.2945361 L313.634995,100.449978 L311.28537,105.245738 L272.634038,105.245738 L272.634038,101.529024 L283.08987,93.1364441 L283.08987,59.2064419 L272.634038,52.9719539 L272.634038,49.2552399 L292.723332,39.1841438 L296.365251,53.9311059 L308.583301,41.2223419 C310.228047,40.582904 312.381848,40.2631898 315.04477,40.2631898 L315.04477,40.3830838 Z M365.83583,105.365632 C362.702981,106.00507 358.943619,106.324784 354.55763,106.324784 C349.388429,106.324784 344.747966,104.946017 340.636102,102.188441 C336.524238,99.4308654 333.313116,95.6942064 331.002639,90.9783521 C328.692163,86.2624978 327.536943,81.0671431 327.536943,75.392132 C327.536943,69.2375426 329.377464,63.4627059 333.058561,58.0674489 C336.739659,52.6721919 341.340962,48.3560511 346.862608,45.1188969 C352.384255,41.8817427 357.729598,40.2631898 362.898799,40.2631898 C370.339315,40.2631898 376.115419,43.2605099 380.227283,49.2552399 C384.339148,55.2499699 386.395049,63.1628948 386.395049,72.994252 L342.926986,72.994252 C343.396914,79.7882794 345.217855,85.3433125 348.389864,89.6595181 C351.561874,93.9757237 355.889057,96.1337941 361.371543,96.1337941 C366.462422,96.1337941 373.707027,92.0974031 383.105574,84.0245001 L386.630011,88.5804721 L365.83583,105.365632 Z M356.084886,50.3342859 C347.626194,50.3342859 343.201111,56.2489974 342.809505,68.078598 L370.300118,68.078598 C369.595227,63.7623924 368.870766,60.4653403 368.126715,58.1873429 C367.382663,55.9093455 366.090382,54.031025 364.249833,52.5523249 C362.409284,51.0736248 359.687663,50.3342859 356.084886,50.3342859 Z M428.257534,40.2631898 C431.468705,40.2631898 435.208487,40.7227789 439.476994,41.6419709 C443.745501,42.5611628 446.819563,43.5802516 448.699272,44.6992679 L448.699272,63.162944 L444.234985,63.162944 C441.180457,59.1664573 437.675634,56.0292623 433.720413,53.7512649 C429.765191,51.4732675 425.672968,50.3342859 421.443622,50.3342859 C417.840846,50.3342859 415.119224,51.9728209 413.278675,55.2499399 C411.438126,58.527059 410.517866,63.3227711 410.517866,69.63722 C410.517866,77.1506149 412.123427,83.444987 415.334597,88.5205251 C418.545767,93.5960632 423.12749,96.1337941 429.079903,96.1337941 C433.544213,96.1337941 439.888137,92.8567242 448.111866,86.3024861 L451.636303,90.8584581 L433.544191,105.365632 C430.411342,106.00507 426.651979,106.324784 422.265991,106.324784 C417.09679,106.324784 412.456327,104.946017 408.344463,102.188441 C404.232598,99.4308654 401.021476,95.6942064 398.711,90.9783521 C396.400524,86.2624978 395.245303,81.0671431 395.245303,75.392132 C395.245303,69.2375426 396.948764,63.4427238 400.355738,58.0075019 C403.762711,52.5722801 408.050734,48.2561392 413.219934,45.0589499 C418.389135,41.8617605 423.401619,40.2631898 428.257534,40.2631898 Z M494.791083,40.2631898 C499.960283,40.2631898 504.600746,41.6419571 508.712611,44.3995329 C512.824475,47.1571087 516.035597,50.8937677 518.346073,55.6096219 C520.656549,60.3254762 521.81177,65.5208309 521.81177,71.195842 C521.81177,77.3504315 519.971249,83.1252681 516.290151,88.5205251 C512.609054,93.9157821 508.007751,98.231923 502.486104,101.469077 C496.964458,104.706231 491.619115,106.324784 486.449914,106.324784 C481.280713,106.324784 476.64025,104.946017 472.528386,102.188441 C468.416521,99.4308654 465.205399,95.6942064 462.894923,90.9783521 C460.584447,86.2624978 459.429226,81.0671431 459.429226,75.392132 C459.429226,69.2375426 461.269747,63.4627059 464.950845,58.0674489 C468.631943,52.6721919 473.233246,48.3560511 478.754892,45.1188969 C484.276538,41.8817427 489.621882,40.2631898 494.791083,40.2631898 Z M487.97717,50.3342859 C479.126872,50.3342859 474.701789,56.7685329 474.701789,69.63722 C474.701789,77.2305447 476.30735,83.564881 479.51852,88.6404191 C482.72969,93.7159572 487.311413,96.2536881 493.263826,96.2536881 C502.114125,96.2536881 506.539208,89.7794768 506.539208,76.83086 C506.539208,69.3174651 504.933647,63.023093 501.722476,57.9475549 C498.511306,52.8720169 493.929583,50.3342859 487.97717,50.3342859 Z M571.075574,40.3830838 C573.660175,40.3830838 575.931456,41.1024407 577.889487,42.5411759 C579.847518,43.9799111 581.374759,45.9781244 582.471256,48.5358759 L574.717493,58.4870779 L570.253206,58.4870779 C569.939921,56.4888346 569.3721,55.0701031 568.549728,54.2308409 C567.727355,53.3915787 566.611294,52.9719539 565.201512,52.9719539 C563.478445,52.9719539 561.657504,53.431543 559.738634,54.3507349 C557.819764,55.2699269 555.646382,57.0083725 553.218424,59.5661239 L553.218424,95.2945361 L569.665799,100.449978 L567.316174,105.245738 L528.664843,105.245738 L528.664843,101.529024 L539.120674,93.1364441 L539.120674,59.2064419 L528.664843,52.9719539 L528.664843,49.2552399 L548.754137,39.1841438 L552.396056,53.9311059 L564.614106,41.2223419 C566.258851,40.582904 568.412653,40.2631898 571.075574,40.2631898 L571.075574,40.3830838 Z M652.764204,105.125844 L630.442766,105.125844 L630.442766,96.4934761 L619.51701,105.365632 C617.010731,106.00507 613.995409,106.324784 610.470954,106.324784 C605.301753,106.324784 600.66129,104.946017 596.549426,102.188441 C592.437561,99.4308654 589.226439,95.6942064 586.915963,90.9783521 C584.605487,86.2624978 583.450266,81.0671431 583.450266,75.392132 C583.450266,69.2375426 585.290787,63.4627059 588.971885,58.0674489 C592.652982,52.6721919 597.254285,48.3560511 602.775932,45.1188969 C608.297578,41.8817427 613.642922,40.2631898 618.812122,40.2631898 C623.11979,40.2631898 627.035792,41.5020821 630.560248,43.9799039 L630.560248,19.2817397 L620.104416,11.8483117 L620.104416,8.13159768 L640.19371,0.458381637 L644.657998,0.458381637 L644.657998,96.1337941 L655.113829,100.330084 L652.764204,105.125844 Z M616.462497,96.1337941 C618.812134,96.1337941 621.063836,95.7940979 623.217669,95.1146951 C625.371503,94.4352924 627.779845,93.1364537 630.442766,91.2181401 L630.442766,63.882308 C629.972839,59.8858213 628.151898,56.6287335 624.979888,54.1109469 C621.807879,51.5931603 617.480696,50.3342859 611.99821,50.3342859 C603.147912,50.3342859 598.722829,56.7685329 598.722829,69.63722 C598.722829,77.1506149 600.25007,83.444987 603.304597,88.5205251 C606.359125,93.5960632 610.745048,96.1337941 616.462497,96.1337941 Z M696.858833,105.365632 C693.725984,106.00507 689.966622,106.324784 685.580633,106.324784 C680.411432,106.324784 675.770969,104.946017 671.659105,102.188441 C667.547241,99.4308654 664.336119,95.6942064 662.025642,90.9783521 C659.715166,86.2624978 658.559946,81.0671431 658.559946,75.392132 C658.559946,69.2375426 660.400467,63.4627059 664.081564,58.0674489 C667.762662,52.6721919 672.363965,48.3560511 677.885611,45.1188969 C683.407258,41.8817427 688.752601,40.2631898 693.921802,40.2631898 C701.362318,40.2631898 707.138422,43.2605099 711.250286,49.2552399 C715.362151,55.2499699 717.418052,63.1628948 717.418052,72.994252 L673.949989,72.994252 C674.419917,79.7882794 676.240858,85.3433125 679.412867,89.6595181 C682.584877,93.9757237 686.91206,96.1337941 692.394546,96.1337941 C697.485425,96.1337941 704.73003,92.0974031 714.128577,84.0245001 L717.653014,88.5804721 L696.858833,105.365632 Z M687.107889,50.3342859 C678.649197,50.3342859 674.224114,56.2489974 673.832508,68.078598 L701.323121,68.078598 C700.61823,63.7623924 699.893769,60.4653403 699.149717,58.1873429 C698.405666,55.9093455 697.113385,54.031025 695.272836,52.5523249 C693.432287,51.0736248 690.710666,50.3342859 687.107889,50.3342859 Z M766.916819,40.3830838 C769.501419,40.3830838 771.772701,41.1024407 773.730731,42.5411759 C775.688762,43.9799111 777.216003,45.9781244 778.3125,48.5358759 L770.558737,58.4870779 L766.09445,58.4870779 C765.781165,56.4888346 765.213345,55.0701031 764.390972,54.2308409 C763.568599,53.3915787 762.452538,52.9719539 761.042756,52.9719539 C759.319689,52.9719539 757.498748,53.431543 755.579878,54.3507349 C753.661008,55.2699269 751.487627,57.0083725 749.059669,59.5661239 L749.059669,95.2945361 L765.507044,100.449978 L763.157419,105.245738 L724.506087,105.245738 L724.506087,101.529024 L734.961919,93.1364441 L734.961919,59.2064419 L724.506087,52.9719539 L724.506087,49.2552399 L744.595381,39.1841438 L748.2373,53.9311059 L760.45535,41.2223419 C762.100096,40.582904 764.253897,40.2631898 766.916819,40.2631898 L766.916819,40.3830838 Z" id="Webrecorder"></path>
        </g>
    </g>
</svg>