<?xml version="1.0" encoding="utf-8"?>
<!-- Generator: Adobe Illustrator 21.1.0, SVG Export Plug-In . SVG Version: 6.00 Build 0)  -->
<svg version="1.1" id="Layer_1" xmlns="http://www.w3.org/2000/svg" xmlns:xlink="http://www.w3.org/1999/xlink" x="0px" y="0px"
	 viewBox="0 0 566.3 160.2" style="enable-background:new 0 0 566.3 160.2;" xml:space="preserve">
<style type="text/css">
	.st0{fill:#010101;}
	.st1{fill:#FFFFFF;}
</style>
<g>
	<rect class="st0" width="160.2" height="160.2"/>
	<path class="st1" d="M89.3,52.6V71l38.9,0l0,18.3H89.3v36.6L59.7,80.1l29.6-45.8l43.5,0v18.3L89.3,52.6z M38.9,90.5v35.4h22.9
		L38.9,90.5z M61.8,34.3H38.9v35.4L61.8,34.3z"/>
	<g>
		<g>
			<path class="st0" d="M211.1,45.5l14-17h10L221,45.2l15.4,24.1h-10.5l-10.9-16.9l-3.8,4.6v12.3h-9V28.5h9V45.5z"/>
			<path class="st0" d="M264.9,69.4L250.7,42v27.3h-8.4V28.5h10.6l13.6,27.7V28.5h8.4v40.9H264.9z"/>
			<path class="st0" d="M296.8,63.6h4.1v5.8h-17.2v-5.8h4.1V34.3h-4.1v-5.8h17.2v5.8h-4.1V63.6z"/>
			<path class="st0" d="M325.3,48.6h14.9V70h-5.7l-0.9-4.8c-2.3,3-6,4.8-10.2,4.8c-10.2,0-16.3-7-16.3-20.2c0-15.6,7.6-22.1,18-22.1
				c9,0,14.1,5.3,14.2,14.9l-8.9,0.7c-0.1-6.7-2.7-8.5-6-8.5c-4.3,0-7.9,3.4-7.9,14.5c0,10,3.3,13.5,8.2,13.5c3.8,0,7.2-2.4,7.5-7.9
				h-7V48.6z"/>
			<path class="st0" d="M381.5,69.4h-9.1V52.8h-13.9v16.6h-9V28.5h9v16.9h13.9V28.5h9.1V69.4z"/>
			<path class="st0" d="M399,35.8h-10.8v-7.3h30.7v7.3h-10.8v33.6H399V35.8z"/>
			<path class="st0" d="M224.2,119.9h-13.1v16.3h-9V95.3h24.1v7.3h-15.1v10.2h13.1V119.9z"/>
			<path class="st0" d="M231.9,115.9c0-13.6,7-21.3,18.1-21.3c11.4,0,16.9,7.6,16.9,20.7c0,13.8-6,21.6-17.7,21.6
				C237.5,136.9,231.9,129.2,231.9,115.9z M257.4,115.4c0-9.5-2.4-13.6-7.7-13.6c-5.1,0-8.4,4.1-8.4,13.8c0,9.7,2.5,14.1,8.1,14.1
				C254.9,129.8,257.4,125.6,257.4,115.4z"/>
			<path class="st0" d="M297.1,95.3h8.9v26.2c0,9.7-5.2,15.3-16.3,15.3c-11.8,0-15.8-5.9-15.8-15.7V95.3h8.9v23.5
				c0,7.1,1.4,10.9,7.2,10.9c5.8,0,7.1-3.5,7.1-10.8V95.3z"/>
			<path class="st0" d="M338.2,136.2L324,108.9v27.3h-8.4V95.3h10.6l13.6,27.7V95.3h8.4v40.9H338.2z"/>
			<path class="st0" d="M358.1,136.2V95.3h10c15.5,0,21.4,6.8,21.4,19.6c0,14.2-6,21.3-21.6,21.3H358.1z M369.3,128.9
				c7.2,0,11-3.3,11-13.4c0-9.6-3.5-12.9-11-12.9h-2.2v26.2H369.3z"/>
			<path class="st0" d="M417,95.3l13.8,40.9h-9.2l-3.1-9.4h-14.1l-3,9.4h-9l13.5-40.9H417z M411.3,103.6h-0.1l-5,16.3h10.3
				L411.3,103.6z"/>
			<path class="st0" d="M441.6,102.6h-10.8v-7.3h30.7v7.3h-10.8v33.6h-9.1V102.6z"/>
			<path class="st0" d="M481.5,130.4h4.1v5.8h-17.2v-5.8h4.1v-29.3h-4.1v-5.8h17.2v5.8h-4.1V130.4z"/>
			<path class="st0" d="M491.9,115.9c0-13.6,7-21.3,18.1-21.3c11.4,0,16.9,7.6,16.9,20.7c0,13.8-6,21.6-17.7,21.6
				C497.5,136.9,491.9,129.2,491.9,115.9z M517.4,115.4c0-9.5-2.4-13.6-7.7-13.6c-5.1,0-8.4,4.1-8.4,13.8c0,9.7,2.5,14.1,8.1,14.1
				C514.9,129.8,517.4,125.6,517.4,115.4z"/>
			<path class="st0" d="M556.3,136.2l-14.1-27.3v27.3h-8.4V95.3h10.6l13.6,27.7V95.3h8.4v40.9H556.3z"/>
		</g>
	</g>
</g>
</svg>
