<?xml version="1.0" standalone="no"?>
<!DOCTYPE svg PUBLIC "-//W3C//DTD SVG 1.1//EN" "http://www.w3.org/Graphics/SVG/1.1/DTD/svg11.dtd" >
<svg xmlns="http://www.w3.org/2000/svg">
<metadata></metadata>
<defs>
<font id="aften_screenregular" horiz-adv-x="1229" >
<font-face units-per-em="2048" ascent="1503" descent="-545" />
<missing-glyph horiz-adv-x="512" />
<glyph unicode=" "  horiz-adv-x="512" />
<glyph unicode="&#x09;" horiz-adv-x="512" />
<glyph unicode="&#xa0;" horiz-adv-x="512" />
<glyph unicode="!" horiz-adv-x="469" d="M348 109q0 -58 -34.5 -90.5t-82.5 -32.5q-43 0 -77.5 32.5t-34.5 90.5q0 53 34.5 84.5t77.5 31.5q48 0 82.5 -31.5t34.5 -84.5zM152 383v950h155v-950h-155z" />
<glyph unicode="&#x22;" horiz-adv-x="676" d="M113 1333h143v-522h-143v522zM420 1333h143v-522h-143v522z" />
<glyph unicode="#" horiz-adv-x="1030" d="M737 358h205l-16 -106h-209l-53 -301h-129l53 301h-205l-53 -301h-129l53 301h-172l16 106h176l50 263h-193l16 108h197l51 297h129l-51 -297h201l55 297h129l-51 -297h182l-12 -108h-191zM657 621h-204l-50 -263h205z" />
<glyph unicode="$" horiz-adv-x="1106" d="M631 1538v-207q67 -4 125.5 -23.5t102.5 -50t73 -69.5t39 -82l-131 -74q-21 60 -71 108t-138 62v-469q76 -22 143.5 -53t118.5 -76t81 -106.5t30 -143.5q0 -71 -27 -132.5t-75 -108.5t-116.5 -77t-154.5 -38v-207h-129v207q-76 2 -141.5 23.5t-116.5 54.5t-86 75t-49 89 l124 75q29 -71 96.5 -125.5t172.5 -64.5v479q-74 23 -137.5 55.5t-110.5 79.5t-74.5 109.5t-27.5 144.5q0 70 25.5 129.5t72.5 104.5t110.5 73.5t141.5 34.5v203h129zM850 340q0 53 -17.5 90t-47 63.5t-69.5 44t-85 33.5v-446q98 10 158.5 66.5t60.5 148.5zM303 997 q0 -51 15.5 -88t43 -63.5t63.5 -45t77 -34.5v440q-107 -16 -153 -74.5t-46 -134.5z" />
<glyph unicode="%" horiz-adv-x="1683" d="M510 0h-131l752 1333h131zM700 975q0 -172 -81.5 -273.5t-225.5 -101.5q-147 0 -231 101.5t-84 273.5q0 170 84 270.5t231 100.5q144 0 225.5 -100.5t81.5 -270.5zM573 973q0 123 -49 197t-135 74t-136 -74t-50 -197t50 -195.5t136 -72.5t135 72.5t49 195.5zM1606 358 q0 -172 -81.5 -273.5t-225.5 -101.5q-147 0 -231 101.5t-84 273.5q0 170 84 270.5t231 100.5q144 0 225.5 -100.5t81.5 -270.5zM1479 356q0 123 -49 197t-135 74t-136 -74t-50 -197t50 -195.5t136 -72.5t135 72.5t49 195.5z" />
<glyph unicode="&#x26;" horiz-adv-x="1325" d="M1147 553q0 -86 -25.5 -170t-72.5 -156q28 -37 54.5 -67.5t45.5 -53.5q22 -26 39 -47l-119 -84q-14 17 -33 39q-16 19 -36.5 44.5t-45.5 56.5q-69 -66 -158 -103t-194 -37q-96 0 -178 27t-142.5 77t-94 125t-33.5 173q0 82 31.5 142.5t78.5 104.5t99.5 72.5t93.5 44.5 q-17 21 -30 36.5t-17 23.5q-41 53 -74 116.5t-33 149.5q0 63 23.5 117.5t65.5 92.5t99.5 59.5t124.5 21.5q78 0 137.5 -21.5t99.5 -59.5t60.5 -88t20.5 -108q0 -77 -30 -139.5t-71.5 -109t-89 -77t-81.5 -48.5l290 -361q43 98 43 207h152zM602 104q86 0 152.5 32t115.5 85 l-342 428q-26 -10 -63 -31.5t-71 -54.5t-57.5 -80t-23.5 -108q0 -51 18.5 -100.5t54.5 -87t90 -60.5t126 -23zM530 872q15 -20 56 -71q24 10 59 29.5t65.5 52t52 80t21.5 112.5q0 25 -10 53.5t-29.5 51t-51 38t-75.5 15.5q-77 0 -117 -49t-40 -123q0 -47 14 -90t55 -99z" />
<glyph unicode="'" horiz-adv-x="410" d="M133 1333h143v-522h-143v522z" />
<glyph unicode="(" horiz-adv-x="512" d="M102 562q0 211 40 375.5t89 281.5q58 135 131 236h127q-69 -119 -122 -262q-48 -123 -85.5 -284t-37.5 -347q0 -187 37.5 -347.5t85.5 -283.5q53 -143 122 -260h-127q-73 100 -131 235q-49 117 -89 281t-40 375z" />
<glyph unicode=")" horiz-adv-x="512" d="M410 564q0 -211 -40 -376t-89 -282q-58 -135 -131 -235h-127q69 119 122 262q48 123 85.5 283.5t37.5 347.5q0 186 -37.5 347t-85.5 284q-53 143 -122 260h127q73 -101 131 -236q49 -117 89 -280.5t40 -374.5z" />
<glyph unicode="*" horiz-adv-x="823" d="M342 1395h137l-10 -297l6 -6l281 102l43 -131l-287 -82l-2 -6l182 -234l-110 -82l-168 248l-6 -2l-166 -246l-113 80l184 238l-4 4l-284 82l41 131l280 -102l6 6z" />
<glyph unicode="+" horiz-adv-x="1044" d="M584 526h368v-127h-368v-368h-144v368h-368v127h368v367h144v-367z" />
<glyph unicode="," horiz-adv-x="410" d="M141 217h156v-219q0 -104 -45 -171t-111 -95l-100 84q41 16 70.5 60t29.5 122v219z" />
<glyph unicode="-" horiz-adv-x="696" d="M61 530h574v-135h-574v135z" />
<glyph unicode="." horiz-adv-x="410" d="M319 109q0 -58 -34.5 -90.5t-81.5 -32.5q-43 0 -78 32.5t-35 90.5q0 53 35 84.5t78 31.5q47 0 81.5 -31.5t34.5 -84.5z" />
<glyph unicode="/" horiz-adv-x="870" d="M168 -329h-139l676 1784h139z" />
<glyph unicode="0" horiz-adv-x="1188" d="M594 1124q104 0 193.5 -36.5t156 -109.5t104 -180.5t37.5 -246.5q0 -135 -37.5 -242.5t-104 -181.5t-156 -113t-193.5 -39q-105 0 -194 39t-155.5 113t-104.5 181.5t-38 242.5q0 143 38 250.5t104.5 179.5t155.5 107.5t194 35.5zM594 104q72 0 132 31t104 89.5t69 141.5 t25 185q0 215 -92.5 329.5t-237.5 114.5q-72 0 -133.5 -29.5t-105.5 -86t-68.5 -139.5t-24.5 -189q0 -102 24.5 -185t68.5 -141.5t105.5 -89.5t133.5 -31z" />
<glyph unicode="1" horiz-adv-x="881" d="M135 127h287v774q-45 -24 -127 -44.5t-166 -20.5l-37 125q43 0 101.5 10t118 28.5t108.5 44t74 56.5h84v-973h253v-127h-696v127z" />
<glyph unicode="2" horiz-adv-x="1044" d="M88 791q0 65 27.5 125.5t79 106.5t124 73.5t162.5 27.5q84 0 157 -23.5t126 -68.5t84 -111.5t31 -154.5q0 -104 -48.5 -198.5t-125 -174.5t-173 -145.5t-192.5 -114.5h592v-133h-830v111q121 63 234 138t199 157.5t137 172t51 181.5q0 110 -65.5 174.5t-188.5 64.5 q-119 0 -179.5 -66.5t-60.5 -174.5q0 -60 21 -119l-133 20q-13 21 -21 58t-8 74z" />
<glyph unicode="3" horiz-adv-x="1044" d="M729 772q0 41 -12 82t-42 72.5t-77 52t-115 20.5q-61 0 -107 -19t-79 -50t-52.5 -69t-25.5 -75l-113 88q7 44 35.5 89t75.5 80.5t115.5 58t154.5 22.5q101 0 177.5 -27.5t128 -75.5t77 -109.5t25.5 -129.5q0 -65 -28.5 -116.5t-71.5 -90t-94.5 -66.5t-98.5 -44 q62 -12 123 -42t109.5 -75t78 -105.5t29.5 -131.5q0 -80 -34 -152t-95 -126t-147 -86t-191 -32q-84 0 -149.5 18.5t-114.5 49.5t-82 68.5t-51 74.5l92 123q35 -92 113.5 -148.5t191.5 -56.5q76 0 133.5 23.5t96 61.5t57 86t18.5 98q0 53 -20.5 103t-60.5 88t-99 60.5 t-137 22.5q-37 0 -89 -2t-100 -12l7 145q6 0 20 -1t32.5 -2t36 -1h29.5q176 0 253 74t77 184z" />
<glyph unicode="4" horiz-adv-x="1126" d="M1067 86h-178v-330h-148v330h-641l-37 102l56 82l559 830h211v-883h178v-131zM741 217v741l-491 -741h491z" />
<glyph unicode="5" horiz-adv-x="1044" d="M551 614q74 0 149.5 -26.5t137 -80.5t100.5 -136t39 -193q0 -98 -34 -183t-95.5 -147.5t-149.5 -97.5t-196 -35q-148 0 -253.5 57.5t-158.5 139.5l98 123q15 -35 42.5 -69t67.5 -61.5t92 -45t116 -17.5q80 0 137 27t96 72t57.5 104t18.5 125q0 74 -23.5 132t-63.5 99 t-96.5 62.5t-119.5 21.5q-70 0 -132.5 -23.5t-96.5 -58.5l-121 62l74 635h704v-135h-584l-47 -408q37 23 100.5 40t141.5 17z" />
<glyph unicode="6" horiz-adv-x="1126" d="M569 -25q-118 2 -204 48.5t-142.5 126t-84 191.5t-27.5 245q0 149 27.5 286.5t89 242t158.5 166.5t235 62q71 0 130.5 -16t105.5 -41.5t77 -59.5t45 -67l-102 -102q-7 26 -27.5 56t-54 52.5t-79.5 38t-104 15.5q-106 0 -171.5 -53.5t-103.5 -134.5t-53.5 -177t-17.5 -184 l6 -2q25 53 72 96q39 35 103.5 65.5t160.5 30.5q113 0 194 -41t131 -103.5t73.5 -139t23.5 -146.5q0 -74 -24.5 -153.5t-80 -146.5t-143.5 -111t-213 -44zM281 434q0 -65 19 -125.5t56 -106.5t90.5 -75t122.5 -29q54 0 107 18.5t95 58.5t68.5 100.5t26.5 144.5 q0 76 -22.5 135t-60.5 99t-90 60.5t-111 20.5q-58 0 -112 -19.5t-95 -57t-66.5 -94t-27.5 -130.5z" />
<glyph unicode="7" horiz-adv-x="1004" d="M918 1100v-107q-97 -125 -172.5 -279.5t-129.5 -328.5q-51 -162 -80.5 -328t-39.5 -317h-156q2 151 35 327.5t92 350.5q51 153 120.5 290.5t147.5 254.5h-684v137h867z" />
<glyph unicode="8" horiz-adv-x="1126" d="M778 709q70 -29 125 -76q47 -41 87 -104.5t40 -155.5q0 -97 -34.5 -170.5t-96 -123.5t-145.5 -77t-183 -27q-102 0 -188 28t-150.5 78t-100.5 122.5t-36 163.5q0 94 38 159.5t85 106.5q53 47 125 76q-53 24 -92 65q-35 35 -62.5 90.5t-27.5 132.5q0 74 30.5 137.5 t84 109.5t128 72.5t160.5 26.5t160 -24.5t129 -69.5t87 -106.5t32 -136.5q0 -86 -31 -141.5t-68 -90.5q-43 -41 -96 -65zM313 991q0 -53 20.5 -95t54.5 -71.5t79 -46t96 -16.5t97.5 16.5t81 46t55 71.5t20.5 95t-20.5 95t-55 72t-81 46.5t-97.5 16.5t-96 -16.5t-79 -46.5 t-54.5 -72t-20.5 -95zM256 369q0 -66 23.5 -115t64.5 -84t96.5 -52.5t120.5 -17.5q64 0 121 17.5t98 52.5t65.5 84t24.5 115q0 63 -24.5 113t-67.5 85t-99 53.5t-118 18.5q-61 0 -117.5 -18.5t-97.5 -53.5t-65.5 -85t-24.5 -113z" />
<glyph unicode="9" horiz-adv-x="1126" d="M535 1124q122 0 210.5 -49t145.5 -135t85 -205t28 -258q0 -176 -26 -317.5t-84 -239.5t-154.5 -151.5t-235.5 -53.5q-72 0 -134.5 16.5t-111.5 43t-83 59.5t-48 66l102 110q13 -28 36.5 -58t58 -54.5t81 -41t101.5 -16.5q96 0 160.5 40t105.5 114t59.5 178t22.5 234l-4 2 q-31 -54 -78 -95q-41 -34 -105.5 -64t-158.5 -30q-115 0 -196 44t-132 109.5t-73.5 144.5t-22.5 149q0 73 23.5 154t77 148.5t139.5 111.5t211 44zM834 655q0 66 -18.5 128.5t-56.5 110.5t-93.5 77.5t-128.5 29.5q-56 0 -107 -19t-92 -58t-65.5 -98.5t-24.5 -141.5 q0 -78 21.5 -140.5t60.5 -106.5t90 -68.5t112 -24.5q60 0 113 21.5t95 61.5t66.5 98.5t27.5 129.5z" />
<glyph unicode=":" horiz-adv-x="410" d="M319 830q0 -58 -34.5 -90.5t-81.5 -32.5q-43 0 -78 32.5t-35 90.5q0 53 35 84.5t78 31.5q47 0 81.5 -31.5t34.5 -84.5zM319 109q0 -58 -34.5 -90.5t-81.5 -32.5q-43 0 -78 32.5t-35 90.5q0 53 35 84.5t78 31.5q47 0 81.5 -31.5t34.5 -84.5z" />
<glyph unicode=";" horiz-adv-x="410" d="M141 217h156v-219q0 -104 -45 -171t-111 -95l-100 84q41 16 70.5 60t29.5 122v219zM331 830q0 -58 -34.5 -90.5t-81.5 -32.5q-43 0 -78 32.5t-35 90.5q0 53 35 84.5t78 31.5q47 0 81.5 -31.5t34.5 -84.5z" />
<glyph unicode="&#x3c;" horiz-adv-x="1044" d="M668 -29l-473 506l473 496l92 -88l-398 -408l394 -422z" />
<glyph unicode="=" horiz-adv-x="1044" d="M952 659v-127h-880v127h880v0zM952 372v-127h-880v127h880v0z" />
<glyph unicode="&#x3e;" horiz-adv-x="1044" d="M248 43l393 422l-397 407l92 89l473 -496l-473 -506z" />
<glyph unicode="?" horiz-adv-x="819" d="M498 109q0 -58 -35 -90.5t-82 -32.5q-43 0 -78 32.5t-35 90.5q0 53 35 84.5t78 31.5q47 0 82 -31.5t35 -84.5zM29 1149q34 86 127.5 145.5t224.5 59.5q82 0 154.5 -21.5t127 -64.5t86 -109.5t31.5 -159.5q0 -71 -25.5 -130.5t-69.5 -105.5t-102.5 -78t-125.5 -46v-254 h-156v344q49 6 105.5 23.5t105.5 49.5t81 79t32 114q0 47 -14.5 89t-44 75t-77 51.5t-110.5 18.5q-84 0 -137.5 -44t-79.5 -106z" />
<glyph unicode="@" horiz-adv-x="1843" d="M1343 -281q-30 -18 -76 -33.5t-101.5 -27.5t-115 -18.5t-118.5 -6.5q-172 0 -320.5 56.5t-257 159t-171 249t-62.5 326.5q0 168 56 318.5t162.5 264t262.5 179t352 65.5q199 0 343.5 -64.5t238.5 -168t139 -231.5t45 -255q0 -102 -26.5 -190t-74.5 -152.5t-114.5 -102.5 t-144.5 -38q-92 0 -151.5 49t-80.5 129h-8q-16 -77 -91 -127.5t-181 -50.5q-78 0 -140.5 28.5t-106.5 81t-67.5 124t-23.5 155.5t23.5 157t66.5 125t104.5 81.5t137.5 29.5q90 0 154.5 -37.5t99.5 -91.5l8 5q0 28 2 59t6 43h141q-4 -41 -6 -88t-2 -76v-317q0 -72 36 -113 t89 -41q43 0 80 25.5t63.5 70.5t42 107.5t15.5 136.5q0 98 -31 205.5t-102.5 199t-189.5 149.5t-292 58q-180 0 -309 -63.5t-211 -164.5t-121 -225t-39 -247q0 -152 53.5 -275.5t145.5 -212t214 -135.5t259 -47q103 0 198 23.5t148 58.5zM887 174q94 0 155.5 67.5 t61.5 198.5t-61.5 199t-155.5 68q-96 0 -158.5 -68t-62.5 -199t62.5 -198.5t158.5 -67.5z" />
<glyph unicode="A" d="M61 0l449 1333h209l448 -1333h-170l-106 326h-557l-107 -326h-166zM381 471h463l-232 733z" />
<glyph unicode="B" horiz-adv-x="1196" d="M829 717q76 -25 138 -70q51 -39 94 -103.5t43 -162.5q0 -191 -118 -286t-347 -95h-455v1333h482q180 0 285.5 -84t105.5 -243q0 -82 -36 -135.5t-77 -86.5q-51 -36 -113 -61zM336 754h319q117 0 176.5 60t59.5 165q0 111 -65.5 170t-200.5 59h-289v-454zM649 125 q142 0 217.5 57.5t75.5 179.5q0 123 -62.5 199t-199.5 76h-344v-512h313z" />
<glyph unicode="C" horiz-adv-x="1266" d="M1034 1020q-12 41 -41.5 78t-72.5 64.5t-95.5 44t-111.5 16.5q-111 0 -191 -43t-131 -119t-75.5 -180.5t-24.5 -225.5q0 -120 25.5 -220.5t77.5 -172.5t129 -111.5t179 -39.5q64 0 120.5 16t100.5 45t73.5 68t43.5 82l136 -82q-23 -56 -65 -104t-103.5 -84t-140.5 -56.5 t-171 -20.5q-121 0 -226 46.5t-182 133.5t-121 214t-44 286q0 162 44 292t123 221.5t187.5 140.5t235.5 49q88 0 162.5 -20.5t133 -55.5t100.5 -82t65 -98z" />
<glyph unicode="D" horiz-adv-x="1348" d="M184 0v1333h445q289 0 447.5 -172t158.5 -495q0 -320 -158.5 -493t-447.5 -173h-445zM631 135q219 0 327.5 136.5t108.5 394.5q0 260 -108.5 396t-327.5 136h-285v-1063h285z" />
<glyph unicode="E" horiz-adv-x="1137" d="M346 1198v-459h582v-135h-582v-469h668v-135h-830v1333h803v-135h-641z" />
<glyph unicode="F" horiz-adv-x="1044" d="M346 1198v-516h520v-135h-520v-547h-162v1333h768v-135h-606z" />
<glyph unicode="G" horiz-adv-x="1382" d="M1219 670v-670h-119l-21 203h-8q-16 -43 -50 -84t-82 -73t-107.5 -51.5t-124.5 -19.5q-129 0 -235.5 46.5t-184.5 133.5t-121 214t-43 286q0 162 43 292t122 221.5t189.5 140.5t243.5 49q92 0 170 -19.5t138.5 -52.5t102.5 -77t62 -93l-139 -82q-21 78 -111 133.5 t-223 55.5q-121 0 -203 -43t-132 -119t-72.5 -180.5t-22.5 -225.5q0 -120 25.5 -220.5t79 -172.5t134 -111.5t191.5 -39.5q82 0 145.5 25.5t107.5 66.5t66.5 93t22.5 107v132h-361v135h517z" />
<glyph unicode="H" horiz-adv-x="1403" d="M1219 1333v-1333h-162v602h-711v-602h-162v1333h162v-596h711v596h162z" />
<glyph unicode="I" horiz-adv-x="530" d="M184 0v1333h162v-1333h-162z" />
<glyph unicode="J" horiz-adv-x="918" d="M743 1333v-911q0 -215 -93 -331t-292 -116q-112 0 -199 41t-128 101l116 96q29 -43 84.5 -72.5t122.5 -29.5q117 0 171.5 72.5t54.5 232.5v917h163z" />
<glyph unicode="K" horiz-adv-x="1192" d="M346 705l561 628h197l-508 -575l545 -758h-209l-449 639l-137 -141v-498h-162v1333h162v-628z" />
<glyph unicode="L" horiz-adv-x="1034" d="M346 1333v-1198h627v-135h-789v1333h162z" />
<glyph unicode="M" horiz-adv-x="1614" d="M721 248l-377 880v-1128h-160v1333h238l389 -932l387 932h232v-1333h-160v1128l-377 -880h-172z" />
<glyph unicode="N" horiz-adv-x="1374" d="M340 0h-156v1333h219l631 -1147v1147h156v-1333h-221l-629 1143v-1143z" />
<glyph unicode="O" horiz-adv-x="1444" d="M1321 668q0 -162 -45 -291t-125 -218t-189.5 -136.5t-238.5 -47.5t-239.5 47.5t-190.5 136.5t-125 218t-45 291q0 163 45 291t125 217.5t190.5 135.5t239.5 46t238.5 -46t189.5 -135.5t125 -217.5t45 -291zM1153 668q0 135 -30.5 239.5t-88 174t-136.5 105.5t-175 36 t-175 -36t-137.5 -105.5t-90 -174t-31.5 -239.5q0 -136 31.5 -240t90 -175t137.5 -106.5t175 -35.5t175 35.5t136.5 106.5t88 175t30.5 240z" />
<glyph unicode="P" horiz-adv-x="1143" d="M1040 907q0 -108 -31.5 -191t-89 -139.5t-134 -85t-164.5 -28.5h-275v-463h-162v1333h389q230 0 348.5 -103.5t118.5 -322.5zM346 598h268q80 0 130.5 21.5t80 61.5t41 96.5t11.5 125.5q0 146 -67 220.5t-216 74.5h-248v-600z" />
<glyph unicode="Q" horiz-adv-x="1444" d="M723 1358q129 0 238.5 -46t189.5 -135.5t125 -218.5t45 -294q0 -99 -22.5 -187t-60.5 -162.5t-91 -135t-115 -103.5q49 -53 104.5 -92t102.5 -66q53 -31 107 -53l-154 -82q-39 18 -77 48t-70.5 63.5t-59.5 65.5t-43 56q-104 -41 -219 -41q-127 0 -236.5 47.5 t-190.5 135.5t-127 216t-46 290q0 163 45 292t125 218.5t190.5 136.5t239.5 47zM723 100q197 0 313.5 142.5t116.5 423.5q0 135 -30.5 239.5t-88 175t-136.5 106.5t-175 36t-175 -37t-137.5 -107.5t-90 -175t-31.5 -239.5q0 -142 33.5 -247.5t92 -176t138.5 -105.5t170 -35z " />
<glyph unicode="R" horiz-adv-x="1198" d="M346 659h250q88 0 146.5 19.5t92 56.5t47 88t13.5 115q0 121 -61.5 190.5t-215.5 69.5h-272v-539zM901 0l-252 532h-303v-532h-162v1333h416q227 0 344 -102.5t117 -290.5q0 -78 -25.5 -141.5t-65.5 -111.5t-86 -77.5t-87 -42.5l288 -567h-184z" />
<glyph unicode="S" horiz-adv-x="1110" d="M836 1051q-25 69 -92.5 122.5t-186.5 53.5q-68 0 -116 -18.5t-76.5 -49.5t-42 -69.5t-13.5 -77.5q0 -56 23.5 -97t63.5 -70.5t94.5 -53t113.5 -46.5q76 -28 147.5 -59t127 -75t89 -103t33.5 -146q0 -83 -31.5 -154t-91 -122t-142.5 -81t-183 -30q-84 0 -157.5 20.5 t-132 55.5t-98.5 81t-54 99l131 82q28 -86 109 -145t208 -59t205 61t78 166q0 55 -24.5 96t-65.5 73t-94.5 55.5t-112.5 45.5q-78 31 -149.5 61.5t-126 73.5t-87 102.5t-32.5 145.5t32.5 154.5t89 116t134 73t167.5 25.5q78 0 145.5 -18.5t119 -50.5t85 -75t44.5 -90z" />
<glyph unicode="T" horiz-adv-x="1120" d="M61 1333h998v-137h-418v-1196h-162v1196h-418v137z" />
<glyph unicode="U" horiz-adv-x="1307" d="M649 -25q-235 0 -355 121t-120 355v882h164v-893q0 -84 24.5 -145.5t67.5 -102t100.5 -61t122.5 -20.5q66 0 123.5 20.5t100.5 61t67.5 102t24.5 145.5v893h164v-882q0 -224 -124 -350t-360 -126z" />
<glyph unicode="V" horiz-adv-x="1167" d="M1116 1333l-428 -1333h-209l-428 1333h178l355 -1198l358 1198h174z" />
<glyph unicode="W" horiz-adv-x="1845" d="M1028 1333l293 -1179l281 1179h167l-337 -1333h-222l-295 1194l-288 -1194h-221l-340 1333h170l280 -1179l293 1179h219z" />
<glyph unicode="X" horiz-adv-x="1196" d="M252 0h-191l431 676l-418 657h182l338 -542l342 542h182l-418 -657l430 -676h-190l-346 557z" />
<glyph unicode="Y" horiz-adv-x="1092" d="M20 1333h175l348 -690l354 690h174l-448 -821v-512h-162v512z" />
<glyph unicode="Z" horiz-adv-x="1098" d="M1008 1229l-50 -70l-708 -1026h776v-133h-973v104l49 68l711 1028h-719v133h914v-104z" />
<glyph unicode="[" horiz-adv-x="614" d="M184 1455h346v-131h-200v-1522h200v-131h-346v1784z" />
<glyph unicode="\" horiz-adv-x="870" d="M22 1455h139l676 -1784h-139z" />
<glyph unicode="]" horiz-adv-x="614" d="M430 -329h-346v131h201v1522h-201v131h346v-1784z" />
<glyph unicode="^" horiz-adv-x="1044" d="M940 821l-422 393l-407 -397l-88 94l495 471l506 -473z" />
<glyph unicode="_" horiz-adv-x="942" d="M0 -143h942v-136h-942v136z" />
<glyph unicode="`" horiz-adv-x="512" d="M451 1243l-84 -84l-297 299l84 84z" />
<glyph unicode="a" horiz-adv-x="1047" d="M434 98q64 0 112 19.5t80.5 52.5t51 74t18.5 84v82q-32 -4 -89.5 -11.5t-110.5 -15.5q-41 -6 -81 -16.5t-69 -26.5q-57 -35 -61 -107q0 -67 38.5 -101t110.5 -34zM135 756q27 59 78 106q43 41 112.5 73t168.5 32q98 0 165.5 -24.5t109.5 -68t60.5 -106.5t18.5 -133v-385 q0 -72 16.5 -94.5t50.5 -22.5q23 0 33 2t21 4l8 -121q-16 -10 -37.5 -16t-65.5 -6q-65 0 -106 44t-49 114q-43 -76 -125 -127.5t-184 -51.5q-134 0 -208.5 68t-74.5 184q2 72 38 118t89 75q53 26 112.5 40.5t139.5 24.5l190 25v113q0 96 -49 155.5t-155 59.5 q-68 0 -111 -22.5t-68 -51.5q-28 -35 -47 -78z" />
<glyph unicode="b" horiz-adv-x="1186" d="M926 471q0 182 -86 275.5t-215 93.5t-213 -93.5t-84 -275.5t84 -274.5t213 -92.5t215 92.5t86 274.5zM340 1456v-538q0 -19 -1 -39.5t-3 -36.5q-2 -21 -2 -41h10q21 26 51.5 56t70.5 54.5t88 41t105 16.5q95 0 173.5 -37t135 -103.5t87 -157.5t30.5 -200t-31.5 -199 t-89 -156.5t-136 -103.5t-173.5 -37q-53 0 -101 15.5t-89 42t-74 58.5t-53 67h-10q0 -19 -2 -41.5t-3 -45t-3.5 -42t-4.5 -29.5h-141q4 45 7 101.5t3 91.5v1263h156z" />
<glyph unicode="c" horiz-adv-x="958" d="M766 707q-21 49 -76 86.5t-151 37.5q-150 0 -215.5 -99t-65.5 -259q0 -164 66.5 -263t214.5 -99q92 0 151.5 35.5t75.5 89.5l125 -72q-29 -80 -122 -134.5t-224 -54.5q-99 0 -180.5 34t-140 98.5t-91.5 155.5t-33 208t33 208t91.5 155.5t140 98.5t178.5 34 q129 0 221 -55.5t127 -133.5z" />
<glyph unicode="d" horiz-adv-x="1186" d="M260 471q0 -182 86 -274.5t215 -92.5t213 92.5t84 274.5t-84 275.5t-213 93.5t-215 -93.5t-86 -275.5zM1001 1456v-1263q0 -35 3.5 -91.5t7.5 -101.5h-142q-2 10 -4 29.5t-3 42t-3 45t-2 41.5h-10q-21 -35 -53.5 -67t-74.5 -58.5t-92 -42t-104 -15.5q-90 0 -167.5 35 t-134 99.5t-89.5 154.5t-33 201q0 110 34 203.5t92.5 160t138 103.5t172.5 37q51 0 98 -14.5t87 -39t70.5 -54.5t49.5 -60h10q-4 28 -5 62t-1 55v538h155z" />
<glyph unicode="e" horiz-adv-x="1040" d="M256 453q4 -181 86 -266t207 -85q65 0 109 19.5t73 44.5q31 27 49 63l140 -71q-29 -54 -80 -92q-43 -35 -114 -63t-175 -28q-117 0 -202 39t-140 106.5t-82 158t-27 190.5q0 117 33 210t92.5 156.5t141.5 97.5t178 34q98 0 172 -34t122 -95.5t72.5 -144.5t24.5 -181 v-29.5t-2 -29.5h-678zM537 840q-117 0 -189 -74t-84 -188h506v16q0 43 -13.5 87t-41 80t-71.5 57.5t-107 21.5z" />
<glyph unicode="f" horiz-adv-x="649" d="M231 0v813h-170v129h170v236q0 143 79 223t208 80q23 0 42.5 -2t35.5 -6q18 -5 33 -7l-21 -125q-10 2 -22 5q-11 2 -24 4t-30 2q-61 0 -103 -40t-42 -153v-217h215v-129h-215v-813h-156z" />
<glyph unicode="g" horiz-adv-x="1100" d="M438 -100q-102 0 -154.5 -38t-52.5 -124q0 -43 15.5 -74t49.5 -49t89 -27.5t137 -9.5q170 0 247 40t77 132q0 78 -54.5 114t-177.5 36h-176zM510 356q108 0 166.5 60.5t58.5 183.5q0 246 -223 246q-111 0 -174.5 -62.5t-63.5 -183.5q0 -123 62.5 -183.5t173.5 -60.5z M1077 821q-10 2 -23.5 3t-29.5 1q-66 0 -110 -22.5t-62 -34.5q22 -41 31.5 -75t9.5 -89q0 -174 -92 -262t-289 -109q-59 -6 -103 -25.5t-44 -78.5q0 -98 112 -98h232q145 0 225 -64.5t80 -175.5q0 -147 -133 -237.5t-377 -90.5q-217 0 -325.5 64.5t-108.5 181.5 q0 53 21.5 95t59 73t89 48.5t112.5 21.5q-53 14 -87 53t-34 90q0 60 41 103t107 59q-49 14 -96 43t-83 71t-58.5 98t-22.5 128q0 86 30.5 154.5t84 117.5t125 76t153.5 27q94 0 172 -40t121 -100q12 23 33.5 49.5t52.5 50t68.5 39t82.5 15.5q15 0 24 -1t21 -3z" />
<glyph unicode="h" horiz-adv-x="1133" d="M330 1456v-700q30 57 78 104q41 41 103 74t151 33q67 0 124.5 -19.5t100.5 -62.5t67.5 -108.5t24.5 -158.5v-618h-156v621q0 43 -13 82.5t-39 69.5t-65.5 48.5t-93.5 18.5q-71 0 -124.5 -32t-88 -82t-52 -110.5t-17.5 -117.5v-498h-156v1456h156z" />
<glyph unicode="i" horiz-adv-x="524" d="M377 1284q0 -55 -35 -90q-39 -33 -82 -33q-41 0 -78 33q-35 33 -35 90t35 86q33 31 78 31t82 -31q35 -31 35 -86zM184 0v942h156v-942h-156z" />
<glyph unicode="j" horiz-adv-x="524" d="M340 942v-1175q0 -144 -79 -224t-204 -80q-28 0 -60 4.5t-54 10.5l20 125q35 -11 72 -11q26 0 53 8.5t48.5 30t34.5 58.5t13 94v1159h156zM379 1284q0 -55 -35 -90q-39 -33 -82 -33q-41 0 -78 33q-35 33 -35 90t35 86q33 31 78 31t82 -31q35 -31 35 -86z" />
<glyph unicode="k" horiz-adv-x="1036" d="M737 942h213l-383 -395l418 -547h-205l-321 440l-129 -131v-309h-156v1456h156v-969z" />
<glyph unicode="l" horiz-adv-x="524" d="M184 1456h156v-1456h-156v1456z" />
<glyph unicode="m" horiz-adv-x="1710" d="M948 0h-155v621q0 43 -11.5 82.5t-36 69.5t-61.5 48.5t-86 18.5q-66 0 -114 -31t-79.5 -79t-48 -107.5t-16.5 -114.5v-508h-156v748q0 30 -3 86.5t-7 107.5h152q2 -12 3 -35.5t2 -49.5t1 -53.5v-47.5h8q18 39 47 76.5t68 67.5t85 48.5t97 18.5q92 0 147.5 -37t87.5 -82 q37 -53 56 -119h8q14 45 44 88t71 76t93 53.5t111 20.5q95 0 153 -35t91 -86t45 -110.5t12 -106.5v-629h-155v621q0 32 -9.5 71t-32 72t-59 54.5t-94.5 21.5q-57 0 -105 -28t-82 -74t-52.5 -105.5t-18.5 -122.5v-510z" />
<glyph unicode="n" horiz-adv-x="1143" d="M834 621q0 43 -13.5 82.5t-39 69.5t-65.5 48.5t-95 18.5q-70 0 -122.5 -31t-88 -80t-53 -110.5t-17.5 -122.5v-496h-156v748q0 30 -3 86.5t-7 107.5h152q2 -12 3 -35.5t2 -49.5t1 -53.5v-47.5h10q16 39 47 76.5t72 67.5t91 48.5t110 18.5q69 0 128.5 -19.5t103.5 -60.5 t69.5 -106.5t25.5 -157.5v-623h-155v621z" />
<glyph unicode="o" horiz-adv-x="1100" d="M999 471q0 -117 -33.5 -209t-93 -155.5t-141.5 -97.5t-180 -34t-180 34t-142.5 97.5t-94.5 155.5t-34 209t34 209t94.5 155.5t142.5 97.5t180 34t180 -34t141.5 -97.5t93 -155.5t33.5 -209zM842 471q0 182 -81 274.5t-210 92.5t-211 -92.5t-82 -274.5t82 -274.5 t211 -92.5t210 92.5t81 274.5z" />
<glyph unicode="p" horiz-adv-x="1186" d="M926 473q0 182 -86 274.5t-215 92.5t-213 -92.5t-84 -274.5t84 -275.5t213 -93.5t215 93.5t86 275.5zM184 -512v1262q0 30 -2 64t-4 63q-2 32 -4 65h141q2 -10 4.5 -29.5t3.5 -41t3 -44t2 -41.5h10q18 33 50 65t75 58.5t94 43t107 16.5q94 0 171.5 -37t133 -103.5 t86 -157.5t30.5 -200t-30.5 -199t-87 -156.5t-136 -103.5t-176.5 -37q-53 0 -101 14.5t-89 38t-72 54.5t-49 61h-10q4 -28 5 -62t1 -54v-539h-156z" />
<glyph unicode="q" horiz-adv-x="1186" d="M260 473q0 -182 86 -275.5t215 -93.5t213 93.5t84 275.5t-84 274.5t-213 92.5t-215 -92.5t-86 -274.5zM846 -512v539v37.5t2 37.5q2 21 4 41h-10q-19 -30 -49.5 -60t-70.5 -54.5t-88 -39t-102 -14.5q-96 0 -174.5 38t-136 103.5t-89.5 157t-32 199.5q0 107 32 198 t89.5 157.5t136 103.5t172.5 37q58 0 109 -17.5t92 -43t70.5 -58.5t46.5 -64h10q0 19 2 41.5t3 44t3 41t4 29.5h142q-4 -45 -7.5 -101.5t-3.5 -90.5v-1262h-155z" />
<glyph unicode="r" horiz-adv-x="700" d="M645 791q-20 4 -49 4q-119 0 -187.5 -87t-68.5 -235v-473h-156v768q0 35 -3 86t-7 88h148q4 -49 7 -105.5t3 -86.5h10q10 41 39 78.5t66.5 67.5t80.5 48.5t84 18.5q11 0 25 -1t18 -4z" />
<glyph unicode="s" horiz-adv-x="936" d="M688 715q-22 53 -79.5 90t-143.5 37t-133 -39t-47 -98q0 -37 16 -62t46 -43t69 -31.5t84 -25.5q61 -17 123.5 -36.5t111.5 -49t80 -74.5t31 -115q0 -61 -24.5 -114.5t-73 -93.5t-116 -62.5t-153.5 -22.5q-110 0 -181 32t-116 71q-53 45 -82 102l125 74q19 -43 56 -78 q28 -29 78.5 -52.5t123.5 -23.5q39 0 77 8.5t66.5 27t46 45t17.5 63.5q0 69 -63.5 102t-169.5 64q-58 16 -116 36.5t-104.5 51t-75 75.5t-28.5 111q0 64 26.5 116t74 89t110 57.5t135.5 20.5q125 0 217 -53.5t121 -127.5z" />
<glyph unicode="t" horiz-adv-x="731" d="M221 942v197l156 20v-217h282v-129h-282v-553q0 -33 5 -60.5t19.5 -49t41 -34t67.5 -12.5q47 0 72.5 8.5t50.5 24.5l26 -123q-30 -16 -71 -28.5t-94 -12.5q-119 0 -196 61.5t-77 203.5v575h-149v129h149z" />
<glyph unicode="u" horiz-adv-x="1124" d="M319 326q0 -45 11.5 -86t36 -72t61.5 -48.5t88 -17.5q64 0 113 27t84 74t53 108.5t18 132.5v498h156v-747q0 -29 3 -86.5t7 -108.5h-151q-2 12 -3 35.5t-2 49.5t-2 52.5t-1 48.5h-9q-18 -41 -47.5 -78.5t-67.5 -67.5t-86.5 -47.5t-105.5 -17.5q-61 0 -117.5 19.5 t-99.5 61.5t-68.5 106.5t-25.5 156.5v623h155v-616z" />
<glyph unicode="v" horiz-adv-x="942" d="M381 0l-330 942h156l274 -811l260 811h150l-316 -942h-194z" />
<glyph unicode="w" horiz-adv-x="1466" d="M840 942l204 -819l187 819h153l-229 -942h-217l-209 819l-201 -819h-215l-231 942h158l182 -819l205 819h213z" />
<glyph unicode="x" horiz-adv-x="956" d="M477 561l234 381h180l-301 -465l311 -477h-188l-236 393l-241 -393h-189l326 477l-316 465h183z" />
<glyph unicode="y" horiz-adv-x="969" d="M489 -369q-30 -90 -97.5 -129t-141.5 -39q-47 0 -83 8.5t-63 20.5l27 125q27 -14 54.5 -19.5t52.5 -5.5q49 0 77.5 27t40.5 72l68 235l-371 1016h178l275 -803l246 803h178l-441 -1311v0z" />
<glyph unicode="z" horiz-adv-x="873" d="M785 834l-66 -86l-461 -619h543v-129h-723v109l51 65l473 639h-514v129h697v-108z" />
<glyph unicode="{" horiz-adv-x="717" d="M633 -329q-98 0 -161.5 21.5t-100.5 59.5t-52.5 90t-15.5 112v382q0 66 -47 108t-113 42v156q66 0 113 41t47 106v383q0 59 15.5 111.5t52.5 90.5t100.5 59.5t161.5 21.5v-111q-49 0 -87 -7t-62.5 -29.5t-38 -63.5t-13.5 -109v-377q0 -34 -12 -66t-33.5 -57.5t-51.5 -43 t-63 -23.5v-8q33 -6 63 -23.5t51.5 -43t33.5 -57.5t12 -67v-377q0 -63 13.5 -104t39 -64.5t62.5 -33t86 -9.5v-110z" />
<glyph unicode="|" horiz-adv-x="512" d="M184 -329v1784h146v-1784h-146z" />
<glyph unicode="}" horiz-adv-x="717" d="M84 1455q98 0 161.5 -21.5t100.5 -59.5t52.5 -90.5t15.5 -111.5v-383q0 -65 47 -107t112 -42v-156q-65 0 -112 -41t-47 -107v-382q0 -60 -15.5 -112t-52.5 -90t-100.5 -59.5t-161.5 -21.5v110q49 0 87 7.5t62.5 30t38 63.5t13.5 108v377q0 35 12 67t33.5 57.5t51.5 43 t62 23.5v8q-32 6 -62 23.5t-51.5 43t-33.5 57.5t-12 66v377q0 64 -13.5 105t-39 64.5t-62.5 32.5t-86 9v111z" />
<glyph unicode="~" horiz-adv-x="1044" d="M815 561h107q10 -29 15 -65.5t5 -61.5q0 -82 -44 -122t-120 -40q-65 0 -131.5 26t-128 55.5t-119 55t-104.5 25.5t-62.5 -23.5t-15.5 -45.5q0 -17 4 -39.5t10 -44.5h-108q-10 26 -15.5 58t-5.5 58q0 80 44 126t126 46q64 0 128.5 -25.5t126 -55t117.5 -55t106 -25.5 q43 0 60 20.5t17 46.5q0 14 -4 39t-8 47z" />
<glyph unicode="&#xa1;" horiz-adv-x="471" d="M350 835.007q0 57.9961 -34.5 90.4941t-82.5 32.498q-43 0 -77.5 -32.498t-34.5 -90.4941q0 -52.9971 34.5 -84.4951t77.5 -31.498q48 0 82.5 31.498t34.5 84.4951zM154 561.023v-949.942h155v949.942h-155z" />
<glyph unicode="&#xa2;" horiz-adv-x="1024" d="M803 692q-21 53 -71 93t-128 44v-716q78 4 129 45t70 92l127 -76q-15 -35 -42.5 -67.5t-69.5 -58t-95 -42t-119 -18.5v-197h-129v201q-80 12 -148.5 49t-118.5 98.5t-79 144.5t-29 187q0 102 28 185t78 142.5t118.5 97.5t150.5 52v203h129v-197q117 -4 204 -59t122 -127z M258 471q0 -141 56.5 -234.5t160.5 -117.5v702q-110 -28 -163.5 -119.5t-53.5 -230.5z" />
<glyph unicode="&#xa3;" horiz-adv-x="1188" d="M815 598h-307q6 -23 12 -43q27 -78 27 -147q4 -66 -24.5 -138.5t-92.5 -128.5v-6h600v-135h-876v131q69 12 116 35.5t75 57.5t40 78t12 97q0 82 -26 156l-17 43h-200v125h149q-27 61 -49 123q-27 72 -27 149q0 72 24.5 137.5t76 115.5t129.5 80t186 30q176 0 274.5 -63.5 t139.5 -151.5l-127 -96q-31 75 -99.5 129.5t-191.5 54.5q-119 0 -184.5 -64.5t-67.5 -175.5q0 -55 25 -127q22 -67 51 -141h352v-125z" />
<glyph unicode="&#xa4;" d="M975 967q45 -60 69.5 -134.5t24.5 -160.5q0 -84 -23.5 -157t-64.5 -132l143 -139l-75 -76l-136 137q-59 -55 -136 -85t-163 -30t-163.5 30t-137.5 85l-133 -137l-76 76l140 139q-41 59 -63.5 132t-22.5 157q0 86 24.5 161.5t69.5 135.5l-148 145l76 76l144 -146 q59 52 132.5 79.5t157.5 27.5t158 -28.5t133 -80.5l144 148l75 -76zM920 672q0 69 -24 129.5t-64.5 105.5t-96 72t-121.5 27q-65 0 -121.5 -27t-97.5 -72t-64.5 -105.5t-23.5 -129.5q0 -70 24.5 -130.5t65.5 -106.5t97.5 -72.5t119.5 -26.5q64 0 119 26.5t97 72.5t66 106.5 t24 130.5z" />
<glyph unicode="&#xa5;" horiz-adv-x="1188" d="M143 819h205l-278 514h168l354 -671l381 671h147l-284 -514h213v-125h-281l-88 -155h369v-125h-377v-414h-162v414h-367v125h357l-82 155h-275v125z" />
<glyph unicode="&#xa6;" horiz-adv-x="512" d="M184 396h146v-725h-146v725zM330 730h-146v725h146v-725z" />
<glyph unicode="&#xa7;" horiz-adv-x="983" d="M254 117q29 -51 84 -89t154 -38q96 0 151 41t55 106q0 58 -41 93.5t-103 61t-134 50.5t-134.5 59.5t-103.5 87t-41 134.5q0 88 43 144t88 95q-43 31 -75.5 84t-32.5 125q0 53 22.5 105.5t66.5 92.5t109.5 64.5t151.5 24.5q127 0 215 -51.5t125 -128.5l-131 -76 q-21 51 -71 89t-140 38t-141.5 -40t-51.5 -106q0 -57 40 -94t100.5 -63.5t130 -50t130 -58.5t100.5 -87t40 -134q0 -84 -40 -138.5t-89 -97.5q55 -36 89 -90.5t34 -122.5q0 -55 -23.5 -106t-70.5 -91t-116 -64.5t-159 -24.5q-133 0 -226 51t-136 129zM702 578 q0 51 -30.5 85.5t-78.5 60.5t-105.5 46.5t-112.5 44.5q-25 -29 -51.5 -75t-26.5 -97t30.5 -86t78 -60.5t106.5 -46t115 -42.5q24 30 49.5 74t25.5 96z" />
<glyph unicode="&#xa8;" horiz-adv-x="512" d="M166 1274q0 -49 -33 -82q-35 -31 -82 -31q-49 0 -82 31q-30 31 -30 82q0 53 30 84q35 28 82 28t82 -28q33 -33 33 -84zM578 1274q0 -49 -33 -82q-35 -31 -80 -31q-51 0 -84 31q-31 31 -31 82q0 53 31 84q35 28 84 28q45 0 80 -28q33 -33 33 -84z" />
<glyph unicode="&#xa9;" horiz-adv-x="1509" d="M985 498l117 -70q-39 -68 -124 -116t-196 -48q-92 0 -167.5 27.5t-130 80t-84 127t-29.5 169.5q0 94 30.5 167.5t85 126t129 80t164.5 27.5q111 0 199 -49t125 -119l-127 -74q-21 50 -74 84.5t-137 34.5q-74 0 -121 -23.5t-74.5 -63.5t-38 -90t-10.5 -101q0 -54 9.5 -104 t37 -89t77.5 -63.5t130 -24.5q74 0 128 32t81 79zM164 668q0 -127 45 -235.5t125 -190.5t187.5 -128t232.5 -46t233.5 46t188 128t125 190.5t45.5 235.5q0 125 -45.5 234.5t-125 190.5t-188 127t-233.5 46t-232.5 -46t-187.5 -127t-125 -190.5t-45 -234.5zM61 668 q0 143 53.5 268t146.5 219t219 148.5t274 54.5q147 0 274 -54.5t220 -148.5t146.5 -219t53.5 -268q0 -144 -53.5 -270t-146.5 -220t-220 -148.5t-274 -54.5q-148 0 -274 54.5t-219 148.5t-146.5 220t-53.5 270z" />
<glyph unicode="&#xaa;" horiz-adv-x="788" d="M92 1191q92 150 281 150q73 0 125.5 -18.5t84 -51.5t46 -77t14.5 -97v-285q0 -53 12.5 -69.5t38.5 -16.5q21 0 37 11l6 -107q-10 -8 -26.5 -13t-46.5 -5q-52 0 -86.5 33.5t-40.5 85.5q-33 -58 -94.5 -96t-135.5 -38q-92 0 -153.5 49.5t-61.5 139.5q0 57 25.5 95t76 63.5 t138.5 35.5l186 27v78q0 69 -36 109t-113 40q-117 0 -166 -96zM334 700q41 0 75.5 13t58.5 35.5t37 50.5t13 59v55q-24 -4 -65 -9.5t-80 -11.5q-33 -4 -61.5 -10t-49.5 -18q-41 -23 -41 -76q0 -47 36 -67.5t77 -20.5z" />
<glyph unicode="&#xab;" horiz-adv-x="932" d="M311 74l-250 368l250 369h144l-226 -369l226 -368h-144zM669 74l-250 368l250 369h144l-226 -369l226 -368h-144z" />
<glyph unicode="&#xac;" horiz-adv-x="1044" d="M82 649h881v-403h-119v276h-762v127z" />
<glyph unicode="&#xad;" horiz-adv-x="696" d="M61 526h574v-127h-574v127z" />
<glyph unicode="&#xae;" horiz-adv-x="1509" d="M901 283l-129 276h-121v-276h-155v774h270q149 0 225 -71t76 -173q0 -49 -12.5 -86t-34 -64.5t-49 -45t-56.5 -25.5l152 -309h-166zM651 682h94q54 0 85.5 11.5t49 27.5t23.5 37.5t6 44.5q0 49 -34.5 87t-126.5 38h-97v-246zM164 668q0 -127 45 -235.5t125 -190.5 t187.5 -128t232.5 -46t233.5 46t188 128t125 190.5t45.5 235.5q0 125 -45.5 234.5t-125 190.5t-188 127t-233.5 46t-232.5 -46t-187.5 -127t-125 -190.5t-45 -234.5zM61 668q0 143 53.5 268t146.5 219t219 148.5t274 54.5q147 0 274 -54.5t220 -148.5t146.5 -219t53.5 -268 q0 -144 -53.5 -270t-146.5 -220t-220 -148.5t-274 -54.5q-148 0 -274 54.5t-219 148.5t-146.5 220t-53.5 270z" />
<glyph unicode="&#xaf;" horiz-adv-x="512" d="M-51 1274h614v-113h-614v113z" />
<glyph unicode="&#xb0;" horiz-adv-x="717" d="M358 1454q58 0 109 -21.5t89 -58.5t59.5 -88t21.5 -108q0 -60 -21.5 -110t-59.5 -87t-89 -58.5t-109 -21.5q-59 0 -109 21.5t-88 58.5t-59.5 87t-21.5 110q0 57 21.5 108t59.5 88t88 58.5t109 21.5zM358 1006q76 0 122 47t46 125q0 75 -46 123.5t-122 48.5 q-75 0 -121.5 -48.5t-46.5 -123.5q0 -78 46.5 -125t121.5 -47z" />
<glyph unicode="&#xb1;" horiz-adv-x="1044" d="M584 725h368v-127h-368v-368h-144v368h-368v127h368v367h144v-367zM952 127v-127h-880v127h880v0z" />
<glyph unicode="&#xb2;" horiz-adv-x="717" d="M109 1444q-11 37 -11 63q0 43 19.5 79t52.5 62.5t78 42t96 15.5t97 -14.5t82 -41t56.5 -67.5t20.5 -92q0 -70 -25.5 -126t-68.5 -105.5t-100.5 -91.5t-120.5 -85h350v-106h-545v78q74 45 143.5 97t124 107.5t88 110.5t33.5 107q0 47 -31.5 88t-107.5 41q-57 0 -94 -34 t-37 -87q0 -31 10 -76z" />
<glyph unicode="&#xb3;" horiz-adv-x="717" d="M82 1589q29 51 95.5 84t162.5 33q121 0 181.5 -53.5t60.5 -120.5q0 -49 -21.5 -80t-46.5 -47q-31 -21 -68 -29q50 -10 89 -33q34 -20 62 -58t28 -103q0 -56 -27 -98t-68 -69.5t-90 -41t-92 -13.5q-43 -2 -94 8.5t-85 27t-64.5 37t-43.5 40.5l82 94q17 -37 67 -74.5 t120 -37.5q32 0 63 7t55.5 21.5t40 38t15.5 58.5q0 59 -36 90.5t-128 31.5q-14 0 -35.5 -2t-42.5 -4q-24 -4 -51 -6l4 111q10 -2 42 -3t42 -1q66 0 114 24.5t48 96.5q0 38 -34 67t-110 29q-73 0 -113 -30t-59 -77z" />
<glyph unicode="&#xb4;" horiz-adv-x="512" d="M367 1542l84 -84l-297 -299l-84 84z" />
<glyph unicode="&#xb5;" horiz-adv-x="1145" d="M961 174q0 -29 3 -80t7 -94h-152q-2 12 -3 34.5t-2 48.5t-2 52.5t-1 48.5l-8 2q-15 -39 -39.5 -76.5t-57 -67.5t-73.5 -48.5t-86 -18.5q-76 0 -134.5 38t-78.5 79l-6 -4q2 -33 6 -68q2 -28 4 -61t2 -61v-412h-156v1456h156v-616q0 -45 11 -86t36 -72t60.5 -48.5 t84.5 -17.5q66 0 116 27t85 74t53.5 108.5t18.5 132.5v498h156v-768z" />
<glyph unicode="&#xb6;" horiz-adv-x="1188" d="M612 1333v-1458h-135v590q-90 0 -165.5 28.5t-131 84t-87.5 136.5t-32 185q0 107 32 187.5t87.5 136t131 83t165.5 27.5h135zM1100 1208h-193v-1333h-135v1458h328v-125z" />
<glyph unicode="&#xb7;" horiz-adv-x="393" d="M311 443q0 -58 -34.5 -90.5t-81.5 -32.5q-43 0 -78 32.5t-35 90.5q0 53 35 84.5t78 31.5q47 0 81.5 -31.5t34.5 -84.5z" />
<glyph unicode="&#xb8;" horiz-adv-x="512" d="M247 35q35 -17 64 -35q145 -90 145 -207q0 -201 -235 -201q-103 0 -172 64l51 76q57 -43 127 -43q102 0 102 114q0 121 -199 215z" />
<glyph unicode="&#xb9;" horiz-adv-x="717" d="M84 1075h221v461q-22 -14 -74.5 -23.5t-117.5 -9.5l-13 98q52 0 86.5 7.5t66.5 19.5t57.5 29.5t37.5 36.5h78v-619h211v-98h-553v98z" />
<glyph unicode="&#xba;" horiz-adv-x="848" d="M766 968q0 -86 -25.5 -155.5t-70.5 -116.5t-107.5 -73t-136.5 -26q-76 0 -138.5 26t-108.5 73t-71.5 116.5t-25.5 155.5q0 88 25.5 157.5t71.5 117t108.5 73t138.5 25.5q74 0 136.5 -25.5t107.5 -73t70.5 -117t25.5 -157.5zM637 968q0 133 -59.5 199.5t-153.5 66.5 q-92 0 -152.5 -66.5t-60.5 -199.5q0 -131 60.5 -197.5t152.5 -66.5q94 0 153.5 66.5t59.5 197.5z" />
<glyph unicode="&#xbb;" horiz-adv-x="932" d="M620 811l250 -369l-250 -368h-143l225 368l-225 369h143zM262 811l250 -369l-250 -368h-143l225 368l-225 369h143z" />
<glyph unicode="&#xbc;" horiz-adv-x="1638" d="M510 0h-131l752 1333h131zM82 715h221v461q-22 -14 -74.5 -23.5t-117.5 -9.5l-13 98q52 0 86.5 7.5t66.5 19.5t57.5 29.5t37.5 36.5h78v-619h211v-98h-553v98zM1214 717h187v-480h135v-98h-135v-139h-113v139h-366l-37 72l35 53zM1288 631l-252 -394h252v394z" />
<glyph unicode="&#xbd;" horiz-adv-x="1638" d="M510 0h-131l752 1333h131zM82 715h221v461q-22 -14 -74.5 -23.5t-117.5 -9.5l-13 98q52 0 86.5 7.5t66.5 19.5t57.5 29.5t37.5 36.5h78v-619h211v-98h-553v98zM1014 467q-11 37 -11 63q0 43 19.5 79t52.5 62.5t78 42t96 15.5t97 -14.5t82 -41t56.5 -67.5t20.5 -92 q0 -70 -25.5 -126t-68.5 -105.5t-100.5 -91.5t-120.5 -85h350v-106h-545v78q74 45 143.5 97t124 107.5t88 110.5t33.5 107q0 47 -31.5 88t-107.5 41q-57 0 -94 -34t-37 -87q0 -31 10 -76z" />
<glyph unicode="&#xbe;" horiz-adv-x="1638" d="M96 1229q29 51 95.5 84t162.5 33q121 0 181.5 -53.5t60.5 -120.5q0 -49 -21.5 -80t-46.5 -47q-31 -21 -68 -29q50 -10 89 -33q34 -20 62 -58t28 -103q0 -56 -27 -98t-68 -69.5t-90 -41t-92 -13.5q-43 -2 -94 8.5t-85 27t-64.5 37t-43.5 40.5l82 94q17 -37 67 -74.5 t120 -37.5q32 0 63 7t55.5 21.5t40 38t15.5 58.5q0 59 -36 90.5t-128 31.5q-14 0 -35.5 -2t-42.5 -4q-24 -4 -51 -6l4 111q10 -2 42 -3t42 -1q66 0 114 24.5t48 96.5q0 38 -34 67t-110 29q-73 0 -113 -30t-59 -77zM510 0h-131l752 1333h131zM1214 717h187v-480h135v-98h-135 v-139h-113v139h-366l-37 72l35 53zM1288 631l-252 -394h252v394z" />
<glyph unicode="&#xbf;" horiz-adv-x="819" d="M311.03 835.007q0 57.9961 34.998 90.4941t81.9951 32.498q42.9971 0 77.9951 -32.498t34.998 -90.4941q0 -52.9971 -34.998 -84.4951t-77.9951 -31.498q-46.9971 0 -81.9951 31.498t-34.998 84.4951zM780.002 -204.93q-33.998 -85.9951 -127.492 -145.491 t-224.486 -59.4961q-81.9951 0 -154.491 21.498q-72.4951 21.499 -126.992 64.4961q-54.4961 42.998 -85.9941 109.493q-31.498 66.4961 -31.498 159.49q0 70.9961 25.498 130.492q25.499 59.4971 69.4961 105.494t102.493 77.9951q58.4971 31.998 125.493 45.9971v253.984 h155.99v-343.979q-48.9971 -6 -105.494 -23.499q-56.4961 -17.499 -105.493 -49.4971t-80.9951 -78.9951t-31.998 -113.993q0 -46.9971 14.499 -88.9941q14.499 -41.998 43.9971 -74.9961q29.499 -32.998 76.9961 -51.4961q47.4971 -18.499 110.493 -18.499 q83.9941 0 137.491 43.9971t79.4951 105.993z" />
<glyph unicode="&#xc0;" d="M61 0l449 1333h209l448 -1333h-170l-106 326h-557l-107 -326h-166zM381 471h463l-232 733zM702 1634l-84 -84l-297 299l84 84z" />
<glyph unicode="&#xc1;" d="M61 0l449 1333h209l448 -1333h-170l-106 326h-557l-107 -326h-166zM381 471h463l-232 733zM832 1933l84 -84l-297 -299l-84 84z" />
<glyph unicode="&#xc2;" d="M61 0l449 1333h209l448 -1333h-170l-106 326h-557l-107 -326h-166zM381 471h463l-232 733zM223 1553l326 328h127l325 -328h-168l-221 238l-221 -238h-168z" />
<glyph unicode="&#xc3;" d="M61 0l449 1333h209l448 -1333h-170l-106 326h-557l-107 -326h-166zM381 471h463l-232 733zM472 1785q40 0 76 -15.5t68.5 -34.5t61 -34.5t54.5 -15.5q17 0 28 9t17.5 23t10.5 32.5t7 37.5l113 -43q4 -30 -4 -63.5t-28.5 -61.5t-52.5 -46.5t-75 -18.5q-41 0 -76.5 15.5 t-67 34.5t-60 34.5t-55.5 15.5q-15 0 -25.5 -8.5t-17.5 -22.5t-12 -32.5t-9 -38.5l-112 43q-2 40 9.5 75t33 60.5t51.5 40t65 14.5z" />
<glyph unicode="&#xc4;" d="M61 0l449 1333h209l448 -1333h-170l-106 326h-557l-107 -326h-166zM381 471h463l-232 733zM520 1665q0 -49 -33 -82q-35 -31 -82 -31q-49 0 -82 31q-30 31 -30 82q0 53 30 84q35 28 82 28t82 -28q33 -33 33 -84zM932 1665q0 -49 -33 -82q-35 -31 -80 -31q-51 0 -84 31 q-31 31 -31 82q0 53 31 84q35 28 84 28q45 0 80 -28q33 -33 33 -84z" />
<glyph unicode="&#xc5;" d="M61 0l449 1333h209l448 -1333h-170l-106 326h-557l-107 -326h-166zM381 471h463l-232 733zM373 1787q0 98 64.5 165.5t175.5 67.5q53 0 97 -18.5t76 -50t49.5 -73.5t17.5 -91t-17.5 -92t-49.5 -74t-76 -49.5t-97 -18.5q-111 0 -175.5 67.5t-64.5 166.5zM476 1787 q0 -60 39 -101t98 -41q57 0 97 41t40 101q0 57 -40 99t-97 42q-59 0 -98 -42t-39 -99z" />
<glyph unicode="&#xc6;" horiz-adv-x="1675" d="M176 0h-168l682 1333h840v-135h-580v-459h541v-135h-541v-469h606v-135h-768v336h-444zM788 1214l-376 -745h376v745z" />
<glyph unicode="&#xc7;" horiz-adv-x="1266" d="M1034 1020q-12 41 -41.5 78t-72.5 64.5t-95.5 44t-111.5 16.5q-111 0 -191 -43t-131 -119t-75.5 -180.5t-24.5 -225.5q0 -120 25.5 -220.5t77.5 -172.5t129 -111.5t179 -39.5q64 0 120.5 16t100.5 45t73.5 68t43.5 82l136 -82q-23 -56 -65 -104t-103.5 -84t-140.5 -56.5 t-171 -20.5q-121 0 -226 46.5t-182 133.5t-121 214t-44 286q0 162 44 292t123 221.5t187.5 140.5t235.5 49q88 0 162.5 -20.5t133 -55.5t100.5 -82t65 -98zM631 35q35 -17 64 -35q145 -90 145 -207q0 -201 -235 -201q-103 0 -172 64l51 76q57 -43 127 -43q102 0 102 114 q0 121 -199 215z" />
<glyph unicode="&#xc8;" horiz-adv-x="1137" d="M346 1198v-459h582v-135h-582v-469h668v-135h-830v1333h803v-135h-641zM697 1634l-84 -84l-297 299l84 84z" />
<glyph unicode="&#xc9;" horiz-adv-x="1137" d="M346 1198v-459h582v-135h-582v-469h668v-135h-830v1333h803v-135h-641zM818 1933l84 -84l-297 -299l-84 84z" />
<glyph unicode="&#xca;" horiz-adv-x="1137" d="M346 1198v-459h582v-135h-582v-469h668v-135h-830v1333h803v-135h-641zM211 1552l326 328h127l325 -328h-168l-221 238l-221 -238h-168z" />
<glyph unicode="&#xcb;" horiz-adv-x="1137" d="M346 1198v-459h582v-135h-582v-469h668v-135h-830v1333h803v-135h-641zM498 1665q0 -49 -33 -82q-35 -31 -82 -31q-49 0 -82 31q-30 31 -30 82q0 53 30 84q35 28 82 28t82 -28q33 -33 33 -84zM910 1665q0 -49 -33 -82q-35 -31 -80 -31q-51 0 -84 31q-31 31 -31 82 q0 53 31 84q35 28 84 28q45 0 80 -28q33 -33 33 -84z" />
<glyph unicode="&#xcc;" horiz-adv-x="530" d="M184 0v1333h162v-1333h-162zM351 1634l-84 -84l-297 299l84 84z" />
<glyph unicode="&#xcd;" horiz-adv-x="530" d="M184 0v1333h162v-1333h-162zM480 1933l84 -84l-297 -299l-84 84z" />
<glyph unicode="&#xce;" horiz-adv-x="530" d="M184 0v1333h162v-1333h-162zM-118 1552l326 328h127l325 -328h-168l-221 238l-221 -238h-168z" />
<glyph unicode="&#xcf;" horiz-adv-x="530" d="M184 0v1333h162v-1333h-162zM172 1665q0 -49 -33 -82q-35 -31 -82 -31q-49 0 -82 31q-30 31 -30 82q0 53 30 84q35 28 82 28t82 -28q33 -33 33 -84zM584 1665q0 -49 -33 -82q-35 -31 -80 -31q-51 0 -84 31q-31 31 -31 82q0 53 31 84q35 28 84 28q45 0 80 -28 q33 -33 33 -84z" />
<glyph unicode="&#xd0;" horiz-adv-x="1368" d="M61 729h185v604h393q289 0 442.5 -172t153.5 -495q0 -320 -153.5 -493t-442.5 -173h-393v602h-185v127zM641 135q219 0 322.5 136.5t103.5 394.5q0 260 -103.5 396t-322.5 136h-233v-469h227v-127h-227v-467h233z" />
<glyph unicode="&#xd1;" horiz-adv-x="1374" d="M340 0h-156v1333h219l631 -1147v1147h156v-1333h-221l-629 1143v-1143zM555 1785q40 0 76 -15.5t68.5 -34.5t61 -34.5t54.5 -15.5q17 0 28 9t17.5 23t10.5 32.5t7 37.5l113 -43q4 -30 -4 -63.5t-28.5 -61.5t-52.5 -46.5t-75 -18.5q-41 0 -76.5 15.5t-67 34.5t-60 34.5 t-55.5 15.5q-15 0 -25.5 -8.5t-17.5 -22.5t-12 -32.5t-9 -38.5l-112 43q-2 40 9.5 75t33 60.5t51.5 40t65 14.5z" />
<glyph unicode="&#xd2;" horiz-adv-x="1444" d="M1321 668q0 -162 -45 -291t-125 -218t-189.5 -136.5t-238.5 -47.5t-239.5 47.5t-190.5 136.5t-125 218t-45 291q0 163 45 291t125 217.5t190.5 135.5t239.5 46t238.5 -46t189.5 -135.5t125 -217.5t45 -291zM1153 668q0 135 -30.5 239.5t-88 174t-136.5 105.5t-175 36 t-175 -36t-137.5 -105.5t-90 -174t-31.5 -239.5q0 -136 31.5 -240t90 -175t137.5 -106.5t175 -35.5t175 35.5t136.5 106.5t88 175t30.5 240zM826 1634l-84 -84l-297 299l84 84z" />
<glyph unicode="&#xd3;" horiz-adv-x="1444" d="M1321 668q0 -162 -45 -291t-125 -218t-189.5 -136.5t-238.5 -47.5t-239.5 47.5t-190.5 136.5t-125 218t-45 291q0 163 45 291t125 217.5t190.5 135.5t239.5 46t238.5 -46t189.5 -135.5t125 -217.5t45 -291zM1153 668q0 135 -30.5 239.5t-88 174t-136.5 105.5t-175 36 t-175 -36t-137.5 -105.5t-90 -174t-31.5 -239.5q0 -136 31.5 -240t90 -175t137.5 -106.5t175 -35.5t175 35.5t136.5 106.5t88 175t30.5 240zM932 1933l84 -84l-297 -299l-84 84z" />
<glyph unicode="&#xd4;" horiz-adv-x="1444" d="M1321 668q0 -162 -45 -291t-125 -218t-189.5 -136.5t-238.5 -47.5t-239.5 47.5t-190.5 136.5t-125 218t-45 291q0 163 45 291t125 217.5t190.5 135.5t239.5 46t238.5 -46t189.5 -135.5t125 -217.5t45 -291zM1153 668q0 135 -30.5 239.5t-88 174t-136.5 105.5t-175 36 t-175 -36t-137.5 -105.5t-90 -174t-31.5 -239.5q0 -136 31.5 -240t90 -175t137.5 -106.5t175 -35.5t175 35.5t136.5 106.5t88 175t30.5 240zM344 1552l326 328h127l325 -328h-168l-221 238l-221 -238h-168z" />
<glyph unicode="&#xd5;" horiz-adv-x="1444" d="M1321 668q0 -162 -45 -291t-125 -218t-189.5 -136.5t-238.5 -47.5t-239.5 47.5t-190.5 136.5t-125 218t-45 291q0 163 45 291t125 217.5t190.5 135.5t239.5 46t238.5 -46t189.5 -135.5t125 -217.5t45 -291zM1153 668q0 135 -30.5 239.5t-88 174t-136.5 105.5t-175 36 t-175 -36t-137.5 -105.5t-90 -174t-31.5 -239.5q0 -136 31.5 -240t90 -175t137.5 -106.5t175 -35.5t175 35.5t136.5 106.5t88 175t30.5 240zM580 1785q40 0 76 -15.5t68.5 -34.5t61 -34.5t54.5 -15.5q17 0 28 9t17.5 23t10.5 32.5t7 37.5l113 -43q4 -30 -4 -63.5 t-28.5 -61.5t-52.5 -46.5t-75 -18.5q-41 0 -76.5 15.5t-67 34.5t-60 34.5t-55.5 15.5q-15 0 -25.5 -8.5t-17.5 -22.5t-12 -32.5t-9 -38.5l-112 43q-2 40 9.5 75t33 60.5t51.5 40t65 14.5z" />
<glyph unicode="&#xd6;" horiz-adv-x="1444" d="M1321 668q0 -162 -45 -291t-125 -218t-189.5 -136.5t-238.5 -47.5t-239.5 47.5t-190.5 136.5t-125 218t-45 291q0 163 45 291t125 217.5t190.5 135.5t239.5 46t238.5 -46t189.5 -135.5t125 -217.5t45 -291zM1153 668q0 135 -30.5 239.5t-88 174t-136.5 105.5t-175 36 t-175 -36t-137.5 -105.5t-90 -174t-31.5 -239.5q0 -136 31.5 -240t90 -175t137.5 -106.5t175 -35.5t175 35.5t136.5 106.5t88 175t30.5 240zM627 1665q0 -49 -33 -82q-35 -31 -82 -31q-49 0 -82 31q-30 31 -30 82q0 53 30 84q35 28 82 28t82 -28q33 -33 33 -84zM1039 1665 q0 -49 -33 -82q-35 -31 -80 -31q-51 0 -84 31q-31 31 -31 82q0 53 31 84q35 28 84 28q45 0 80 -28q33 -33 33 -84z" />
<glyph unicode="&#xd7;" horiz-adv-x="1044" d="M788 834l95 -95l-275 -276l275 -277l-95 -94l-276 275l-276 -275l-95 94l275 277l-275 276l95 95l276 -275l276 275v0z" />
<glyph unicode="&#xd8;" horiz-adv-x="1444" d="M1321 668q0 -162 -45 -291t-125 -218t-189.5 -136.5t-238.5 -47.5q-102 0 -192.5 29t-161.5 86l-93 -123l-102 74l102 137q-71 90 -112 213t-41 277q0 163 45 291t125 217.5t190.5 135.5t239.5 46q203 0 352 -113l92 125l103 -74l-103 -137q72 -90 113 -213t41 -278z M1153 668q0 112 -22.5 204.5t-63.5 159.5l-610 -829q104 -92 266 -92q96 0 175 35.5t136.5 106.5t88 175t30.5 240zM289 668q0 -226 86 -365l610 830q-104 90 -262 90q-96 0 -175 -36t-137.5 -105.5t-90 -174t-31.5 -239.5z" />
<glyph unicode="&#xd9;" horiz-adv-x="1307" d="M725 -25q-235 0 -355 121t-120 355v882h164v-893q0 -84 24.5 -145.5t67.5 -102t100.5 -61t122.5 -20.5q66 0 123.5 20.5t100.5 61t67.5 102t24.5 145.5v893h164v-882q0 -224 -124 -350t-360 -126zM824 1634l-84 -84l-297 299l84 84z" />
<glyph unicode="&#xda;" horiz-adv-x="1307" d="M725 -25q-235 0 -355 121t-120 355v882h164v-893q0 -84 24.5 -145.5t67.5 -102t100.5 -61t122.5 -20.5q66 0 123.5 20.5t100.5 61t67.5 102t24.5 145.5v893h164v-882q0 -224 -124 -350t-360 -126zM928 1933l84 -84l-297 -299l-84 84z" />
<glyph unicode="&#xdb;" horiz-adv-x="1307" d="M725 -25q-235 0 -355 121t-120 355v882h164v-893q0 -84 24.5 -145.5t67.5 -102t100.5 -61t122.5 -20.5q66 0 123.5 20.5t100.5 61t67.5 102t24.5 145.5v893h164v-882q0 -224 -124 -350t-360 -126zM350 1552l326 328h127l325 -328h-168l-221 238l-221 -238h-168z" />
<glyph unicode="&#xdc;" horiz-adv-x="1307" d="M725 -25q-235 0 -355 121t-120 355v882h164v-893q0 -84 24.5 -145.5t67.5 -102t100.5 -61t122.5 -20.5q66 0 123.5 20.5t100.5 61t67.5 102t24.5 145.5v893h164v-882q0 -224 -124 -350t-360 -126zM635 1665q0 -49 -33 -82q-35 -31 -82 -31q-49 0 -82 31q-30 31 -30 82 q0 53 30 84q35 28 82 28t82 -28q33 -33 33 -84zM1047 1665q0 -49 -33 -82q-35 -31 -80 -31q-51 0 -84 31q-31 31 -31 82q0 53 31 84q35 28 84 28q45 0 80 -28q33 -33 33 -84z" />
<glyph unicode="&#xdd;" horiz-adv-x="1092" d="M20 1333h175l348 -690l354 690h174l-448 -821v-512h-162v512zM721 1933l84 -84l-297 -299l-84 84z" />
<glyph unicode="&#xde;" horiz-adv-x="1120" d="M580 1106q217 0 330.5 -104.5t113.5 -303.5q0 -94 -28.5 -171.5t-81 -133t-124 -86.5t-155.5 -31h-289v-276h-162v1333h162v-227h234zM610 412q74 0 122 25.5t77 65.5t40 90t11 101q0 56 -16.5 106t-50 88t-84 60.5t-119.5 22.5h-244v-559h264z" />
<glyph unicode="&#xdf;" horiz-adv-x="1137" d="M319 0h-155v1102q0 76 24.5 143.5t73.5 119.5t122 84t169 32q100 0 173 -31t120 -81t69.5 -114.5t22.5 -136.5q0 -55 -20.5 -105t-53.5 -93t-76 -75t-88 -48v-9q72 -12 137.5 -44.5t114.5 -83t78 -119t29 -152.5t-24.5 -157.5t-75 -130t-127 -91.5t-181.5 -35 q-59 0 -115.5 10.5t-93.5 24.5v146q33 -21 90.5 -37.5t116.5 -16.5q115 0 183.5 74t68.5 207q0 74 -17.5 130t-57.5 96t-106.5 62.5t-162.5 22.5q-12 0 -27.5 -1t-27.5 -1h-31v123q92 0 152.5 28.5t94.5 74t47 98.5t13 106q0 43 -12 84t-39 74t-69 53.5t-103 20.5 q-66 0 -111 -23.5t-72.5 -62.5t-40 -87t-12.5 -98v-1083z" />
<glyph unicode="&#xe0;" horiz-adv-x="1047" d="M434 98q64 0 112 19.5t80.5 52.5t51 74t18.5 84v82q-32 -4 -89.5 -11.5t-110.5 -15.5q-41 -6 -81 -16.5t-69 -26.5q-57 -35 -61 -107q0 -67 38.5 -101t110.5 -34zM135 756q27 59 78 106q43 41 112.5 73t168.5 32q98 0 165.5 -24.5t109.5 -68t60.5 -106.5t18.5 -133v-385 q0 -72 16.5 -94.5t50.5 -22.5q23 0 33 2t21 4l8 -121q-16 -10 -37.5 -16t-65.5 -6q-65 0 -106 44t-49 114q-43 -76 -125 -127.5t-184 -51.5q-134 0 -208.5 68t-74.5 184q2 72 38 118t89 75q53 26 112.5 40.5t139.5 24.5l190 25v113q0 96 -49 155.5t-155 59.5 q-68 0 -111 -22.5t-68 -51.5q-28 -35 -47 -78zM584 1243l-84 -84l-297 299l84 84z" />
<glyph unicode="&#xe1;" horiz-adv-x="1047" d="M434 98q64 0 112 19.5t80.5 52.5t51 74t18.5 84v82q-32 -4 -89.5 -11.5t-110.5 -15.5q-41 -6 -81 -16.5t-69 -26.5q-57 -35 -61 -107q0 -67 38.5 -101t110.5 -34zM135 756q27 59 78 106q43 41 112.5 73t168.5 32q98 0 165.5 -24.5t109.5 -68t60.5 -106.5t18.5 -133v-385 q0 -72 16.5 -94.5t50.5 -22.5q23 0 33 2t21 4l8 -121q-16 -10 -37.5 -16t-65.5 -6q-65 0 -106 44t-49 114q-43 -76 -125 -127.5t-184 -51.5q-134 0 -208.5 68t-74.5 184q2 72 38 118t89 75q53 26 112.5 40.5t139.5 24.5l190 25v113q0 96 -49 155.5t-155 59.5 q-68 0 -111 -22.5t-68 -51.5q-28 -35 -47 -78zM686 1542l84 -84l-297 -299l-84 84z" />
<glyph unicode="&#xe2;" horiz-adv-x="1047" d="M434 98q64 0 112 19.5t80.5 52.5t51 74t18.5 84v82q-32 -4 -89.5 -11.5t-110.5 -15.5q-41 -6 -81 -16.5t-69 -26.5q-57 -35 -61 -107q0 -67 38.5 -101t110.5 -34zM135 756q27 59 78 106q43 41 112.5 73t168.5 32q98 0 165.5 -24.5t109.5 -68t60.5 -106.5t18.5 -133v-385 q0 -72 16.5 -94.5t50.5 -22.5q23 0 33 2t21 4l8 -121q-16 -10 -37.5 -16t-65.5 -6q-65 0 -106 44t-49 114q-43 -76 -125 -127.5t-184 -51.5q-134 0 -208.5 68t-74.5 184q2 72 38 118t89 75q53 26 112.5 40.5t139.5 24.5l190 25v113q0 96 -49 155.5t-155 59.5 q-68 0 -111 -22.5t-68 -51.5q-28 -35 -47 -78zM121 1161l326 328h127l325 -328h-168l-221 238l-221 -238h-168z" />
<glyph unicode="&#xe3;" horiz-adv-x="1047" d="M434 98q64 0 112 19.5t80.5 52.5t51 74t18.5 84v82q-32 -4 -89.5 -11.5t-110.5 -15.5q-41 -6 -81 -16.5t-69 -26.5q-57 -35 -61 -107q0 -67 38.5 -101t110.5 -34zM135 756q27 59 78 106q43 41 112.5 73t168.5 32q98 0 165.5 -24.5t109.5 -68t60.5 -106.5t18.5 -133v-385 q0 -72 16.5 -94.5t50.5 -22.5q23 0 33 2t21 4l8 -121q-16 -10 -37.5 -16t-65.5 -6q-65 0 -106 44t-49 114q-43 -76 -125 -127.5t-184 -51.5q-134 0 -208.5 68t-74.5 184q2 72 38 118t89 75q53 26 112.5 40.5t139.5 24.5l190 25v113q0 96 -49 155.5t-155 59.5 q-68 0 -111 -22.5t-68 -51.5q-28 -35 -47 -78zM351 1394q40 0 76 -15.5t68.5 -34.5t61 -34.5t54.5 -15.5q17 0 28 9t17.5 23t10.5 32.5t7 37.5l113 -43q4 -30 -4 -63.5t-28.5 -61.5t-52.5 -46.5t-75 -18.5q-41 0 -76.5 15.5t-67 34.5t-60 34.5t-55.5 15.5q-15 0 -25.5 -8.5 t-17.5 -22.5t-12 -32.5t-9 -38.5l-112 43q-2 40 9.5 75t33 60.5t51.5 40t65 14.5z" />
<glyph unicode="&#xe4;" horiz-adv-x="1047" d="M434 98q64 0 112 19.5t80.5 52.5t51 74t18.5 84v82q-32 -4 -89.5 -11.5t-110.5 -15.5q-41 -6 -81 -16.5t-69 -26.5q-57 -35 -61 -107q0 -67 38.5 -101t110.5 -34zM135 756q27 59 78 106q43 41 112.5 73t168.5 32q98 0 165.5 -24.5t109.5 -68t60.5 -106.5t18.5 -133v-385 q0 -72 16.5 -94.5t50.5 -22.5q23 0 33 2t21 4l8 -121q-16 -10 -37.5 -16t-65.5 -6q-65 0 -106 44t-49 114q-43 -76 -125 -127.5t-184 -51.5q-134 0 -208.5 68t-74.5 184q2 72 38 118t89 75q53 26 112.5 40.5t139.5 24.5l190 25v113q0 96 -49 155.5t-155 59.5 q-68 0 -111 -22.5t-68 -51.5q-28 -35 -47 -78zM399 1274q0 -49 -33 -82q-35 -31 -82 -31q-49 0 -82 31q-30 31 -30 82q0 53 30 84q35 28 82 28t82 -28q33 -33 33 -84zM811 1274q0 -49 -33 -82q-35 -31 -80 -31q-51 0 -84 31q-31 31 -31 82q0 53 31 84q35 28 84 28 q45 0 80 -28q33 -33 33 -84z" />
<glyph unicode="&#xe5;" horiz-adv-x="1047" d="M434 98q64 0 112 19.5t80.5 52.5t51 74t18.5 84v82q-32 -4 -89.5 -11.5t-110.5 -15.5q-41 -6 -81 -16.5t-69 -26.5q-57 -35 -61 -107q0 -67 38.5 -101t110.5 -34zM135 756q27 59 78 106q43 41 112.5 73t168.5 32q98 0 165.5 -24.5t109.5 -68t60.5 -106.5t18.5 -133v-385 q0 -72 16.5 -94.5t50.5 -22.5q23 0 33 2t21 4l8 -121q-16 -10 -37.5 -16t-65.5 -6q-65 0 -106 44t-49 114q-43 -76 -125 -127.5t-184 -51.5q-134 0 -208.5 68t-74.5 184q2 72 38 118t89 75q53 26 112.5 40.5t139.5 24.5l190 25v113q0 96 -49 155.5t-155 59.5 q-68 0 -111 -22.5t-68 -51.5q-28 -35 -47 -78zM262 1395q0 98 64.5 165.5t175.5 67.5q53 0 97 -18.5t76 -50t49.5 -73.5t17.5 -91t-17.5 -92t-49.5 -74t-76 -49.5t-97 -18.5q-111 0 -175.5 67.5t-64.5 166.5zM365 1395q0 -60 39 -101t98 -41q57 0 97 41t40 101q0 57 -40 99 t-97 42q-59 0 -98 -42t-39 -99z" />
<glyph unicode="&#xe6;" horiz-adv-x="1610" d="M494 967q63 0 113 -17.5t88 -45t65.5 -65.5t46.5 -77q18 37 47 74.5t68 66.5t90 47.5t114 18.5q80 0 150 -25.5t120 -80t79.5 -136.5t29.5 -192q0 -25 -2 -35.5t-2 -26.5l-653 -49q6 -66 25.5 -124t54.5 -101t84 -69t114 -26q88 0 145.5 37t80.5 90l139 -67 q-18 -39 -52 -74t-80 -60.5t-104.5 -40t-124.5 -14.5q-73 0 -131.5 19.5t-101.5 51.5t-72.5 74t-44.5 87q-37 -68 -80 -113t-91 -71.5t-97 -37t-98 -10.5q-123 0 -205 71t-82 187q0 64 24.5 111t70.5 81t101.5 52.5t122.5 24.5l250 20v109q0 96 -49 151.5t-155 55.5 q-68 0 -111 -23.5t-68 -52.5q-28 -35 -43 -76l-135 70q31 57 82 104q43 41 110.5 74t166.5 33zM1118 842q-123 0 -192.5 -82t-77.5 -228l493 35q0 4 1 13.5t1 13.5q0 108 -60 178t-165 70zM434 98q58 0 109 19.5t83.5 52.5t51 74t18.5 84v82q-32 0 -89.5 -3.5t-110.5 -9.5 q-35 -4 -75 -11t-71 -23.5t-48 -46t-17 -74.5q0 -72 46 -108t103 -36z" />
<glyph unicode="&#xe7;" horiz-adv-x="958" d="M766 707q-21 49 -76 86.5t-151 37.5q-150 0 -215.5 -99t-65.5 -259q0 -164 66.5 -263t214.5 -99q92 0 151.5 35.5t75.5 89.5l125 -72q-29 -80 -122 -134.5t-224 -54.5q-99 0 -180.5 34t-140 98.5t-91.5 155.5t-33 208t33 208t91.5 155.5t140 98.5t178.5 34 q129 0 221 -55.5t127 -133.5zM500 35q35 -17 64 -35q145 -90 145 -207q0 -201 -235 -201q-103 0 -172 64l51 76q57 -43 127 -43q102 0 102 114q0 121 -199 215z" />
<glyph unicode="&#xe8;" horiz-adv-x="1040" d="M256 453q4 -181 86 -266t207 -85q65 0 109 19.5t73 44.5q31 27 49 63l140 -71q-29 -54 -80 -92q-43 -35 -114 -63t-175 -28q-117 0 -202 39t-140 106.5t-82 158t-27 190.5q0 117 33 210t92.5 156.5t141.5 97.5t178 34q98 0 172 -34t122 -95.5t72.5 -144.5t24.5 -181 v-29.5t-2 -29.5h-678zM537 840q-117 0 -189 -74t-84 -188h506v16q0 43 -13.5 87t-41 80t-71.5 57.5t-107 21.5zM624 1223l-84 -84l-297 299l84 84z" />
<glyph unicode="&#xe9;" horiz-adv-x="1040" d="M256 453q4 -181 86 -266t207 -85q65 0 109 19.5t73 44.5q31 27 49 63l140 -71q-29 -54 -80 -92q-43 -35 -114 -63t-175 -28q-117 0 -202 39t-140 106.5t-82 158t-27 190.5q0 117 33 210t92.5 156.5t141.5 97.5t178 34q98 0 172 -34t122 -95.5t72.5 -144.5t24.5 -181 v-29.5t-2 -29.5h-678zM537 840q-117 0 -189 -74t-84 -188h506v16q0 43 -13.5 87t-41 80t-71.5 57.5t-107 21.5zM758 1542l84 -84l-297 -299l-84 84z" />
<glyph unicode="&#xea;" horiz-adv-x="1040" d="M256 453q4 -181 86 -266t207 -85q65 0 109 19.5t73 44.5q31 27 49 63l140 -71q-29 -54 -80 -92q-43 -35 -114 -63t-175 -28q-117 0 -202 39t-140 106.5t-82 158t-27 190.5q0 117 33 210t92.5 156.5t141.5 97.5t178 34q98 0 172 -34t122 -95.5t72.5 -144.5t24.5 -181 v-29.5t-2 -29.5h-678zM537 840q-117 0 -189 -74t-84 -188h506v16q0 43 -13.5 87t-41 80t-71.5 57.5t-107 21.5zM156 1161l326 328h127l325 -328h-168l-221 238l-221 -238h-168z" />
<glyph unicode="&#xeb;" horiz-adv-x="1040" d="M256 453q4 -181 86 -266t207 -85q65 0 109 19.5t73 44.5q31 27 49 63l140 -71q-29 -54 -80 -92q-43 -35 -114 -63t-175 -28q-117 0 -202 39t-140 106.5t-82 158t-27 190.5q0 117 33 210t92.5 156.5t141.5 97.5t178 34q98 0 172 -34t122 -95.5t72.5 -144.5t24.5 -181 v-29.5t-2 -29.5h-678zM537 840q-117 0 -189 -74t-84 -188h506v16q0 43 -13.5 87t-41 80t-71.5 57.5t-107 21.5zM422 1274q0 -49 -33 -82q-35 -31 -82 -31q-49 0 -82 31q-30 31 -30 82q0 53 30 84q35 28 82 28t82 -28q33 -33 33 -84zM834 1274q0 -49 -33 -82q-35 -31 -80 -31 q-51 0 -84 31q-31 31 -31 82q0 53 31 84q35 28 84 28q45 0 80 -28q33 -33 33 -84z" />
<glyph unicode="&#xec;" horiz-adv-x="524" d="M407 1228l-97 -69l-240 346l97 69zM184 0v942h156v-942h-156z" />
<glyph unicode="&#xed;" horiz-adv-x="524" d="M408 1574l97 -69l-240 -346l-97 69zM184 0v942h156v-942h-156z" />
<glyph unicode="&#xee;" horiz-adv-x="524" d="M184 0v942h156v-942h-156zM0 1161l203 328h127l202 -328h-126l-140 238l-139 -238h-127z" />
<glyph unicode="&#xef;" horiz-adv-x="524" d="M186 1274q0 -49 -33 -82q-35 -31 -82 -31q-49 0 -82 31q-30 31 -30 82q0 53 30 84q35 28 82 28t82 -28q33 -33 33 -84zM558 1274q0 -49 -33 -82q-35 -31 -80 -31q-51 0 -84 31q-31 31 -31 82q0 53 31 84q35 28 84 28q45 0 80 -28q33 -33 33 -84zM184 0v942h156v-942h-156 z" />
<glyph unicode="&#xf0;" horiz-adv-x="1122" d="M590 1280q-10 8 -25.5 21.5t-34 27.5t-39 27.5t-38.5 21.5l71 103q54 -25 111 -68t88 -72l197 82l45 -106l-152 -64q43 -51 82 -114.5t66.5 -142t44 -176t16.5 -214.5q0 -321 -121 -476t-342 -155q-127 0 -215 45.5t-142.5 117t-78 157.5t-23.5 170q0 86 25 176t78 163 t136 119t200 46q106 0 190 -43t131 -107q-16 107 -63 207t-119 176l-268 -110l-48 102zM557 102q135 0 215 84t80 269q0 82 -17.5 152.5t-53.5 122.5t-92 82t-134 30q-80 0 -136.5 -30t-92 -82t-52 -120.5t-16.5 -146.5t16.5 -144.5t53.5 -114.5t93 -75t136 -27z" />
<glyph unicode="&#xf1;" horiz-adv-x="1143" d="M834 621q0 43 -13.5 82.5t-39 69.5t-65.5 48.5t-95 18.5q-70 0 -122.5 -31t-88 -80t-53 -110.5t-17.5 -122.5v-496h-156v748q0 30 -3 86.5t-7 107.5h152q2 -12 3 -35.5t2 -49.5t1 -53.5v-47.5h10q16 39 47 76.5t72 67.5t91 48.5t110 18.5q69 0 128.5 -19.5t103.5 -60.5 t69.5 -106.5t25.5 -157.5v-623h-155v621zM467 1394q40 0 76 -15.5t68.5 -34.5t61 -34.5t54.5 -15.5q17 0 28 9t17.5 23t10.5 32.5t7 37.5l113 -43q4 -30 -4 -63.5t-28.5 -61.5t-52.5 -46.5t-75 -18.5q-41 0 -76.5 15.5t-67 34.5t-60 34.5t-55.5 15.5q-15 0 -25.5 -8.5 t-17.5 -22.5t-12 -32.5t-9 -38.5l-112 43q-2 40 9.5 75t33 60.5t51.5 40t65 14.5z" />
<glyph unicode="&#xf2;" horiz-adv-x="1100" d="M999 471q0 -117 -33.5 -209t-93 -155.5t-141.5 -97.5t-180 -34t-180 34t-142.5 97.5t-94.5 155.5t-34 209t34 209t94.5 155.5t142.5 97.5t180 34t180 -34t141.5 -97.5t93 -155.5t33.5 -209zM842 471q0 182 -81 274.5t-210 92.5t-211 -92.5t-82 -274.5t82 -274.5 t211 -92.5t210 92.5t81 274.5zM652 1243l-84 -84l-297 299l84 84z" />
<glyph unicode="&#xf3;" horiz-adv-x="1100" d="M999 471q0 -117 -33.5 -209t-93 -155.5t-141.5 -97.5t-180 -34t-180 34t-142.5 97.5t-94.5 155.5t-34 209t34 209t94.5 155.5t142.5 97.5t180 34t180 -34t141.5 -97.5t93 -155.5t33.5 -209zM842 471q0 182 -81 274.5t-210 92.5t-211 -92.5t-82 -274.5t82 -274.5 t211 -92.5t210 92.5t81 274.5zM754 1542l84 -84l-297 -299l-84 84z" />
<glyph unicode="&#xf4;" horiz-adv-x="1100" d="M999 471q0 -117 -33.5 -209t-93 -155.5t-141.5 -97.5t-180 -34t-180 34t-142.5 97.5t-94.5 155.5t-34 209t34 209t94.5 155.5t142.5 97.5t180 34t180 -34t141.5 -97.5t93 -155.5t33.5 -209zM842 471q0 182 -81 274.5t-210 92.5t-211 -92.5t-82 -274.5t82 -274.5 t211 -92.5t210 92.5t81 274.5zM172 1161l326 328h127l325 -328h-168l-221 238l-221 -238h-168z" />
<glyph unicode="&#xf5;" horiz-adv-x="1100" d="M999 471q0 -117 -33.5 -209t-93 -155.5t-141.5 -97.5t-180 -34t-180 34t-142.5 97.5t-94.5 155.5t-34 209t34 209t94.5 155.5t142.5 97.5t180 34t180 -34t141.5 -97.5t93 -155.5t33.5 -209zM842 471q0 182 -81 274.5t-210 92.5t-211 -92.5t-82 -274.5t82 -274.5 t211 -92.5t210 92.5t81 274.5zM406 1394q40 0 76 -15.5t68.5 -34.5t61 -34.5t54.5 -15.5q17 0 28 9t17.5 23t10.5 32.5t7 37.5l113 -43q4 -30 -4 -63.5t-28.5 -61.5t-52.5 -46.5t-75 -18.5q-41 0 -76.5 15.5t-67 34.5t-60 34.5t-55.5 15.5q-15 0 -25.5 -8.5t-17.5 -22.5 t-12 -32.5t-9 -38.5l-112 43q-2 40 9.5 75t33 60.5t51.5 40t65 14.5z" />
<glyph unicode="&#xf6;" horiz-adv-x="1100" d="M999 471q0 -117 -33.5 -209t-93 -155.5t-141.5 -97.5t-180 -34t-180 34t-142.5 97.5t-94.5 155.5t-34 209t34 209t94.5 155.5t142.5 97.5t180 34t180 -34t141.5 -97.5t93 -155.5t33.5 -209zM842 471q0 182 -81 274.5t-210 92.5t-211 -92.5t-82 -274.5t82 -274.5 t211 -92.5t210 92.5t81 274.5zM459 1274q0 -49 -33 -82q-35 -31 -82 -31q-49 0 -82 31q-30 31 -30 82q0 53 30 84q35 28 82 28t82 -28q33 -33 33 -84zM871 1274q0 -49 -33 -82q-35 -31 -80 -31q-51 0 -84 31q-31 31 -31 82q0 53 31 84q35 28 84 28q45 0 80 -28 q33 -33 33 -84z" />
<glyph unicode="&#xf7;" horiz-adv-x="1044" d="M952 526v-127h-880v127h880v0zM637 164q0 -58 -34.5 -90.5t-81.5 -32.5q-43 0 -78 32.5t-35 90.5q0 53 35 84.5t78 31.5q47 0 81.5 -31.5t34.5 -84.5zM637 789q0 -58 -34.5 -90.5t-81.5 -32.5q-43 0 -78 32.5t-35 90.5q0 53 35 84.5t78 31.5q47 0 81.5 -31.5t34.5 -84.5z " />
<glyph unicode="&#xf8;" horiz-adv-x="1100" d="M178 170q-37 59 -57.5 134t-20.5 167q0 117 34 209t94.5 155.5t142.5 97.5t180 34q184 0 307 -117l135 137l80 -84l-143 -145q33 -58 51 -129.5t18 -157.5q0 -117 -33.5 -209t-93 -155.5t-141.5 -97.5t-180 -34q-180 0 -299 107l-125 -129l-78 88zM254 451q0 -54 8 -98 t23 -83l467 484q-37 41 -88.5 64.5t-112.5 23.5q-66 0 -120 -28t-93 -78t-61.5 -122.5t-22.5 -162.5zM846 492q0 51 -9.5 95t-23.5 83l-465 -482q39 -41 90 -64.5t113 -23.5q63 0 117.5 27t94.5 78t61.5 123.5t21.5 163.5z" />
<glyph unicode="&#xf9;" horiz-adv-x="1124" d="M319 326q0 -45 11.5 -86t36 -72t61.5 -48.5t88 -17.5q64 0 113 27t84 74t53 108.5t18 132.5v498h156v-747q0 -29 3 -86.5t7 -108.5h-151q-2 12 -3 35.5t-2 49.5t-2 52.5t-1 48.5h-9q-18 -41 -47.5 -78.5t-67.5 -67.5t-86.5 -47.5t-105.5 -17.5q-61 0 -117.5 19.5 t-99.5 61.5t-68.5 106.5t-25.5 156.5v623h155v-616zM668 1243l-84 -84l-297 299l84 84z" />
<glyph unicode="&#xfa;" horiz-adv-x="1124" d="M319 326q0 -45 11.5 -86t36 -72t61.5 -48.5t88 -17.5q64 0 113 27t84 74t53 108.5t18 132.5v498h156v-747q0 -29 3 -86.5t7 -108.5h-151q-2 12 -3 35.5t-2 49.5t-2 52.5t-1 48.5h-9q-18 -41 -47.5 -78.5t-67.5 -67.5t-86.5 -47.5t-105.5 -17.5q-61 0 -117.5 19.5 t-99.5 61.5t-68.5 106.5t-25.5 156.5v623h155v-616zM750 1542l84 -84l-297 -299l-84 84z" />
<glyph unicode="&#xfb;" horiz-adv-x="1124" d="M319 326q0 -45 11.5 -86t36 -72t61.5 -48.5t88 -17.5q64 0 113 27t84 74t53 108.5t18 132.5v498h156v-747q0 -29 3 -86.5t7 -108.5h-151q-2 12 -3 35.5t-2 49.5t-2 52.5t-1 48.5h-9q-18 -41 -47.5 -78.5t-67.5 -67.5t-86.5 -47.5t-105.5 -17.5q-61 0 -117.5 19.5 t-99.5 61.5t-68.5 106.5t-25.5 156.5v623h155v-616zM178 1161l326 328h127l325 -328h-168l-221 238l-221 -238h-168z" />
<glyph unicode="&#xfc;" horiz-adv-x="1124" d="M319 326q0 -45 11.5 -86t36 -72t61.5 -48.5t88 -17.5q64 0 113 27t84 74t53 108.5t18 132.5v498h156v-747q0 -29 3 -86.5t7 -108.5h-151q-2 12 -3 35.5t-2 49.5t-2 52.5t-1 48.5h-9q-18 -41 -47.5 -78.5t-67.5 -67.5t-86.5 -47.5t-105.5 -17.5q-61 0 -117.5 19.5 t-99.5 61.5t-68.5 106.5t-25.5 156.5v623h155v-616zM477 1274q0 -49 -33 -82q-35 -31 -82 -31q-49 0 -82 31q-30 31 -30 82q0 53 30 84q35 28 82 28t82 -28q33 -33 33 -84zM889 1274q0 -49 -33 -82q-35 -31 -80 -31q-51 0 -84 31q-31 31 -31 82q0 53 31 84q35 28 84 28 q45 0 80 -28q33 -33 33 -84z" />
<glyph unicode="&#xfd;" horiz-adv-x="969" d="M489 -369q-30 -90 -97.5 -129t-141.5 -39q-47 0 -83 8.5t-63 20.5l27 125q27 -14 54.5 -19.5t52.5 -5.5q49 0 77.5 27t40.5 72l68 235l-371 1016h178l275 -803l246 803h178l-441 -1311v0zM709 1542l84 -84l-297 -299l-84 84z" />
<glyph unicode="&#xfe;" horiz-adv-x="1186" d="M664 965q81 0 158 -33t135.5 -96.5t93 -155.5t34.5 -211t-34.5 -211t-93 -155.5t-135.5 -96.5t-158 -33q-117 0 -198 53.5t-122 114.5h-10q0 -16 2 -37q2 -16 3 -36.5t1 -42.5v-537h-156v1968h156v-543q0 -20 -1 -40.5t-3 -36.5q-2 -21 -2 -39h10q41 61 122 114.5 t198 53.5zM621 102q133 0 219 92.5t86 274.5q0 92 -22.5 160.5t-63.5 115t-97.5 69t-121.5 22.5q-129 0 -213 -94.5t-84 -272.5q0 -176 84 -271.5t213 -95.5z" />
<glyph unicode="&#xff;" horiz-adv-x="969" d="M489 -369q-30 -90 -97.5 -129t-141.5 -39q-47 0 -83 8.5t-63 20.5l27 125q27 -14 54.5 -19.5t52.5 -5.5q49 0 77.5 27t40.5 72l68 235l-371 1016h178l275 -803l246 803h178l-441 -1311v0zM385 1274q0 -49 -33 -82q-35 -31 -82 -31q-49 0 -82 31q-30 31 -30 82q0 53 30 84 q35 28 82 28t82 -28q33 -33 33 -84zM797 1274q0 -49 -33 -82q-35 -31 -80 -31q-51 0 -84 31q-31 31 -31 82q0 53 31 84q35 28 84 28q45 0 80 -28q33 -33 33 -84z" />
<glyph unicode="&#x100;" d="M61 0l449 1333h209l448 -1333h-170l-106 326h-557l-107 -326h-166zM381 471h463l-232 733zM305 1673h614v-113h-614v113z" />
<glyph unicode="&#x101;" horiz-adv-x="1047" d="M434 98q64 0 112 19.5t80.5 52.5t51 74t18.5 84v82q-32 -4 -89.5 -11.5t-110.5 -15.5q-41 -6 -81 -16.5t-69 -26.5q-57 -35 -61 -107q0 -67 38.5 -101t110.5 -34zM135 756q27 59 78 106q43 41 112.5 73t168.5 32q98 0 165.5 -24.5t109.5 -68t60.5 -106.5t18.5 -133v-385 q0 -72 16.5 -94.5t50.5 -22.5q23 0 33 2t21 4l8 -121q-16 -10 -37.5 -16t-65.5 -6q-65 0 -106 44t-49 114q-43 -76 -125 -127.5t-184 -51.5q-134 0 -208.5 68t-74.5 184q2 72 38 118t89 75q53 26 112.5 40.5t139.5 24.5l190 25v113q0 96 -49 155.5t-155 59.5 q-68 0 -111 -22.5t-68 -51.5q-28 -35 -47 -78zM209 1274h614v-113h-614v113z" />
<glyph unicode="&#x102;" d="M61 0l449 1333h209l448 -1333h-170l-106 326h-557l-107 -326h-166zM381 471h463l-232 733zM614 1665q94 0 144.5 61.5t50.5 151.5h139q0 -70 -21.5 -129.5t-63.5 -103.5t-104.5 -68.5t-144.5 -24.5q-166 0 -250 91t-84 235h137q0 -90 53.5 -151.5t143.5 -61.5z" />
<glyph unicode="&#x103;" horiz-adv-x="1047" d="M434 98q64 0 112 19.5t80.5 52.5t51 74t18.5 84v82q-32 -4 -89.5 -11.5t-110.5 -15.5q-41 -6 -81 -16.5t-69 -26.5q-57 -35 -61 -107q0 -67 38.5 -101t110.5 -34zM135 756q27 59 78 106q43 41 112.5 73t168.5 32q98 0 165.5 -24.5t109.5 -68t60.5 -106.5t18.5 -133v-385 q0 -72 16.5 -94.5t50.5 -22.5q23 0 33 2t21 4l8 -121q-16 -10 -37.5 -16t-65.5 -6q-65 0 -106 44t-49 114q-43 -76 -125 -127.5t-184 -51.5q-134 0 -208.5 68t-74.5 184q2 72 38 118t89 75q53 26 112.5 40.5t139.5 24.5l190 25v113q0 96 -49 155.5t-155 59.5 q-68 0 -111 -22.5t-68 -51.5q-28 -35 -47 -78zM518 1274q94 0 144.5 61.5t50.5 151.5h139q0 -70 -21.5 -129.5t-63.5 -103.5t-104.5 -68.5t-144.5 -24.5q-166 0 -250 91t-84 235h137q0 -90 53.5 -151.5t143.5 -61.5z" />
<glyph unicode="&#x104;" d="M61 0l449 1333h209l448 -1333h-170l-106 326h-557l-107 -326h-166zM381 471h463l-232 733zM1149 18q-240 -116 -240 -227q0 -102 89 -102q59 0 110 43l51 -76q-78 -64 -166 -64q-211 0 -211 181q0 121 187 227q31 20 63 35z" />
<glyph unicode="&#x105;" horiz-adv-x="1047" d="M434 98q64 0 112 19.5t80.5 52.5t51 74t18.5 84v82q-32 -4 -89.5 -11.5t-110.5 -15.5q-41 -6 -81 -16.5t-69 -26.5q-57 -35 -61 -107q0 -67 38.5 -101t110.5 -34zM135 756q27 59 78 106q43 41 112.5 73t168.5 32q98 0 165.5 -24.5t109.5 -68t60.5 -106.5t18.5 -133v-385 q0 -72 16.5 -94.5t50.5 -22.5q23 0 33 2t21 4l8 -121q-16 -10 -37.5 -16t-65.5 -6q-65 0 -106 44t-49 114q-43 -76 -125 -127.5t-184 -51.5q-134 0 -208.5 68t-74.5 184q2 72 38 118t89 75q53 26 112.5 40.5t139.5 24.5l190 25v113q0 96 -49 155.5t-155 59.5 q-68 0 -111 -22.5t-68 -51.5q-28 -35 -47 -78zM973 18q-240 -116 -240 -227q0 -102 89 -102q59 0 110 43l51 -76q-78 -64 -166 -64q-211 0 -211 181q0 121 187 227q31 20 63 35z" />
<glyph unicode="&#x106;" horiz-adv-x="1266" d="M1034 1020q-12 41 -41.5 78t-72.5 64.5t-95.5 44t-111.5 16.5q-111 0 -191 -43t-131 -119t-75.5 -180.5t-24.5 -225.5q0 -120 25.5 -220.5t77.5 -172.5t129 -111.5t179 -39.5q64 0 120.5 16t100.5 45t73.5 68t43.5 82l136 -82q-23 -56 -65 -104t-103.5 -84t-140.5 -56.5 t-171 -20.5q-121 0 -226 46.5t-182 133.5t-121 214t-44 286q0 162 44 292t123 221.5t187.5 140.5t235.5 49q88 0 162.5 -20.5t133 -55.5t100.5 -82t65 -98zM899 1933l84 -84l-297 -299l-84 84z" />
<glyph unicode="&#x107;" horiz-adv-x="958" d="M766 707q-21 49 -76 86.5t-151 37.5q-150 0 -215.5 -99t-65.5 -259q0 -164 66.5 -263t214.5 -99q92 0 151.5 35.5t75.5 89.5l125 -72q-29 -80 -122 -134.5t-224 -54.5q-99 0 -180.5 34t-140 98.5t-91.5 155.5t-33 208t33 208t91.5 155.5t140 98.5t178.5 34 q129 0 221 -55.5t127 -133.5zM713 1542l84 -84l-297 -299l-84 84z" />
<glyph unicode="&#x108;" horiz-adv-x="1266" d="M1034 1020q-12 41 -41.5 78t-72.5 64.5t-95.5 44t-111.5 16.5q-111 0 -191 -43t-131 -119t-75.5 -180.5t-24.5 -225.5q0 -120 25.5 -220.5t77.5 -172.5t129 -111.5t179 -39.5q64 0 120.5 16t100.5 45t73.5 68t43.5 82l136 -82q-23 -56 -65 -104t-103.5 -84t-140.5 -56.5 t-171 -20.5q-121 0 -226 46.5t-182 133.5t-121 214t-44 286q0 162 44 292t123 221.5t187.5 140.5t235.5 49q88 0 162.5 -20.5t133 -55.5t100.5 -82t65 -98zM328 1552l326 328h127l325 -328h-168l-221 238l-221 -238h-168z" />
<glyph unicode="&#x109;" horiz-adv-x="958" d="M766 707q-21 49 -76 86.5t-151 37.5q-150 0 -215.5 -99t-65.5 -259q0 -164 66.5 -263t214.5 -99q92 0 151.5 35.5t75.5 89.5l125 -72q-29 -80 -122 -134.5t-224 -54.5q-99 0 -180.5 34t-140 98.5t-91.5 155.5t-33 208t33 208t91.5 155.5t140 98.5t178.5 34 q129 0 221 -55.5t127 -133.5zM151 1161l326 328h127l325 -328h-168l-221 238l-221 -238h-168z" />
<glyph unicode="&#x10a;" horiz-adv-x="1266" d="M1034 1020q-12 41 -41.5 78t-72.5 64.5t-95.5 44t-111.5 16.5q-111 0 -191 -43t-131 -119t-75.5 -180.5t-24.5 -225.5q0 -120 25.5 -220.5t77.5 -172.5t129 -111.5t179 -39.5q64 0 120.5 16t100.5 45t73.5 68t43.5 82l136 -82q-23 -56 -65 -104t-103.5 -84t-140.5 -56.5 t-171 -20.5q-121 0 -226 46.5t-182 133.5t-121 214t-44 286q0 162 44 292t123 221.5t187.5 140.5t235.5 49q88 0 162.5 -20.5t133 -55.5t100.5 -82t65 -98zM817 1675q0 -55 -35 -90q-39 -33 -82 -33q-41 0 -78 33q-35 33 -35 90t35 86q33 31 78 31t82 -31q35 -31 35 -86z " />
<glyph unicode="&#x10b;" horiz-adv-x="958" d="M766 707q-21 49 -76 86.5t-151 37.5q-150 0 -215.5 -99t-65.5 -259q0 -164 66.5 -263t214.5 -99q92 0 151.5 35.5t75.5 89.5l125 -72q-29 -80 -122 -134.5t-224 -54.5q-99 0 -180.5 34t-140 98.5t-91.5 155.5t-33 208t33 208t91.5 155.5t140 98.5t178.5 34 q129 0 221 -55.5t127 -133.5zM635 1284q0 -55 -35 -90q-39 -33 -82 -33q-41 0 -78 33q-35 33 -35 90t35 86q33 31 78 31t82 -31q35 -31 35 -86z" />
<glyph unicode="&#x10c;" horiz-adv-x="1266" d="M1034 1020q-12 41 -41.5 78t-72.5 64.5t-95.5 44t-111.5 16.5q-111 0 -191 -43t-131 -119t-75.5 -180.5t-24.5 -225.5q0 -120 25.5 -220.5t77.5 -172.5t129 -111.5t179 -39.5q64 0 120.5 16t100.5 45t73.5 68t43.5 82l136 -82q-23 -56 -65 -104t-103.5 -84t-140.5 -56.5 t-171 -20.5q-121 0 -226 46.5t-182 133.5t-121 214t-44 286q0 162 44 292t123 221.5t187.5 140.5t235.5 49q88 0 162.5 -20.5t133 -55.5t100.5 -82t65 -98zM1104 1880l-325 -328h-129l-324 328h166l223 -238l221 238h168z" />
<glyph unicode="&#x10d;" horiz-adv-x="958" d="M766 707q-21 49 -76 86.5t-151 37.5q-150 0 -215.5 -99t-65.5 -259q0 -164 66.5 -263t214.5 -99q92 0 151.5 35.5t75.5 89.5l125 -72q-29 -80 -122 -134.5t-224 -54.5q-99 0 -180.5 34t-140 98.5t-91.5 155.5t-33 208t33 208t91.5 155.5t140 98.5t178.5 34 q129 0 221 -55.5t127 -133.5zM942 1489l-325 -328h-129l-324 328h166l223 -238l221 238h168z" />
<glyph unicode="&#x10e;" horiz-adv-x="1348" d="M184 0v1333h445q289 0 447.5 -172t158.5 -495q0 -320 -158.5 -493t-447.5 -173h-445zM631 135q219 0 327.5 136.5t108.5 394.5q0 260 -108.5 396t-327.5 136h-285v-1063h285zM1003 1880l-325 -328h-129l-324 328h166l223 -238l221 238h168z" />
<glyph unicode="&#x10f;" horiz-adv-x="1227" d="M260 471q0 -182 86 -274.5t215 -92.5t213 92.5t84 274.5t-84 275.5t-213 93.5t-215 -93.5t-86 -275.5zM1001 1456v-1263q0 -35 3.5 -91.5t7.5 -101.5h-142q-2 10 -4 29.5t-3 42t-3 45t-2 41.5h-10q-21 -35 -53.5 -67t-74.5 -58.5t-92 -42t-104 -15.5q-90 0 -167.5 35 t-134 99.5t-89.5 154.5t-33 201q0 110 34 203.5t92.5 160t138 103.5t172.5 37q51 0 98 -14.5t87 -39t70.5 -54.5t49.5 -60h10q-4 28 -5 62t-1 55v538h155zM1174 1128l45 351l150 -23l-84 -340z" />
<glyph unicode="&#x110;" horiz-adv-x="1368" d="M61 729h185v604h393q289 0 442.5 -172t153.5 -495q0 -320 -153.5 -493t-442.5 -173h-393v602h-185v127zM641 135q219 0 322.5 136.5t103.5 394.5q0 260 -103.5 396t-322.5 136h-233v-469h227v-127h-227v-467h233z" />
<glyph unicode="&#x111;" horiz-adv-x="1186" d="M567 1243h279v213h155v-213h140v-117h-140v-933q0 -35 3.5 -91.5t7.5 -101.5h-142q-2 10 -4 29.5t-3 42t-3 45t-2 41.5h-10q-21 -35 -53.5 -67t-74.5 -58.5t-92 -42t-104 -15.5q-90 0 -167.5 35t-134 99.5t-89.5 154.5t-33 201q0 110 34 203.5t92.5 160t138 103.5 t172.5 37q51 0 98 -14.5t87 -39t70.5 -54.5t49.5 -60h10q-4 28 -5 62t-1 55v208h-279v117zM260 471q0 -182 86 -274.5t215 -92.5t213 92.5t84 274.5t-84 275.5t-213 93.5t-215 -93.5t-86 -275.5z" />
<glyph unicode="&#x112;" horiz-adv-x="1137" d="M346 1198v-459h582v-135h-582v-469h668v-135h-830v1333h803v-135h-641zM279 1665h614v-113h-614v113z" />
<glyph unicode="&#x113;" horiz-adv-x="1040" d="M256 453q4 -181 86 -266t207 -85q65 0 109 19.5t73 44.5q31 27 49 63l140 -71q-29 -54 -80 -92q-43 -35 -114 -63t-175 -28q-117 0 -202 39t-140 106.5t-82 158t-27 190.5q0 117 33 210t92.5 156.5t141.5 97.5t178 34q98 0 172 -34t122 -95.5t72.5 -144.5t24.5 -181 v-29.5t-2 -29.5h-678zM537 840q-117 0 -189 -74t-84 -188h506v16q0 43 -13.5 87t-41 80t-71.5 57.5t-107 21.5zM213 1274h614v-113h-614v113z" />
<glyph unicode="&#x114;" horiz-adv-x="1137" d="M346 1198v-459h582v-135h-582v-469h668v-135h-830v1333h803v-135h-641zM584 1665q94 0 144.5 61.5t50.5 151.5h139q0 -70 -21.5 -129.5t-63.5 -103.5t-104.5 -68.5t-144.5 -24.5q-166 0 -250 91t-84 235h137q0 -90 53.5 -151.5t143.5 -61.5z" />
<glyph unicode="&#x115;" horiz-adv-x="1040" d="M256 453q4 -181 86 -266t207 -85q65 0 109 19.5t73 44.5q31 27 49 63l140 -71q-29 -54 -80 -92q-43 -35 -114 -63t-175 -28q-117 0 -202 39t-140 106.5t-82 158t-27 190.5q0 117 33 210t92.5 156.5t141.5 97.5t178 34q98 0 172 -34t122 -95.5t72.5 -144.5t24.5 -181 v-29.5t-2 -29.5h-678zM537 840q-117 0 -189 -74t-84 -188h506v16q0 43 -13.5 87t-41 80t-71.5 57.5t-107 21.5zM520 1274q94 0 144.5 61.5t50.5 151.5h139q0 -70 -21.5 -129.5t-63.5 -103.5t-104.5 -68.5t-144.5 -24.5q-166 0 -250 91t-84 235h137q0 -90 53.5 -151.5 t143.5 -61.5z" />
<glyph unicode="&#x116;" horiz-adv-x="1137" d="M346 1198v-459h582v-135h-582v-469h668v-135h-830v1333h803v-135h-641zM705 1675q0 -55 -35 -90q-39 -33 -82 -33q-41 0 -78 33q-35 33 -35 90t35 86q33 31 78 31t82 -31q35 -31 35 -86z" />
<glyph unicode="&#x117;" horiz-adv-x="1040" d="M256 453q4 -181 86 -266t207 -85q65 0 109 19.5t73 44.5q31 27 49 63l140 -71q-29 -54 -80 -92q-43 -35 -114 -63t-175 -28q-117 0 -202 39t-140 106.5t-82 158t-27 190.5q0 117 33 210t92.5 156.5t141.5 97.5t178 34q98 0 172 -34t122 -95.5t72.5 -144.5t24.5 -181 v-29.5t-2 -29.5h-678zM537 840q-117 0 -189 -74t-84 -188h506v16q0 43 -13.5 87t-41 80t-71.5 57.5t-107 21.5zM654 1284q0 -55 -35 -90q-39 -33 -82 -33q-41 0 -78 33q-35 33 -35 90t35 86q33 31 78 31t82 -31q35 -31 35 -86z" />
<glyph unicode="&#x118;" horiz-adv-x="1137" d="M346 1198v-459h582v-135h-582v-469h668v-135h-830v1333h803v-135h-641zM956 18q-240 -116 -240 -227q0 -102 89 -102q59 0 110 43l51 -76q-78 -64 -166 -64q-211 0 -211 181q0 121 187 227q31 20 63 35z" />
<glyph unicode="&#x119;" horiz-adv-x="1040" d="M256 453q4 -181 86 -266t207 -85q65 0 109 19.5t73 44.5q31 27 49 63l140 -71q-29 -54 -80 -92q-43 -35 -114 -63t-175 -28q-117 0 -202 39t-140 106.5t-82 158t-27 190.5q0 117 33 210t92.5 156.5t141.5 97.5t178 34q98 0 172 -34t122 -95.5t72.5 -144.5t24.5 -181 v-29.5t-2 -29.5h-678zM537 840q-117 0 -189 -74t-84 -188h506v16q0 43 -13.5 87t-41 80t-71.5 57.5t-107 21.5zM758 18q-240 -116 -240 -227q0 -102 89 -102q59 0 110 43l51 -76q-78 -64 -166 -64q-211 0 -211 181q0 121 187 227q31 20 63 35z" />
<glyph unicode="&#x11a;" horiz-adv-x="1137" d="M346 1198v-459h582v-135h-582v-469h668v-135h-830v1333h803v-135h-641zM971 1880l-325 -328h-129l-324 328h166l223 -238l221 238h168z" />
<glyph unicode="&#x11b;" horiz-adv-x="1040" d="M256 453q4 -181 86 -266t207 -85q65 0 109 19.5t73 44.5q31 27 49 63l140 -71q-29 -54 -80 -92q-43 -35 -114 -63t-175 -28q-117 0 -202 39t-140 106.5t-82 158t-27 190.5q0 117 33 210t92.5 156.5t141.5 97.5t178 34q98 0 172 -34t122 -95.5t72.5 -144.5t24.5 -181 v-29.5t-2 -29.5h-678zM537 840q-117 0 -189 -74t-84 -188h506v16q0 43 -13.5 87t-41 80t-71.5 57.5t-107 21.5zM942 1489l-325 -328h-129l-324 328h166l223 -238l221 238h168z" />
<glyph unicode="&#x11c;" horiz-adv-x="1382" d="M1219 670v-670h-119l-21 203h-8q-16 -43 -50 -84t-82 -73t-107.5 -51.5t-124.5 -19.5q-129 0 -235.5 46.5t-184.5 133.5t-121 214t-43 286q0 162 43 292t122 221.5t189.5 140.5t243.5 49q92 0 170 -19.5t138.5 -52.5t102.5 -77t62 -93l-139 -82q-21 78 -111 133.5 t-223 55.5q-121 0 -203 -43t-132 -119t-72.5 -180.5t-22.5 -225.5q0 -120 25.5 -220.5t79 -172.5t134 -111.5t191.5 -39.5q82 0 145.5 25.5t107.5 66.5t66.5 93t22.5 107v132h-361v135h517zM326 1552l326 328h127l325 -328h-168l-221 238l-221 -238h-168z" />
<glyph unicode="&#x11d;" horiz-adv-x="1100" d="M438 -100q-102 0 -154.5 -38t-52.5 -124q0 -43 15.5 -74t49.5 -49t89 -27.5t137 -9.5q170 0 247 40t77 132q0 78 -54.5 114t-177.5 36h-176zM510 356q108 0 166.5 60.5t58.5 183.5q0 246 -223 246q-111 0 -174.5 -62.5t-63.5 -183.5q0 -123 62.5 -183.5t173.5 -60.5z M1077 821q-10 2 -23.5 3t-29.5 1q-66 0 -110 -22.5t-62 -34.5q22 -41 31.5 -75t9.5 -89q0 -174 -92 -262t-289 -109q-59 -6 -103 -25.5t-44 -78.5q0 -98 112 -98h232q145 0 225 -64.5t80 -175.5q0 -147 -133 -237.5t-377 -90.5q-217 0 -325.5 64.5t-108.5 181.5 q0 53 21.5 95t59 73t89 48.5t112.5 21.5q-53 14 -87 53t-34 90q0 60 41 103t107 59q-49 14 -96 43t-83 71t-58.5 98t-22.5 128q0 86 30.5 154.5t84 117.5t125 76t153.5 27q94 0 172 -40t121 -100q12 23 33.5 49.5t52.5 50t68.5 39t82.5 15.5q15 0 24 -1t21 -3zM283 1161 l203 328h127l202 -328h-126l-140 238l-139 -238h-127z" />
<glyph unicode="&#x11e;" horiz-adv-x="1382" d="M1219 670v-670h-119l-21 203h-8q-16 -43 -50 -84t-82 -73t-107.5 -51.5t-124.5 -19.5q-129 0 -235.5 46.5t-184.5 133.5t-121 214t-43 286q0 162 43 292t122 221.5t189.5 140.5t243.5 49q92 0 170 -19.5t138.5 -52.5t102.5 -77t62 -93l-139 -82q-21 78 -111 133.5 t-223 55.5q-121 0 -203 -43t-132 -119t-72.5 -180.5t-22.5 -225.5q0 -120 25.5 -220.5t79 -172.5t134 -111.5t191.5 -39.5q82 0 145.5 25.5t107.5 66.5t66.5 93t22.5 107v132h-361v135h517zM705 1665q94 0 144.5 61.5t50.5 151.5h139q0 -70 -21.5 -129.5t-63.5 -103.5 t-104.5 -68.5t-144.5 -24.5q-166 0 -250 91t-84 235h137q0 -90 53.5 -151.5t143.5 -61.5z" />
<glyph unicode="&#x11f;" horiz-adv-x="1100" d="M438 -100q-102 0 -154.5 -38t-52.5 -124q0 -43 15.5 -74t49.5 -49t89 -27.5t137 -9.5q170 0 247 40t77 132q0 78 -54.5 114t-177.5 36h-176zM510 356q108 0 166.5 60.5t58.5 183.5q0 246 -223 246q-111 0 -174.5 -62.5t-63.5 -183.5q0 -123 62.5 -183.5t173.5 -60.5z M1077 821q-10 2 -23.5 3t-29.5 1q-66 0 -110 -22.5t-62 -34.5q22 -41 31.5 -75t9.5 -89q0 -174 -92 -262t-289 -109q-59 -6 -103 -25.5t-44 -78.5q0 -98 112 -98h232q145 0 225 -64.5t80 -175.5q0 -147 -133 -237.5t-377 -90.5q-217 0 -325.5 64.5t-108.5 181.5 q0 53 21.5 95t59 73t89 48.5t112.5 21.5q-53 14 -87 53t-34 90q0 60 41 103t107 59q-49 14 -96 43t-83 71t-58.5 98t-22.5 128q0 86 30.5 154.5t84 117.5t125 76t153.5 27q94 0 172 -40t121 -100q12 23 33.5 49.5t52.5 50t68.5 39t82.5 15.5q15 0 24 -1t21 -3zM537 1274 q94 0 144.5 61.5t50.5 151.5h139q0 -70 -21.5 -129.5t-63.5 -103.5t-104.5 -68.5t-144.5 -24.5q-166 0 -250 91t-84 235h137q0 -90 53.5 -151.5t143.5 -61.5z" />
<glyph unicode="&#x120;" horiz-adv-x="1382" d="M1219 670v-670h-119l-21 203h-8q-16 -43 -50 -84t-82 -73t-107.5 -51.5t-124.5 -19.5q-129 0 -235.5 46.5t-184.5 133.5t-121 214t-43 286q0 162 43 292t122 221.5t189.5 140.5t243.5 49q92 0 170 -19.5t138.5 -52.5t102.5 -77t62 -93l-139 -82q-21 78 -111 133.5 t-223 55.5q-121 0 -203 -43t-132 -119t-72.5 -180.5t-22.5 -225.5q0 -120 25.5 -220.5t79 -172.5t134 -111.5t191.5 -39.5q82 0 145.5 25.5t107.5 66.5t66.5 93t22.5 107v132h-361v135h517zM842 1675q0 -55 -35 -90q-39 -33 -82 -33q-41 0 -78 33q-35 33 -35 90t35 86 q33 31 78 31t82 -31q35 -31 35 -86z" />
<glyph unicode="&#x121;" horiz-adv-x="1100" d="M438 -100q-102 0 -154.5 -38t-52.5 -124q0 -43 15.5 -74t49.5 -49t89 -27.5t137 -9.5q170 0 247 40t77 132q0 78 -54.5 114t-177.5 36h-176zM510 356q108 0 166.5 60.5t58.5 183.5q0 246 -223 246q-111 0 -174.5 -62.5t-63.5 -183.5q0 -123 62.5 -183.5t173.5 -60.5z M1077 821q-10 2 -23.5 3t-29.5 1q-66 0 -110 -22.5t-62 -34.5q22 -41 31.5 -75t9.5 -89q0 -174 -92 -262t-289 -109q-59 -6 -103 -25.5t-44 -78.5q0 -98 112 -98h232q145 0 225 -64.5t80 -175.5q0 -147 -133 -237.5t-377 -90.5q-217 0 -325.5 64.5t-108.5 181.5 q0 53 21.5 95t59 73t89 48.5t112.5 21.5q-53 14 -87 53t-34 90q0 60 41 103t107 59q-49 14 -96 43t-83 71t-58.5 98t-22.5 128q0 86 30.5 154.5t84 117.5t125 76t153.5 27q94 0 172 -40t121 -100q12 23 33.5 49.5t52.5 50t68.5 39t82.5 15.5q15 0 24 -1t21 -3zM664 1284 q0 -55 -35 -90q-39 -33 -82 -33q-41 0 -78 33q-35 33 -35 90t35 86q33 31 78 31t82 -31q35 -31 35 -86z" />
<glyph unicode="&#x122;" horiz-adv-x="1382" d="M1219 670v-670h-119l-21 203h-8q-16 -43 -50 -84t-82 -73t-107.5 -51.5t-124.5 -19.5q-129 0 -235.5 46.5t-184.5 133.5t-121 214t-43 286q0 162 43 292t122 221.5t189.5 140.5t243.5 49q92 0 170 -19.5t138.5 -52.5t102.5 -77t62 -93l-139 -82q-21 78 -111 133.5 t-223 55.5q-121 0 -203 -43t-132 -119t-72.5 -180.5t-22.5 -225.5q0 -120 25.5 -220.5t79 -172.5t134 -111.5t191.5 -39.5q82 0 145.5 25.5t107.5 66.5t66.5 93t22.5 107v132h-361v135h517zM600 -510l37 309l149 -22l-75 -299z" />
<glyph unicode="&#x123;" horiz-adv-x="1100" d="M438 -100q-102 0 -154.5 -38t-52.5 -124q0 -43 15.5 -74t49.5 -49t89 -27.5t137 -9.5q170 0 247 40t77 132q0 78 -54.5 114t-177.5 36h-176zM510 356q108 0 166.5 60.5t58.5 183.5q0 246 -223 246q-111 0 -174.5 -62.5t-63.5 -183.5q0 -123 62.5 -183.5t173.5 -60.5z M1077 821q-10 2 -23.5 3t-29.5 1q-66 0 -110 -22.5t-62 -34.5q22 -41 31.5 -75t9.5 -89q0 -174 -92 -262t-289 -109q-59 -6 -103 -25.5t-44 -78.5q0 -98 112 -98h232q145 0 225 -64.5t80 -175.5q0 -147 -133 -237.5t-377 -90.5q-217 0 -325.5 64.5t-108.5 181.5 q0 53 21.5 95t59 73t89 48.5t112.5 21.5q-53 14 -87 53t-34 90q0 60 41 103t107 59q-49 14 -96 43t-83 71t-58.5 98t-22.5 128q0 86 30.5 154.5t84 117.5t125 76t153.5 27q94 0 172 -40t121 -100q12 23 33.5 49.5t52.5 50t68.5 39t82.5 15.5q15 0 24 -1t21 -3zM666 1487 l-37 -309l-149 22l75 299z" />
<glyph unicode="&#x124;" horiz-adv-x="1403" d="M1219 1333v-1333h-162v602h-711v-602h-162v1333h162v-596h711v596h162zM321 1552l326 328h127l325 -328h-168l-221 238l-221 -238h-168z" />
<glyph unicode="&#x125;" horiz-adv-x="1133" d="M330 1333v-577q30 57 78 104q41 41 103 74t151 33q67 0 124.5 -19.5t100.5 -62.5t67.5 -108.5t24.5 -158.5v-618h-156v621q0 43 -13 82.5t-39 69.5t-65.5 48.5t-93.5 18.5q-71 0 -124.5 -32t-88 -82t-52 -110.5t-17.5 -117.5v-498h-156v1333h156zM156 1560l326 328h127 l325 -328h-168l-221 238l-221 -238h-168z" />
<glyph unicode="&#x126;" horiz-adv-x="1444" d="M1239 1333v-286h164v-127h-164v-920h-162v520h-710v-520h-162v920h-164v127h164v286h162v-286h710v286h162zM1077 655v265h-710v-265h710z" />
<glyph unicode="&#x127;" horiz-adv-x="1133" d="M330 1456v-213h278v-117h-278v-370q30 57 78 104q41 41 103 74t151 33q67 0 124.5 -19.5t100.5 -62.5t67.5 -108.5t24.5 -158.5v-618h-156v621q0 43 -13 82.5t-39 69.5t-65.5 48.5t-93.5 18.5q-71 0 -124.5 -32t-88 -82t-52 -110.5t-17.5 -117.5v-498h-156v1126h-139v117 h139v213h156z" />
<glyph unicode="&#x128;" horiz-adv-x="530" d="M184 0v1333h162v-1333h-162zM119 1785q40 0 76 -15.5t68.5 -34.5t61 -34.5t54.5 -15.5q17 0 28 9t17.5 23t10.5 32.5t7 37.5l113 -43q4 -30 -4 -63.5t-28.5 -61.5t-52.5 -46.5t-75 -18.5q-41 0 -76.5 15.5t-67 34.5t-60 34.5t-55.5 15.5q-15 0 -25.5 -8.5t-17.5 -22.5 t-12 -32.5t-9 -38.5l-112 43q-2 40 9.5 75t33 60.5t51.5 40t65 14.5z" />
<glyph unicode="&#x129;" horiz-adv-x="524" d="M184 0v942h156v-942h-156zM133 1394q36 0 68 -15.5t60 -34.5t51 -34.5t41 -15.5q17 0 28 9t17.5 23t10.5 32.5t7 37.5l113 -43q4 -30 -4 -63.5t-28.5 -61.5t-52.5 -46.5t-75 -18.5q-37 0 -68.5 15.5t-58.5 34.5t-50 34.5t-42 15.5q-15 0 -25.5 -8.5t-17.5 -22.5 t-12 -32.5t-9 -38.5l-112 43q-2 40 9.5 75t33 60.5t51.5 40t65 14.5z" />
<glyph unicode="&#x12a;" horiz-adv-x="530" d="M184 0v1333h162v-1333h-162zM-45 1665h614v-113h-614v113z" />
<glyph unicode="&#x12b;" horiz-adv-x="524" d="M184 0v942h156v-942h-156zM-11 1274h534v-113h-534v113z" />
<glyph unicode="&#x12c;" horiz-adv-x="530" d="M184 0v1333h162v-1333h-162zM262 1665q94 0 144.5 61.5t50.5 151.5h139q0 -70 -21.5 -129.5t-63.5 -103.5t-104.5 -68.5t-144.5 -24.5q-166 0 -250 91t-84 235h137q0 -90 53.5 -151.5t143.5 -61.5z" />
<glyph unicode="&#x12d;" horiz-adv-x="524" d="M184 0v942h156v-942h-156zM256 1274q79 0 122 53t43 130h139q0 -64 -19.5 -118t-58 -94t-95 -62t-131.5 -22q-151 0 -227.5 82.5t-76.5 213.5h137q0 -77 45.5 -130t121.5 -53z" />
<glyph unicode="&#x12e;" horiz-adv-x="530" d="M184 0v1333h162v-1333h-162zM342 18q-240 -116 -240 -227q0 -102 89 -102q59 0 110 43l51 -76q-78 -64 -166 -64q-211 0 -211 181q0 121 187 227q31 20 63 35z" />
<glyph unicode="&#x12f;" horiz-adv-x="524" d="M340 18q-240 -116 -240 -227q0 -102 89 -102q59 0 110 43l51 -76q-78 -64 -166 -64q-211 0 -211 181q0 121 187 227q31 20 63 35zM377 1284q0 -55 -35 -90q-39 -33 -82 -33q-41 0 -78 33q-35 33 -35 90t35 86q33 31 78 31t82 -31q35 -31 35 -86zM184 0v942h156v-942h-156 z" />
<glyph unicode="&#x130;" horiz-adv-x="530" d="M184 0v1333h162v-1333h-162zM377 1675q0 -55 -35 -90q-39 -33 -82 -33q-41 0 -78 33q-35 33 -35 90t35 86q33 31 78 31t82 -31q35 -31 35 -86z" />
<glyph unicode="&#x131;" horiz-adv-x="524" d="M184 0v942h156v-942h-156z" />
<glyph unicode="&#x132;" horiz-adv-x="1448" d="M184 0v1333h162v-1333h-162zM1273 1333v-911q0 -215 -93 -331t-292 -116q-112 0 -199 41t-128 101l116 96q29 -43 84.5 -72.5t122.5 -29.5q117 0 171.5 72.5t54.5 232.5v917h163z" />
<glyph unicode="&#x133;" horiz-adv-x="1049" d="M377 1284q0 -55 -35 -90q-39 -33 -82 -33q-41 0 -78 33q-35 33 -35 90t35 86q33 31 78 31t82 -31q35 -31 35 -86zM184 0v942h156v-942h-156zM864 942v-1175q0 -144 -79 -224t-204 -80q-28 0 -60 4.5t-54 10.5l20 125q35 -11 72 -11q26 0 53 8.5t48.5 30t34.5 58.5t13 94 v1159h156zM903 1284q0 -55 -35 -90q-39 -33 -82 -33q-41 0 -78 33q-35 33 -35 90t35 86q33 31 78 31t82 -31q35 -31 35 -86z" />
<glyph unicode="&#x134;" horiz-adv-x="918" d="M743 1333v-911q0 -215 -93 -331t-292 -116q-112 0 -199 41t-128 101l116 96q29 -43 84.5 -72.5t122.5 -29.5q117 0 171.5 72.5t54.5 232.5v917h163zM273 1552l326 328h127l325 -328h-168l-221 238l-221 -238h-168z" />
<glyph unicode="&#x135;" horiz-adv-x="524" d="M340 942v-1175q0 -144 -79 -224t-204 -80q-28 0 -60 4.5t-54 10.5l20 125q35 -11 72 -11q26 0 53 8.5t48.5 30t34.5 58.5t13 94v1159h156zM0 1161l203 328h127l202 -328h-126l-140 238l-139 -238h-127z" />
<glyph unicode="&#x136;" horiz-adv-x="1192" d="M346 705l561 628h197l-508 -575l545 -758h-209l-449 639l-137 -141v-498h-162v1333h162v-628zM502 -510l37 309l149 -22l-75 -299z" />
<glyph unicode="&#x137;" horiz-adv-x="1036" d="M737 942h213l-383 -395l418 -547h-205l-321 440l-129 -131v-309h-156v1456h156v-969zM424 -510l37 309l149 -22l-75 -299z" />
<glyph unicode="&#x138;" horiz-adv-x="1036" d="M745 942h205l-383 -395l418 -547h-194l-332 440l-129 -131v-309h-156v942h156v-444z" />
<glyph unicode="&#x139;" horiz-adv-x="1034" d="M346 1333v-1198h627v-135h-789v1333h162zM736 1933l84 -84l-297 -299l-84 84z" />
<glyph unicode="&#x13a;" horiz-adv-x="524" d="M184 1333h156v-1333h-156v1333zM476 1941l84 -84l-297 -299l-84 84z" />
<glyph unicode="&#x13b;" horiz-adv-x="1034" d="M346 1333v-1198h627v-135h-789v1333h162zM424 -510l37 309l149 -22l-75 -299z" />
<glyph unicode="&#x13c;" horiz-adv-x="524" d="M184 1456h156v-1456h-156v1456zM156 -510l37 309l149 -22l-75 -299z" />
<glyph unicode="&#x13d;" horiz-adv-x="1034" d="M346 1333v-1198h627v-135h-789v1333h162zM762 1004l45 351l150 -23l-84 -340z" />
<glyph unicode="&#x13e;" horiz-adv-x="565" d="M184 1456h156v-1456h-156v1456zM512 1128l45 351l150 -23l-84 -340z" />
<glyph unicode="&#x13f;" horiz-adv-x="1034" d="M346 1333v-1198h627v-135h-789v1333h162zM811 727q0 -58 -34.5 -90.5t-81.5 -32.5q-43 0 -78 32.5t-35 90.5q0 53 35 84.5t78 31.5q47 0 81.5 -31.5t34.5 -84.5z" />
<glyph unicode="&#x140;" horiz-adv-x="805" d="M184 1456h156v-1456h-156v1456zM762 727q0 -58 -34.5 -90.5t-81.5 -32.5q-43 0 -78 32.5t-35 90.5q0 53 35 84.5t78 31.5q47 0 81.5 -31.5t34.5 -84.5z" />
<glyph unicode="&#x141;" horiz-adv-x="1055" d="M61 688l144 39v606h162v-561l217 66v-129l-217 -62v-512h626v-135h-788v600l-144 -41v129z" />
<glyph unicode="&#x142;" horiz-adv-x="565" d="M20 676l185 51v729h155v-686l185 55v-129l-185 -51v-645h-155v600l-185 -53v129z" />
<glyph unicode="&#x143;" horiz-adv-x="1374" d="M340 0h-156v1333h219l631 -1147v1147h156v-1333h-221l-629 1143v-1143zM887 1933l84 -84l-297 -299l-84 84z" />
<glyph unicode="&#x144;" horiz-adv-x="1143" d="M834 621q0 43 -13.5 82.5t-39 69.5t-65.5 48.5t-95 18.5q-70 0 -122.5 -31t-88 -80t-53 -110.5t-17.5 -122.5v-496h-156v748q0 30 -3 86.5t-7 107.5h152q2 -12 3 -35.5t2 -49.5t1 -53.5v-47.5h10q16 39 47 76.5t72 67.5t91 48.5t110 18.5q69 0 128.5 -19.5t103.5 -60.5 t69.5 -106.5t25.5 -157.5v-623h-155v621zM764 1542l84 -84l-297 -299l-84 84z" />
<glyph unicode="&#x145;" horiz-adv-x="1374" d="M340 0h-156v1333h219l631 -1147v1147h156v-1333h-221l-629 1143v-1143zM573 -510l37 309l149 -22l-75 -299z" />
<glyph unicode="&#x146;" horiz-adv-x="1143" d="M834 621q0 43 -13.5 82.5t-39 69.5t-65.5 48.5t-95 18.5q-70 0 -122.5 -31t-88 -80t-53 -110.5t-17.5 -122.5v-496h-156v748q0 30 -3 86.5t-7 107.5h152q2 -12 3 -35.5t2 -49.5t1 -53.5v-47.5h10q16 39 47 76.5t72 67.5t91 48.5t110 18.5q69 0 128.5 -19.5t103.5 -60.5 t69.5 -106.5t25.5 -157.5v-623h-155v621zM483 -510l37 309l149 -22l-75 -299z" />
<glyph unicode="&#x147;" horiz-adv-x="1374" d="M340 0h-156v1333h219l631 -1147v1147h156v-1333h-221l-629 1143v-1143zM1095 1880l-325 -328h-129l-324 328h166l223 -238l221 238h168z" />
<glyph unicode="&#x148;" horiz-adv-x="1143" d="M834 621q0 43 -13.5 82.5t-39 69.5t-65.5 48.5t-95 18.5q-70 0 -122.5 -31t-88 -80t-53 -110.5t-17.5 -122.5v-496h-156v748q0 30 -3 86.5t-7 107.5h152q2 -12 3 -35.5t2 -49.5t1 -53.5v-47.5h10q16 39 47 76.5t72 67.5t91 48.5t110 18.5q69 0 128.5 -19.5t103.5 -60.5 t69.5 -106.5t25.5 -157.5v-623h-155v621zM993 1489l-325 -328h-129l-324 328h166l223 -238l221 238h168z" />
<glyph unicode="&#x149;" horiz-adv-x="1409" d="M1100 621q0 43 -13.5 82.5t-39 69.5t-65.5 48.5t-95 18.5q-70 0 -122.5 -31t-88 -80t-53 -110.5t-17.5 -122.5v-496h-156v748q0 30 -3 86.5t-7 107.5h152q2 -12 3 -35.5t2 -49.5t1 -53.5v-47.5h10q16 39 47 76.5t72 67.5t91 48.5t110 18.5q69 0 128.5 -19.5t103.5 -60.5 t69.5 -106.5t25.5 -157.5v-623h-155v621zM141 1333h156v-219q0 -104 -45 -171t-111 -95l-100 84q41 16 70.5 60t29.5 122v219z" />
<glyph unicode="&#x14a;" horiz-adv-x="1374" d="M340 0h-156v1333h219l631 -962v962h156v-1317q0 -143 -78 -223t-203 -80q-28 0 -60 4t-54 11l20 125q41 -11 78 -11q55 0 97 48.5t42 162.5v25l-692 1065v-1143z" />
<glyph unicode="&#x14b;" horiz-adv-x="1143" d="M834 621q0 43 -13.5 82.5t-39 69.5t-65.5 48.5t-95 18.5q-70 0 -122.5 -31t-88 -80t-53 -110.5t-17.5 -122.5v-496h-156v748q0 30 -3 86.5t-7 107.5h152q2 -12 3 -35.5t2 -49.5t1 -54v-47h10q16 39 47 76.5t72 67.5t91 48.5t110 18.5q69 0 128.5 -19.5t103.5 -60.5 t69.5 -106.5t25.5 -157.5v-856q0 -144 -79 -224t-203 -80q-29 0 -61 4.5t-54 10.5l20 125q35 -11 72 -11q27 0 53.5 8.5t48 30t35 58.5t13.5 94v838z" />
<glyph unicode="&#x14c;" horiz-adv-x="1444" d="M1321 668q0 -162 -45 -291t-125 -218t-189.5 -136.5t-238.5 -47.5t-239.5 47.5t-190.5 136.5t-125 218t-45 291q0 163 45 291t125 217.5t190.5 135.5t239.5 46t238.5 -46t189.5 -135.5t125 -217.5t45 -291zM1153 668q0 135 -30.5 239.5t-88 174t-136.5 105.5t-175 36 t-175 -36t-137.5 -105.5t-90 -174t-31.5 -239.5q0 -136 31.5 -240t90 -175t137.5 -106.5t175 -35.5t175 35.5t136.5 106.5t88 175t30.5 240zM418 1665h614v-113h-614v113z" />
<glyph unicode="&#x14d;" horiz-adv-x="1100" d="M999 471q0 -117 -33.5 -209t-93 -155.5t-141.5 -97.5t-180 -34t-180 34t-142.5 97.5t-94.5 155.5t-34 209t34 209t94.5 155.5t142.5 97.5t180 34t180 -34t141.5 -97.5t93 -155.5t33.5 -209zM842 471q0 182 -81 274.5t-210 92.5t-211 -92.5t-82 -274.5t82 -274.5 t211 -92.5t210 92.5t81 274.5zM244 1274h614v-113h-614v113z" />
<glyph unicode="&#x14e;" horiz-adv-x="1444" d="M1321 668q0 -162 -45 -291t-125 -218t-189.5 -136.5t-238.5 -47.5t-239.5 47.5t-190.5 136.5t-125 218t-45 291q0 163 45 291t125 217.5t190.5 135.5t239.5 46t238.5 -46t189.5 -135.5t125 -217.5t45 -291zM1153 668q0 135 -30.5 239.5t-88 174t-136.5 105.5t-175 36 t-175 -36t-137.5 -105.5t-90 -174t-31.5 -239.5q0 -136 31.5 -240t90 -175t137.5 -106.5t175 -35.5t175 35.5t136.5 106.5t88 175t30.5 240zM727 1665q94 0 144.5 61.5t50.5 151.5h139q0 -70 -21.5 -129.5t-63.5 -103.5t-104.5 -68.5t-144.5 -24.5q-166 0 -250 91t-84 235 h137q0 -90 53.5 -151.5t143.5 -61.5z" />
<glyph unicode="&#x14f;" horiz-adv-x="1100" d="M999 471q0 -117 -33.5 -209t-93 -155.5t-141.5 -97.5t-180 -34t-180 34t-142.5 97.5t-94.5 155.5t-34 209t34 209t94.5 155.5t142.5 97.5t180 34t180 -34t141.5 -97.5t93 -155.5t33.5 -209zM842 471q0 182 -81 274.5t-210 92.5t-211 -92.5t-82 -274.5t82 -274.5 t211 -92.5t210 92.5t81 274.5zM549 1274q94 0 144.5 61.5t50.5 151.5h139q0 -70 -21.5 -129.5t-63.5 -103.5t-104.5 -68.5t-144.5 -24.5q-166 0 -250 91t-84 235h137q0 -90 53.5 -151.5t143.5 -61.5z" />
<glyph unicode="&#x150;" horiz-adv-x="1444" d="M1321 668q0 -162 -45 -291t-125 -218t-189.5 -136.5t-238.5 -47.5t-239.5 47.5t-190.5 136.5t-125 218t-45 291q0 163 45 291t125 217.5t190.5 135.5t239.5 46t238.5 -46t189.5 -135.5t125 -217.5t45 -291zM1153 668q0 135 -30.5 239.5t-88 174t-136.5 105.5t-175 36 t-175 -36t-137.5 -105.5t-90 -174t-31.5 -239.5q0 -136 31.5 -240t90 -175t137.5 -106.5t175 -35.5t175 35.5t136.5 106.5t88 175t30.5 240zM775 1945l81 -77l-274 -318l-82 78zM1106 1945l82 -77l-274 -318l-82 78z" />
<glyph unicode="&#x151;" horiz-adv-x="1100" d="M999 471q0 -117 -33.5 -209t-93 -155.5t-141.5 -97.5t-180 -34t-180 34t-142.5 97.5t-94.5 155.5t-34 209t34 209t94.5 155.5t142.5 97.5t180 34t180 -34t141.5 -97.5t93 -155.5t33.5 -209zM842 471q0 182 -81 274.5t-210 92.5t-211 -92.5t-82 -274.5t82 -274.5 t211 -92.5t210 92.5t81 274.5zM606 1554l81 -77l-274 -318l-82 78zM937 1554l82 -77l-274 -318l-82 78z" />
<glyph unicode="&#x152;" horiz-adv-x="2034" d="M1145 1333h739v-135h-579v-459h540v-135h-540v-469h606v-135h-766v203q-31 -43 -78 -84t-103.5 -73t-119 -51.5t-125.5 -19.5q-127 0 -236.5 47.5t-189.5 135.5t-125 216t-45 290q0 163 45 292t124 218.5t187.5 136.5t235.5 47q65 0 128.5 -19.5t121 -52.5t103.5 -72.5 t77 -83.5v203zM1151 664q0 135 -32 239.5t-89 175t-137 107.5t-176 37t-175 -37t-135.5 -107.5t-88 -175t-31.5 -239.5q0 -136 31.5 -239t90 -173t137.5 -105.5t175 -35.5t175 35.5t136.5 105.5t88 173t30.5 239z" />
<glyph unicode="&#x153;" horiz-adv-x="1784" d="M999 453q5 -181 86.5 -266t206.5 -85q66 0 110 19.5t73 44.5q30 27 49 63l139 -71q-29 -54 -80 -92q-43 -35 -113.5 -63t-175.5 -28q-71 0 -131.5 18.5t-107.5 50.5t-84 74t-62 91h-8q-20 -45 -54 -87t-80 -74t-101.5 -51.5t-118.5 -19.5q-96 0 -178 34t-141.5 97.5 t-93.5 155.5t-34 209t34 209t93.5 155.5t141.5 97.5t178 34q69 0 126.5 -19.5t102.5 -53.5t77 -77t50 -90h8q56 105 153 171.5t224 66.5q98 0 172 -34t122 -95.5t72.5 -144.5t24.5 -181v-29.5t-2 -29.5h-678zM551 106q129 0 210 92.5t81 274.5t-81 274.5t-210 92.5 t-211 -92.5t-82 -274.5t82 -274.5t211 -92.5zM1272 840q-117 0 -188.5 -74t-84.5 -188h506v16q0 43 -13 87t-41 80t-72 57.5t-107 21.5z" />
<glyph unicode="&#x154;" horiz-adv-x="1198" d="M346 659h250q88 0 146.5 19.5t92 56.5t47 88t13.5 115q0 121 -61.5 190.5t-215.5 69.5h-272v-539zM901 0l-252 532h-303v-532h-162v1333h416q227 0 344 -102.5t117 -290.5q0 -78 -25.5 -141.5t-65.5 -111.5t-86 -77.5t-87 -42.5l288 -567h-184zM756 1933l84 -84 l-297 -299l-84 84z" />
<glyph unicode="&#x155;" horiz-adv-x="700" d="M645 791q-20 4 -49 4q-119 0 -187.5 -87t-68.5 -235v-473h-156v768q0 35 -3 86t-7 88h148q4 -49 7 -105.5t3 -86.5h10q10 41 39 78.5t66.5 67.5t80.5 48.5t84 18.5q11 0 25 -1t18 -4zM564 1542l84 -84l-297 -299l-84 84z" />
<glyph unicode="&#x156;" horiz-adv-x="1198" d="M346 659h250q88 0 146.5 19.5t92 56.5t47 88t13.5 115q0 121 -61.5 190.5t-215.5 69.5h-272v-539zM901 0l-252 532h-303v-532h-162v1333h416q227 0 344 -102.5t117 -290.5q0 -78 -25.5 -141.5t-65.5 -111.5t-86 -77.5t-87 -42.5l288 -567h-184zM485 -510l37 309l149 -22 l-75 -299z" />
<glyph unicode="&#x157;" horiz-adv-x="700" d="M645 791q-20 4 -49 4q-119 0 -187.5 -87t-68.5 -235v-473h-156v768q0 35 -3 86t-7 88h148q4 -49 7 -105.5t3 -86.5h10q10 41 39 78.5t66.5 67.5t80.5 48.5t84 18.5q11 0 25 -1t18 -4zM158 -510l37 309l149 -22l-75 -299z" />
<glyph unicode="&#x158;" horiz-adv-x="1198" d="M346 659h250q88 0 146.5 19.5t92 56.5t47 88t13.5 115q0 121 -61.5 190.5t-215.5 69.5h-272v-539zM901 0l-252 532h-303v-532h-162v1333h416q227 0 344 -102.5t117 -290.5q0 -78 -25.5 -141.5t-65.5 -111.5t-86 -77.5t-87 -42.5l288 -567h-184zM966 1880l-325 -328h-129 l-324 328h166l223 -238l221 238h168z" />
<glyph unicode="&#x159;" horiz-adv-x="700" d="M645 791q-20 4 -49 4q-119 0 -187.5 -87t-68.5 -235v-473h-156v768q0 35 -3 86t-7 88h148q4 -49 7 -105.5t3 -86.5h10q10 41 39 78.5t66.5 67.5t80.5 48.5t84 18.5q11 0 25 -1t18 -4zM792 1489l-325 -328h-129l-324 328h166l223 -238l221 238h168z" />
<glyph unicode="&#x15a;" horiz-adv-x="1110" d="M836 1051q-25 69 -92.5 122.5t-186.5 53.5q-68 0 -116 -18.5t-76.5 -49.5t-42 -69.5t-13.5 -77.5q0 -56 23.5 -97t63.5 -70.5t94.5 -53t113.5 -46.5q76 -28 147.5 -59t127 -75t89 -103t33.5 -146q0 -83 -31.5 -154t-91 -122t-142.5 -81t-183 -30q-84 0 -157.5 20.5 t-132 55.5t-98.5 81t-54 99l131 82q28 -86 109 -145t208 -59t205 61t78 166q0 55 -24.5 96t-65.5 73t-94.5 55.5t-112.5 45.5q-78 31 -149.5 61.5t-126 73.5t-87 102.5t-32.5 145.5t32.5 154.5t89 116t134 73t167.5 25.5q78 0 145.5 -18.5t119 -50.5t85 -75t44.5 -90z M785 1933l84 -84l-297 -299l-84 84z" />
<glyph unicode="&#x15b;" horiz-adv-x="936" d="M688 715q-22 53 -79.5 90t-143.5 37t-133 -39t-47 -98q0 -37 16 -62t46 -43t69 -31.5t84 -25.5q61 -17 123.5 -36.5t111.5 -49t80 -74.5t31 -115q0 -61 -24.5 -114.5t-73 -93.5t-116 -62.5t-153.5 -22.5q-110 0 -181 32t-116 71q-53 45 -82 102l125 74q19 -43 56 -78 q28 -29 78.5 -52.5t123.5 -23.5q39 0 77 8.5t66.5 27t46 45t17.5 63.5q0 69 -63.5 102t-169.5 64q-58 16 -116 36.5t-104.5 51t-75 75.5t-28.5 111q0 64 26.5 116t74 89t110 57.5t135.5 20.5q125 0 217 -53.5t121 -127.5zM641 1542l84 -84l-297 -299l-84 84z" />
<glyph unicode="&#x15c;" horiz-adv-x="1110" d="M836 1051q-25 69 -92.5 122.5t-186.5 53.5q-68 0 -116 -18.5t-76.5 -49.5t-42 -69.5t-13.5 -77.5q0 -56 23.5 -97t63.5 -70.5t94.5 -53t113.5 -46.5q76 -28 147.5 -59t127 -75t89 -103t33.5 -146q0 -83 -31.5 -154t-91 -122t-142.5 -81t-183 -30q-84 0 -157.5 20.5 t-132 55.5t-98.5 81t-54 99l131 82q28 -86 109 -145t208 -59t205 61t78 166q0 55 -24.5 96t-65.5 73t-94.5 55.5t-112.5 45.5q-78 31 -149.5 61.5t-126 73.5t-87 102.5t-32.5 145.5t32.5 154.5t89 116t134 73t167.5 25.5q78 0 145.5 -18.5t119 -50.5t85 -75t44.5 -90z M186 1552l326 328h127l325 -328h-168l-221 238l-221 -238h-168z" />
<glyph unicode="&#x15d;" horiz-adv-x="936" d="M688 715q-22 53 -79.5 90t-143.5 37t-133 -39t-47 -98q0 -37 16 -62t46 -43t69 -31.5t84 -25.5q61 -17 123.5 -36.5t111.5 -49t80 -74.5t31 -115q0 -61 -24.5 -114.5t-73 -93.5t-116 -62.5t-153.5 -22.5q-110 0 -181 32t-116 71q-53 45 -82 102l125 74q19 -43 56 -78 q28 -29 78.5 -52.5t123.5 -23.5q39 0 77 8.5t66.5 27t46 45t17.5 63.5q0 69 -63.5 102t-169.5 64q-58 16 -116 36.5t-104.5 51t-75 75.5t-28.5 111q0 64 26.5 116t74 89t110 57.5t135.5 20.5q125 0 217 -53.5t121 -127.5zM78 1161l326 328h127l325 -328h-168l-221 238 l-221 -238h-168z" />
<glyph unicode="&#x15e;" horiz-adv-x="1110" d="M836 1051q-25 69 -92.5 122.5t-186.5 53.5q-68 0 -116 -18.5t-76.5 -49.5t-42 -69.5t-13.5 -77.5q0 -56 23.5 -97t63.5 -70.5t94.5 -53t113.5 -46.5q76 -28 147.5 -59t127 -75t89 -103t33.5 -146q0 -83 -31.5 -154t-91 -122t-142.5 -81t-183 -30q-84 0 -157.5 20.5 t-132 55.5t-98.5 81t-54 99l131 82q28 -86 109 -145t208 -59t205 61t78 166q0 55 -24.5 96t-65.5 73t-94.5 55.5t-112.5 45.5q-78 31 -149.5 61.5t-126 73.5t-87 102.5t-32.5 145.5t32.5 154.5t89 116t134 73t167.5 25.5q78 0 145.5 -18.5t119 -50.5t85 -75t44.5 -90z M520 35q35 -17 64 -35q145 -90 145 -207q0 -201 -235 -201q-103 0 -172 64l51 76q57 -43 127 -43q102 0 102 114q0 121 -199 215z" />
<glyph unicode="&#x15f;" horiz-adv-x="936" d="M688 715q-22 53 -79.5 90t-143.5 37t-133 -39t-47 -98q0 -37 16 -62t46 -43t69 -31.5t84 -25.5q61 -17 123.5 -36.5t111.5 -49t80 -74.5t31 -115q0 -61 -24.5 -114.5t-73 -93.5t-116 -62.5t-153.5 -22.5q-110 0 -181 32t-116 71q-53 45 -82 102l125 74q19 -43 56 -78 q28 -29 78.5 -52.5t123.5 -23.5q39 0 77 8.5t66.5 27t46 45t17.5 63.5q0 69 -63.5 102t-169.5 64q-58 16 -116 36.5t-104.5 51t-75 75.5t-28.5 111q0 64 26.5 116t74 89t110 57.5t135.5 20.5q125 0 217 -53.5t121 -127.5zM428 35q35 -17 64 -35q145 -90 145 -207 q0 -201 -235 -201q-103 0 -172 64l51 76q57 -43 127 -43q102 0 102 114q0 121 -199 215z" />
<glyph unicode="&#x160;" horiz-adv-x="1110" d="M836 1051q-25 69 -92.5 122.5t-186.5 53.5q-68 0 -116 -18.5t-76.5 -49.5t-42 -69.5t-13.5 -77.5q0 -56 23.5 -97t63.5 -70.5t94.5 -53t113.5 -46.5q76 -28 147.5 -59t127 -75t89 -103t33.5 -146q0 -83 -31.5 -154t-91 -122t-142.5 -81t-183 -30q-84 0 -157.5 20.5 t-132 55.5t-98.5 81t-54 99l131 82q28 -86 109 -145t208 -59t205 61t78 166q0 55 -24.5 96t-65.5 73t-94.5 55.5t-112.5 45.5q-78 31 -149.5 61.5t-126 73.5t-87 102.5t-32.5 145.5t32.5 154.5t89 116t134 73t167.5 25.5q78 0 145.5 -18.5t119 -50.5t85 -75t44.5 -90z M952 1880l-325 -328h-129l-324 328h166l223 -238l221 238h168z" />
<glyph unicode="&#x161;" horiz-adv-x="936" d="M688 715q-22 53 -79.5 90t-143.5 37t-133 -39t-47 -98q0 -37 16 -62t46 -43t69 -31.5t84 -25.5q61 -17 123.5 -36.5t111.5 -49t80 -74.5t31 -115q0 -61 -24.5 -114.5t-73 -93.5t-116 -62.5t-153.5 -22.5q-110 0 -181 32t-116 71q-53 45 -82 102l125 74q19 -43 56 -78 q28 -29 78.5 -52.5t123.5 -23.5q39 0 77 8.5t66.5 27t46 45t17.5 63.5q0 69 -63.5 102t-169.5 64q-58 16 -116 36.5t-104.5 51t-75 75.5t-28.5 111q0 64 26.5 116t74 89t110 57.5t135.5 20.5q125 0 217 -53.5t121 -127.5zM864 1489l-325 -328h-129l-324 328h166l223 -238 l221 238h168z" />
<glyph unicode="&#x162;" horiz-adv-x="1120" d="M61 1333h998v-137h-418v-1196h-162v1196h-418v137zM457 -510l37 309l149 -22l-75 -299z" />
<glyph unicode="&#x163;" horiz-adv-x="762" d="M221 942v197l156 20v-217h282v-129h-282v-553q0 -33 5 -60.5t19.5 -49t41 -34t67.5 -12.5q47 0 72.5 8.5t50.5 24.5l26 -123q-30 -16 -71 -28.5t-94 -12.5q-119 0 -196 61.5t-77 203.5v575h-149v129h149zM272 -510l37 309l149 -22l-75 -299z" />
<glyph unicode="&#x164;" horiz-adv-x="1120" d="M61 1333h998v-137h-418v-1196h-162v1196h-418v137zM950 1880l-325 -328h-129l-324 328h166l223 -238l221 238h168z" />
<glyph unicode="&#x165;" horiz-adv-x="731" d="M221 942v197l156 20v-217h282v-129h-282v-553q0 -33 5 -60.5t19.5 -49t41 -34t67.5 -12.5q47 0 72.5 8.5t50.5 24.5l26 -123q-30 -16 -71 -28.5t-94 -12.5q-119 0 -196 61.5t-77 203.5v575h-149v129h149zM549 1128l45 351l150 -23l-84 -340z" />
<glyph unicode="&#x166;" horiz-adv-x="1161" d="M82 1333h997v-137h-417v-416h315v-127h-315v-653h-162v653h-316v127h316v416h-418v137z" />
<glyph unicode="&#x167;" horiz-adv-x="731" d="M90 571h131v242h-149v129h149v197l156 20v-217h282v-129h-282v-242h262v-116h-262v-195q0 -33 5 -60.5t19.5 -49t41 -34t67.5 -12.5q47 0 72.5 8.5t50.5 24.5l26 -123q-30 -16 -71 -28.5t-94 -12.5q-119 0 -196 61.5t-77 203.5v217h-131v116z" />
<glyph unicode="&#x168;" horiz-adv-x="1307" d="M725 -25q-235 0 -355 121t-120 355v882h164v-893q0 -84 24.5 -145.5t67.5 -102t100.5 -61t122.5 -20.5q66 0 123.5 20.5t100.5 61t67.5 102t24.5 145.5v893h164v-882q0 -224 -124 -350t-360 -126zM590 1785q40 0 76 -15.5t68.5 -34.5t61 -34.5t54.5 -15.5q17 0 28 9 t17.5 23t10.5 32.5t7 37.5l113 -43q4 -30 -4 -63.5t-28.5 -61.5t-52.5 -46.5t-75 -18.5q-41 0 -76.5 15.5t-67 34.5t-60 34.5t-55.5 15.5q-15 0 -25.5 -8.5t-17.5 -22.5t-12 -32.5t-9 -38.5l-112 43q-2 40 9.5 75t33 60.5t51.5 40t65 14.5z" />
<glyph unicode="&#x169;" horiz-adv-x="1124" d="M319 326q0 -45 11.5 -86t36 -72t61.5 -48.5t88 -17.5q64 0 113 27t84 74t53 108.5t18 132.5v498h156v-747q0 -29 3 -86.5t7 -108.5h-151q-2 12 -3 35.5t-2 49.5t-2 52.5t-1 48.5h-9q-18 -41 -47.5 -78.5t-67.5 -67.5t-86.5 -47.5t-105.5 -17.5q-61 0 -117.5 19.5 t-99.5 61.5t-68.5 106.5t-25.5 156.5v623h155v-616zM418 1394q40 0 76 -15.5t68.5 -34.5t61 -34.5t54.5 -15.5q17 0 28 9t17.5 23t10.5 32.5t7 37.5l113 -43q4 -30 -4 -63.5t-28.5 -61.5t-52.5 -46.5t-75 -18.5q-41 0 -76.5 15.5t-67 34.5t-60 34.5t-55.5 15.5 q-15 0 -25.5 -8.5t-17.5 -22.5t-12 -32.5t-9 -38.5l-112 43q-2 40 9.5 75t33 60.5t51.5 40t65 14.5z" />
<glyph unicode="&#x16a;" horiz-adv-x="1307" d="M725 -25q-235 0 -355 121t-120 355v882h164v-893q0 -84 24.5 -145.5t67.5 -102t100.5 -61t122.5 -20.5q66 0 123.5 20.5t100.5 61t67.5 102t24.5 145.5v893h164v-882q0 -224 -124 -350t-360 -126zM416 1665h614v-113h-614v113z" />
<glyph unicode="&#x16b;" horiz-adv-x="1124" d="M319 326q0 -45 11.5 -86t36 -72t61.5 -48.5t88 -17.5q64 0 113 27t84 74t53 108.5t18 132.5v498h156v-747q0 -29 3 -86.5t7 -108.5h-151q-2 12 -3 35.5t-2 49.5t-2 52.5t-1 48.5h-9q-18 -41 -47.5 -78.5t-67.5 -67.5t-86.5 -47.5t-105.5 -17.5q-61 0 -117.5 19.5 t-99.5 61.5t-68.5 106.5t-25.5 156.5v623h155v-616zM256 1274h614v-113h-614v113z" />
<glyph unicode="&#x16c;" horiz-adv-x="1307" d="M725 -25q-235 0 -355 121t-120 355v882h164v-893q0 -84 24.5 -145.5t67.5 -102t100.5 -61t122.5 -20.5q66 0 123.5 20.5t100.5 61t67.5 102t24.5 145.5v893h164v-882q0 -224 -124 -350t-360 -126zM725 1665q94 0 144.5 61.5t50.5 151.5h139q0 -70 -21.5 -129.5 t-63.5 -103.5t-104.5 -68.5t-144.5 -24.5q-166 0 -250 91t-84 235h137q0 -90 53.5 -151.5t143.5 -61.5z" />
<glyph unicode="&#x16d;" horiz-adv-x="1124" d="M319 326q0 -45 11.5 -86t36 -72t61.5 -48.5t88 -17.5q64 0 113 27t84 74t53 108.5t18 132.5v498h156v-747q0 -29 3 -86.5t7 -108.5h-151q-2 12 -3 35.5t-2 49.5t-2 52.5t-1 48.5h-9q-18 -41 -47.5 -78.5t-67.5 -67.5t-86.5 -47.5t-105.5 -17.5q-61 0 -117.5 19.5 t-99.5 61.5t-68.5 106.5t-25.5 156.5v623h155v-616zM561 1274q94 0 144.5 61.5t50.5 151.5h139q0 -70 -21.5 -129.5t-63.5 -103.5t-104.5 -68.5t-144.5 -24.5q-166 0 -250 91t-84 235h137q0 -90 53.5 -151.5t143.5 -61.5z" />
<glyph unicode="&#x16e;" horiz-adv-x="1307" d="M725 -25q-235 0 -355 121t-120 355v882h164v-893q0 -84 24.5 -145.5t67.5 -102t100.5 -61t122.5 -20.5q66 0 123.5 20.5t100.5 61t67.5 102t24.5 145.5v893h164v-882q0 -224 -124 -350t-360 -126zM491 1786q0 98 64.5 165.5t175.5 67.5q53 0 97 -18.5t76 -50t49.5 -73.5 t17.5 -91t-17.5 -92t-49.5 -74t-76 -49.5t-97 -18.5q-111 0 -175.5 67.5t-64.5 166.5zM594 1786q0 -60 39 -101t98 -41q57 0 97 41t40 101q0 57 -40 99t-97 42q-59 0 -98 -42t-39 -99z" />
<glyph unicode="&#x16f;" horiz-adv-x="1124" d="M319 326q0 -45 11.5 -86t36 -72t61.5 -48.5t88 -17.5q64 0 113 27t84 74t53 108.5t18 132.5v498h156v-747q0 -29 3 -86.5t7 -108.5h-151q-2 12 -3 35.5t-2 49.5t-2 52.5t-1 48.5h-9q-18 -41 -47.5 -78.5t-67.5 -67.5t-86.5 -47.5t-105.5 -17.5q-61 0 -117.5 19.5 t-99.5 61.5t-68.5 106.5t-25.5 156.5v623h155v-616zM321 1395q0 98 64.5 165.5t175.5 67.5q53 0 97 -18.5t76 -50t49.5 -73.5t17.5 -91t-17.5 -92t-49.5 -74t-76 -49.5t-97 -18.5q-111 0 -175.5 67.5t-64.5 166.5zM424 1395q0 -60 39 -101t98 -41q57 0 97 41t40 101 q0 57 -40 99t-97 42q-59 0 -98 -42t-39 -99z" />
<glyph unicode="&#x170;" horiz-adv-x="1307" d="M725 -25q-235 0 -355 121t-120 355v882h164v-893q0 -84 24.5 -145.5t67.5 -102t100.5 -61t122.5 -20.5q66 0 123.5 20.5t100.5 61t67.5 102t24.5 145.5v893h164v-882q0 -224 -124 -350t-360 -126zM766 1945l81 -77l-274 -318l-82 78zM1097 1945l82 -77l-274 -318l-82 78z " />
<glyph unicode="&#x171;" horiz-adv-x="1124" d="M319 326q0 -45 11.5 -86t36 -72t61.5 -48.5t88 -17.5q64 0 113 27t84 74t53 108.5t18 132.5v498h156v-747q0 -29 3 -86.5t7 -108.5h-151q-2 12 -3 35.5t-2 49.5t-2 52.5t-1 48.5h-9q-18 -41 -47.5 -78.5t-67.5 -67.5t-86.5 -47.5t-105.5 -17.5q-61 0 -117.5 19.5 t-99.5 61.5t-68.5 106.5t-25.5 156.5v623h155v-616zM583 1554l81 -77l-274 -318l-82 78zM914 1554l82 -77l-274 -318l-82 78z" />
<glyph unicode="&#x172;" horiz-adv-x="1307" d="M913 18q-240 -116 -240 -227q0 -102 89 -102q59 0 110 43l51 -76q-78 -64 -166 -64q-211 0 -211 181q0 121 187 227q31 20 63 35zM725 -25q-235 0 -355 121t-120 355v882h164v-893q0 -84 24.5 -145.5t67.5 -102t100.5 -61t122.5 -20.5q66 0 123.5 20.5t100.5 61t67.5 102 t24.5 145.5v893h164v-882q0 -224 -124 -350t-360 -126z" />
<glyph unicode="&#x173;" horiz-adv-x="1124" d="M319 326q0 -45 11.5 -86t36 -72t61.5 -48.5t88 -17.5q64 0 113 27t84 74t53 108.5t18 132.5v498h156v-747q0 -29 3 -86.5t7 -108.5h-151q-2 12 -3 35.5t-2 49.5t-2 52.5t-1 48.5h-9q-18 -41 -47.5 -78.5t-67.5 -67.5t-86.5 -47.5t-105.5 -17.5q-61 0 -117.5 19.5 t-99.5 61.5t-68.5 106.5t-25.5 156.5v623h155v-616zM946 18q-240 -116 -240 -227q0 -102 89 -102q59 0 110 43l51 -76q-78 -64 -166 -64q-211 0 -211 181q0 121 187 227q31 20 63 35z" />
<glyph unicode="&#x174;" horiz-adv-x="1845" d="M1028 1333l293 -1179l281 1179h167l-337 -1333h-222l-295 1194l-288 -1194h-221l-340 1333h170l280 -1179l293 1179h219zM526 1552l326 328h127l325 -328h-168l-221 238l-221 -238h-168z" />
<glyph unicode="&#x175;" horiz-adv-x="1466" d="M840 942l204 -819l187 819h153l-229 -942h-217l-209 819l-201 -819h-215l-231 942h158l182 -819l205 819h213zM344 1161l326 328h127l325 -328h-168l-221 238l-221 -238h-168z" />
<glyph unicode="&#x176;" horiz-adv-x="1092" d="M20 1333h175l348 -690l354 690h174l-448 -821v-512h-162v512zM162 1552l326 328h127l325 -328h-168l-221 238l-221 -238h-168z" />
<glyph unicode="&#x177;" horiz-adv-x="969" d="M489 -369q-30 -90 -97.5 -129t-141.5 -39q-47 0 -83 8.5t-63 20.5l27 125q27 -14 54.5 -19.5t52.5 -5.5q49 0 77.5 27t40.5 72l68 235l-371 1016h178l275 -803l246 803h178l-441 -1311v0zM94 1161l326 328h127l325 -328h-168l-221 238l-221 -238h-168z" />
<glyph unicode="&#x178;" horiz-adv-x="1092" d="M20 1333h175l348 -690l354 690h174l-448 -821v-512h-162v512zM453 1665q0 -49 -33 -82q-35 -31 -82 -31q-49 0 -82 31q-30 31 -30 82q0 53 30 84q35 28 82 28t82 -28q33 -33 33 -84zM865 1665q0 -49 -33 -82q-35 -31 -80 -31q-51 0 -84 31q-31 31 -31 82q0 53 31 84 q35 28 84 28q45 0 80 -28q33 -33 33 -84z" />
<glyph unicode="&#x179;" horiz-adv-x="1098" d="M1008 1229l-50 -70l-708 -1026h776v-133h-973v104l49 68l711 1028h-719v133h914v-104zM742 1933l84 -84l-297 -299l-84 84z" />
<glyph unicode="&#x17a;" horiz-adv-x="887" d="M799 834l-66 -86l-461 -619h543v-129h-723v109l51 65l473 639h-514v129h697v-108zM637 1542l84 -84l-297 -299l-84 84z" />
<glyph unicode="&#x17b;" horiz-adv-x="1098" d="M1008 1229l-50 -70l-708 -1026h776v-133h-973v104l49 68l711 1028h-719v133h914v-104zM660 1675q0 -55 -35 -90q-39 -33 -82 -33q-41 0 -78 33q-35 33 -35 90t35 86q33 31 78 31t82 -31q35 -31 35 -86z" />
<glyph unicode="&#x17c;" horiz-adv-x="887" d="M799 834l-66 -86l-461 -619h543v-129h-723v109l51 65l473 639h-514v129h697v-108zM557 1284q0 -55 -35 -90q-39 -33 -82 -33q-41 0 -78 33q-35 33 -35 90t35 86q33 31 78 31t82 -31q35 -31 35 -86z" />
<glyph unicode="&#x17d;" horiz-adv-x="1098" d="M1008 1229l-50 -70l-708 -1026h776v-133h-973v104l49 68l711 1028h-719v133h914v-104zM919 1880l-325 -328h-129l-324 328h166l223 -238l221 238h168z" />
<glyph unicode="&#x17e;" horiz-adv-x="887" d="M799 834l-66 -86l-461 -619h543v-129h-723v109l51 65l473 639h-514v129h697v-108zM846 1489l-325 -328h-129l-324 328h166l223 -238l221 238h168z" />
<glyph unicode="&#x17f;" horiz-adv-x="504" d="M164 0v1178q0 143 79 223t208 80q22 0 41.5 -2t35.5 -6q19 -5 33 -7l-20 -125q-11 2 -23 5q-10 2 -23.5 4t-29.5 2q-62 0 -104 -40t-42 -153v-1159h-155z" />
<glyph unicode="&#x180;" horiz-adv-x="1186" d="M340 1456v-213h278v-117h-278v-208q0 -19 -1 -39.5t-3 -36.5q-2 -21 -2 -41h10q21 26 51.5 56t70.5 54.5t88 41t105 16.5q95 0 173.5 -37t135 -103.5t87 -157.5t30.5 -200t-31.5 -199t-89 -156.5t-136 -103.5t-173.5 -37q-53 0 -101 15.5t-89 42t-74 58.5t-53 67h-10 q0 -19 -2 -41.5t-3 -45t-3.5 -42t-4.5 -29.5h-141q4 45 7 101.5t3 91.5v933h-139v117h139v213h156zM926 471q0 182 -86 275.5t-215 93.5t-213 -93.5t-84 -275.5t84 -274.5t213 -92.5t215 92.5t86 274.5z" />
<glyph unicode="&#x18f;" horiz-adv-x="1366" d="M1079 713q-2 129 -32.5 225t-84 158.5t-126 94.5t-158.5 32q-105 0 -170.5 -34t-110.5 -77t-78 -111l-147 72q23 41 49.5 78t61.5 66q57 55 152 98t243 43q145 0 251.5 -55.5t176.5 -148.5t103.5 -218t33.5 -266q0 -166 -44 -296t-121 -218t-180 -134.5t-222 -46.5 q-137 0 -239.5 48.5t-171 133.5t-104.5 202.5t-38 256.5v42.5t2 54.5h954zM676 111q100 0 175 37.5t125 102t74.5 148.5t24.5 179h-778v-31q0 -78 20.5 -155t65.5 -140.5t116.5 -102t176.5 -38.5z" />
<glyph unicode="&#x192;" horiz-adv-x="860" d="M129 596v129h170v143q0 144 79 223.5t208 79.5q22 0 41.5 -2t36.5 -6q18 -4 32 -6l-20 -125q-10 2 -23 4q-10 2 -23.5 4t-29.5 2q-61 0 -103 -39.5t-42 -152.5v-125h215v-129h-215v-543q0 -143 -46.5 -212.5t-162.5 -69.5q-35 0 -61.5 4t-43.5 8q-20 6 -32 12l20 123 q8 -6 21 -10q10 -4 24 -6t35 -2q24 0 41.5 6t29 24.5t15.5 52t4 89.5v524h-170z" />
<glyph unicode="&#x195;" horiz-adv-x="1722" d="M330 1456v-700q28 57 73 104q39 41 98.5 74t143.5 33q66 0 120 -19.5t95 -62.5t64.5 -108.5t23.5 -158.5v-292q0 -45 10.5 -86t34 -72t57 -48.5t83.5 -17.5q59 0 104 27t78 74t50 108.5t17 132.5v498h156v-747q0 -29 3 -86.5t7 -108.5h-151q-2 12 -3 35.5t-2 49.5 t-2 52.5t-1 48.5h-9q-16 -41 -44.5 -78.5t-64.5 -67.5t-82 -47.5t-99 -17.5q-60 0 -113 19.5t-94 61.5t-65.5 106.5t-24.5 156.5v302q0 43 -12.5 82.5t-37 69.5t-61.5 48.5t-88 18.5q-66 0 -116 -32t-83 -82t-49 -110.5t-16 -117.5v-498h-156v1456h156z" />
<glyph unicode="&#x1a6;" horiz-adv-x="1198" d="M346 412h250q88 0 146.5 20.5t92 58t47 91t13.5 116.5q0 125 -61.5 199t-215.5 74h-272v-559zM907 -260l-254 536h-307v-276h-162v1333h162v-227h254q227 0 344 -106.5t117 -301.5q0 -82 -25.5 -147.5t-65.5 -115.5t-86 -80.5t-87 -43.5l290 -571h-180z" />
<glyph unicode="&#x1cd;" d="M61 0l449 1333h209l448 -1333h-170l-106 326h-557l-107 -326h-166zM381 471h463l-232 733zM1007 1880l-325 -328h-129l-324 328h166l223 -238l221 238h168z" />
<glyph unicode="&#x1ce;" horiz-adv-x="1047" d="M434 98q64 0 112 19.5t80.5 52.5t51 74t18.5 84v82q-32 -4 -89.5 -11.5t-110.5 -15.5q-41 -6 -81 -16.5t-69 -26.5q-57 -35 -61 -107q0 -67 38.5 -101t110.5 -34zM135 756q27 59 78 106q43 41 112.5 73t168.5 32q98 0 165.5 -24.5t109.5 -68t60.5 -106.5t18.5 -133v-385 q0 -72 16.5 -94.5t50.5 -22.5q23 0 33 2t21 4l8 -121q-16 -10 -37.5 -16t-65.5 -6q-65 0 -106 44t-49 114q-43 -76 -125 -127.5t-184 -51.5q-134 0 -208.5 68t-74.5 184q2 72 38 118t89 75q53 26 112.5 40.5t139.5 24.5l190 25v113q0 96 -49 155.5t-155 59.5 q-68 0 -111 -22.5t-68 -51.5q-28 -35 -47 -78zM911 1489l-325 -328h-129l-324 328h166l223 -238l221 238h168z" />
<glyph unicode="&#x1de;" d="M61 0l449 1333h209l448 -1333h-170l-106 326h-557l-107 -326h-166zM381 471h463l-232 733zM305 1951h614v-113h-614v113zM533 1623q0 -49 -33 -82q-35 -31 -82 -31q-49 0 -82 31q-30 31 -30 82q0 53 30 84q35 28 82 28t82 -28q33 -33 33 -84zM919 1623q0 -49 -33 -82 q-35 -31 -80 -31q-51 0 -84 31q-31 31 -31 82q0 53 31 84q35 28 84 28q45 0 80 -28q33 -33 33 -84z" />
<glyph unicode="&#x1df;" horiz-adv-x="1047" d="M434 98q64 0 112 19.5t80.5 52.5t51 74t18.5 84v82q-32 -4 -89.5 -11.5t-110.5 -15.5q-41 -6 -81 -16.5t-69 -26.5q-57 -35 -61 -107q0 -67 38.5 -101t110.5 -34zM135 756q27 59 78 106q43 41 112.5 73t168.5 32q98 0 165.5 -24.5t109.5 -68t60.5 -106.5t18.5 -133v-385 q0 -72 16.5 -94.5t50.5 -22.5q23 0 33 2t21 4l8 -121q-16 -10 -37.5 -16t-65.5 -6q-65 0 -106 44t-49 114q-43 -76 -125 -127.5t-184 -51.5q-134 0 -208.5 68t-74.5 184q2 72 38 118t89 75q53 26 112.5 40.5t139.5 24.5l190 25v113q0 96 -49 155.5t-155 59.5 q-68 0 -111 -22.5t-68 -51.5q-28 -35 -47 -78zM188 1560h614v-113h-614v113zM416 1232q0 -49 -33 -82q-35 -31 -82 -31q-49 0 -82 31q-30 31 -30 82q0 53 30 84q35 28 82 28t82 -28q33 -33 33 -84zM802 1232q0 -49 -33 -82q-35 -31 -80 -31q-51 0 -84 31q-31 31 -31 82 q0 53 31 84q35 28 84 28q45 0 80 -28q33 -33 33 -84z" />
<glyph unicode="&#x1e0;" d="M61 0l449 1333h209l448 -1333h-170l-106 326h-557l-107 -326h-166zM381 471h463l-232 733zM741 1626q0 -55 -35 -90q-39 -33 -82 -33q-41 0 -78 33q-35 33 -35 90t35 86q33 31 78 31t82 -31q35 -31 35 -86zM319 1952h614v-113h-614v113z" />
<glyph unicode="&#x1e1;" horiz-adv-x="1047" d="M434 98q64 0 112 19.5t80.5 52.5t51 74t18.5 84v82q-32 -4 -89.5 -11.5t-110.5 -15.5q-41 -6 -81 -16.5t-69 -26.5q-57 -35 -61 -107q0 -67 38.5 -101t110.5 -34zM135 756q27 59 78 106q43 41 112.5 73t168.5 32q98 0 165.5 -24.5t109.5 -68t60.5 -106.5t18.5 -133v-385 q0 -72 16.5 -94.5t50.5 -22.5q23 0 33 2t21 4l8 -121q-16 -10 -37.5 -16t-65.5 -6q-65 0 -106 44t-49 114q-43 -76 -125 -127.5t-184 -51.5q-134 0 -208.5 68t-74.5 184q2 72 38 118t89 75q53 26 112.5 40.5t139.5 24.5l190 25v113q0 96 -49 155.5t-155 59.5 q-68 0 -111 -22.5t-68 -51.5q-28 -35 -47 -78zM623 1234q0 -55 -35 -90q-39 -33 -82 -33q-41 0 -78 33q-35 33 -35 90t35 86q33 31 78 31t82 -31q35 -31 35 -86zM201 1560h614v-113h-614v113z" />
<glyph unicode="&#x1e2;" horiz-adv-x="1675" d="M176 0h-168l682 1333h840v-135h-580v-459h541v-135h-541v-469h606v-135h-768v336h-444zM788 1214l-376 -745h376v745zM826 1665h614v-113h-614v113z" />
<glyph unicode="&#x1e3;" horiz-adv-x="1610" d="M494 967q63 0 113 -17.5t88 -45t65.5 -65.5t46.5 -77q18 37 47 74.5t68 66.5t90 47.5t114 18.5q80 0 150 -25.5t120 -80t79.5 -136.5t29.5 -192q0 -25 -2 -35.5t-2 -26.5l-653 -49q6 -66 25.5 -124t54.5 -101t84 -69t114 -26q88 0 145.5 37t80.5 90l139 -67 q-18 -39 -52 -74t-80 -60.5t-104.5 -40t-124.5 -14.5q-73 0 -131.5 19.5t-101.5 51.5t-72.5 74t-44.5 87q-37 -68 -80 -113t-91 -71.5t-97 -37t-98 -10.5q-123 0 -205 71t-82 187q0 64 24.5 111t70.5 81t101.5 52.5t122.5 24.5l250 20v109q0 96 -49 151.5t-155 55.5 q-68 0 -111 -23.5t-68 -52.5q-28 -35 -43 -76l-135 70q31 57 82 104q43 41 110.5 74t166.5 33zM1118 842q-123 0 -192.5 -82t-77.5 -228l493 35q0 4 1 13.5t1 13.5q0 108 -60 178t-165 70zM434 98q58 0 109 19.5t83.5 52.5t51 74t18.5 84v82q-32 0 -89.5 -3.5t-110.5 -9.5 q-35 -4 -75 -11t-71 -23.5t-48 -46t-17 -74.5q0 -72 46 -108t103 -36zM498 1274h614v-113h-614v113z" />
<glyph unicode="&#x1e6;" horiz-adv-x="1382" d="M1219 670v-670h-119l-21 203h-8q-16 -43 -50 -84t-82 -73t-107.5 -51.5t-124.5 -19.5q-129 0 -235.5 46.5t-184.5 133.5t-121 214t-43 286q0 162 43 292t122 221.5t189.5 140.5t243.5 49q92 0 170 -19.5t138.5 -52.5t102.5 -77t62 -93l-139 -82q-21 78 -111 133.5 t-223 55.5q-121 0 -203 -43t-132 -119t-72.5 -180.5t-22.5 -225.5q0 -120 25.5 -220.5t79 -172.5t134 -111.5t191.5 -39.5q82 0 145.5 25.5t107.5 66.5t66.5 93t22.5 107v132h-361v135h517zM1096 1880l-325 -328h-129l-324 328h166l223 -238l221 238h168z" />
<glyph unicode="&#x1e7;" horiz-adv-x="1100" d="M438 -100q-102 0 -154.5 -38t-52.5 -124q0 -43 15.5 -74t49.5 -49t89 -27.5t137 -9.5q170 0 247 40t77 132q0 78 -54.5 114t-177.5 36h-176zM510 356q108 0 166.5 60.5t58.5 183.5q0 246 -223 246q-111 0 -174.5 -62.5t-63.5 -183.5q0 -123 62.5 -183.5t173.5 -60.5z M1077 821q-10 2 -23.5 3t-29.5 1q-66 0 -110 -22.5t-62 -34.5q22 -41 31.5 -75t9.5 -89q0 -174 -92 -262t-289 -109q-59 -6 -103 -25.5t-44 -78.5q0 -98 112 -98h232q145 0 225 -64.5t80 -175.5q0 -147 -133 -237.5t-377 -90.5q-217 0 -325.5 64.5t-108.5 181.5 q0 53 21.5 95t59 73t89 48.5t112.5 21.5q-53 14 -87 53t-34 90q0 60 41 103t107 59q-49 14 -96 43t-83 71t-58.5 98t-22.5 128q0 86 30.5 154.5t84 117.5t125 76t153.5 27q94 0 172 -40t121 -100q12 23 33.5 49.5t52.5 50t68.5 39t82.5 15.5q15 0 24 -1t21 -3zM938 1489 l-325 -328h-129l-324 328h166l223 -238l221 238h168z" />
<glyph unicode="&#x1e8;" horiz-adv-x="1192" d="M346 705l561 628h197l-508 -575l545 -758h-209l-449 639l-137 -141v-498h-162v1333h162v-628zM977 1880l-325 -328h-129l-324 328h166l223 -238l221 238h168z" />
<glyph unicode="&#x1e9;" horiz-adv-x="1036" d="M737 942h213l-383 -395l418 -547h-205l-321 440l-129 -131v-309h-156v1333h156v-846zM911 1888l-325 -328h-129l-324 328h166l223 -238l221 238h168z" />
<glyph unicode="&#x1ea;" horiz-adv-x="1444" d="M1321 668q0 -162 -45 -291t-125 -218t-189.5 -136.5t-238.5 -47.5t-239.5 47.5t-190.5 136.5t-125 218t-45 291q0 163 45 291t125 217.5t190.5 135.5t239.5 46t238.5 -46t189.5 -135.5t125 -217.5t45 -291zM1153 668q0 135 -30.5 239.5t-88 174t-136.5 105.5t-175 36 t-175 -36t-137.5 -105.5t-90 -174t-31.5 -239.5q0 -136 31.5 -240t90 -175t137.5 -106.5t175 -35.5t175 35.5t136.5 106.5t88 175t30.5 240zM903 18q-240 -116 -240 -227q0 -102 89 -102q59 0 110 43l51 -76q-78 -64 -166 -64q-211 0 -211 181q0 121 187 227q31 20 63 35z " />
<glyph unicode="&#x1eb;" horiz-adv-x="1100" d="M999 471q0 -117 -33.5 -209t-93 -155.5t-141.5 -97.5t-180 -34t-180 34t-142.5 97.5t-94.5 155.5t-34 209t34 209t94.5 155.5t142.5 97.5t180 34t180 -34t141.5 -97.5t93 -155.5t33.5 -209zM842 471q0 182 -81 274.5t-210 92.5t-211 -92.5t-82 -274.5t82 -274.5 t211 -92.5t210 92.5t81 274.5zM747 18q-240 -116 -240 -227q0 -102 89 -102q59 0 110 43l51 -76q-78 -64 -166 -64q-211 0 -211 181q0 121 187 227q31 20 63 35z" />
<glyph unicode="&#x1f6;" horiz-adv-x="2003" d="M1178 326q0 -45 11 -86t35.5 -72t61.5 -48.5t109 -17.5q63 0 112 27t84 74t53.5 108.5t18.5 132.5v498h156v-747q0 -29 3 -86.5t7 -108.5h-152q-2 12 -3 35.5t-2 49.5t-2 52.5t-1 48.5h-8q-19 -41 -48.5 -78.5t-68.5 -67.5t-87 -47.5t-105 -17.5q-64 0 -130.5 19.5 t-110.5 61.5t-69.5 106.5t-25.5 156.5v263h-670v-582h-162v1333h162v-616h670v616h162v-1007z" />
<glyph unicode="&#x1fe;" horiz-adv-x="1444" d="M1321 668q0 -162 -45 -291t-125 -218t-189.5 -136.5t-238.5 -47.5q-102 0 -192.5 29t-161.5 86l-93 -123l-102 74l102 137q-71 90 -112 213t-41 277q0 163 45 291t125 217.5t190.5 135.5t239.5 46q203 0 352 -113l92 125l103 -74l-103 -137q72 -90 113 -213t41 -278z M1153 668q0 112 -22.5 204.5t-63.5 159.5l-610 -829q104 -92 266 -92q96 0 175 35.5t136.5 106.5t88 175t30.5 240zM289 668q0 -226 86 -365l610 830q-104 90 -262 90q-96 0 -175 -36t-137.5 -105.5t-90 -174t-31.5 -239.5zM936 1933l84 -84l-297 -299l-84 84z" />
<glyph unicode="&#x1ff;" horiz-adv-x="1100" d="M752 1542l84 -84l-297 -299l-84 84zM178 170q-37 59 -57.5 134t-20.5 167q0 117 34 209t94.5 155.5t142.5 97.5t180 34q184 0 307 -117l135 137l80 -84l-143 -145q33 -58 51 -129.5t18 -157.5q0 -117 -33.5 -209t-93 -155.5t-141.5 -97.5t-180 -34q-180 0 -299 107 l-125 -129l-78 88zM254 451q0 -54 8 -98t23 -83l467 484q-37 41 -88.5 64.5t-112.5 23.5q-66 0 -120 -28t-93 -78t-61.5 -122.5t-22.5 -162.5zM846 492q0 51 -9.5 95t-23.5 83l-465 -482q39 -41 90 -64.5t113 -23.5q63 0 117.5 27t94.5 78t61.5 123.5t21.5 163.5z" />
<glyph unicode="&#x218;" horiz-adv-x="1110" d="M836 1051q-25 69 -92.5 122.5t-186.5 53.5q-68 0 -116 -18.5t-76.5 -49.5t-42 -69.5t-13.5 -77.5q0 -56 23.5 -97t63.5 -70.5t94.5 -53t113.5 -46.5q76 -28 147.5 -59t127 -75t89 -103t33.5 -146q0 -83 -31.5 -154t-91 -122t-142.5 -81t-183 -30q-84 0 -157.5 20.5 t-132 55.5t-98.5 81t-54 99l131 82q28 -86 109 -145t208 -59t205 61t78 166q0 55 -24.5 96t-65.5 73t-94.5 55.5t-112.5 45.5q-78 31 -149.5 61.5t-126 73.5t-87 102.5t-32.5 145.5t32.5 154.5t89 116t134 73t167.5 25.5q78 0 145.5 -18.5t119 -50.5t85 -75t44.5 -90z M416 -510l37 309l149 -22l-75 -299z" />
<glyph unicode="&#x219;" horiz-adv-x="936" d="M688 715q-22 53 -79.5 90t-143.5 37t-133 -39t-47 -98q0 -37 16 -62t46 -43t69 -31.5t84 -25.5q61 -17 123.5 -36.5t111.5 -49t80 -74.5t31 -115q0 -61 -24.5 -114.5t-73 -93.5t-116 -62.5t-153.5 -22.5q-110 0 -181 32t-116 71q-53 45 -82 102l125 74q19 -43 56 -78 q28 -29 78.5 -52.5t123.5 -23.5q39 0 77 8.5t66.5 27t46 45t17.5 63.5q0 69 -63.5 102t-169.5 64q-58 16 -116 36.5t-104.5 51t-75 75.5t-28.5 111q0 64 26.5 116t74 89t110 57.5t135.5 20.5q125 0 217 -53.5t121 -127.5zM375 -510l37 309l149 -22l-75 -299z" />
<glyph unicode="&#x21a;" horiz-adv-x="1120" d="M61 1333h998v-137h-418v-1196h-162v1196h-418v137zM457 -510l37 309l149 -22l-75 -299z" />
<glyph unicode="&#x21b;" horiz-adv-x="762" d="M221 942v197l156 20v-217h282v-129h-282v-553q0 -33 5 -60.5t19.5 -49t41 -34t67.5 -12.5q47 0 72.5 8.5t50.5 24.5l26 -123q-30 -16 -71 -28.5t-94 -12.5q-119 0 -196 61.5t-77 203.5v575h-149v129h149zM272 -510l37 309l149 -22l-75 -299z" />
<glyph unicode="&#x22a;" horiz-adv-x="1444" d="M1321 668q0 -162 -45 -291t-125 -218t-189.5 -136.5t-238.5 -47.5t-239.5 47.5t-190.5 136.5t-125 218t-45 291q0 163 45 291t125 217.5t190.5 135.5t239.5 46t238.5 -46t189.5 -135.5t125 -217.5t45 -291zM1153 668q0 135 -30.5 239.5t-88 174t-136.5 105.5t-175 36 t-175 -36t-137.5 -105.5t-90 -174t-31.5 -239.5q0 -136 31.5 -240t90 -175t137.5 -106.5t175 -35.5t175 35.5t136.5 106.5t88 175t30.5 240zM422 1951h614v-113h-614v113zM650 1623q0 -49 -33 -82q-35 -31 -82 -31q-49 0 -82 31q-30 31 -30 82q0 53 30 84q35 28 82 28 t82 -28q33 -33 33 -84zM1036 1623q0 -49 -33 -82q-35 -31 -80 -31q-51 0 -84 31q-31 31 -31 82q0 53 31 84q35 28 84 28q45 0 80 -28q33 -33 33 -84z" />
<glyph unicode="&#x22b;" horiz-adv-x="1100" d="M999 471q0 -117 -33.5 -209t-93 -155.5t-141.5 -97.5t-180 -34t-180 34t-142.5 97.5t-94.5 155.5t-34 209t34 209t94.5 155.5t142.5 97.5t180 34t180 -34t141.5 -97.5t93 -155.5t33.5 -209zM842 471q0 182 -81 274.5t-210 92.5t-211 -92.5t-82 -274.5t82 -274.5 t211 -92.5t210 92.5t81 274.5zM234 1560h614v-113h-614v113zM462 1232q0 -49 -33 -82q-35 -31 -82 -31q-49 0 -82 31q-30 31 -30 82q0 53 30 84q35 28 82 28t82 -28q33 -33 33 -84zM848 1232q0 -49 -33 -82q-35 -31 -80 -31q-51 0 -84 31q-31 31 -31 82q0 53 31 84 q35 28 84 28q45 0 80 -28q33 -33 33 -84z" />
<glyph unicode="&#x22c;" horiz-adv-x="1444" d="M1321 668q0 -162 -45 -291t-125 -218t-189.5 -136.5t-238.5 -47.5t-239.5 47.5t-190.5 136.5t-125 218t-45 291q0 163 45 291t125 217.5t190.5 135.5t239.5 46t238.5 -46t189.5 -135.5t125 -217.5t45 -291zM1153 668q0 135 -30.5 239.5t-88 174t-136.5 105.5t-175 36 t-175 -36t-137.5 -105.5t-90 -174t-31.5 -239.5q0 -136 31.5 -240t90 -175t137.5 -106.5t175 -35.5t175 35.5t136.5 106.5t88 175t30.5 240zM416 1991h614v-113h-614v113zM584 1747q40 0 76 -15.5t68.5 -34.5t61 -34.5t54.5 -15.5q17 0 28 9t17.5 23t10.5 32.5t7 37.5 l113 -43q4 -30 -4 -63.5t-28.5 -61.5t-52.5 -46.5t-75 -18.5q-41 0 -76.5 15.5t-67 34.5t-60 34.5t-55.5 15.5q-15 0 -25.5 -8.5t-17.5 -22.5t-12 -32.5t-9 -38.5l-112 43q-2 40 9.5 75t33 60.5t51.5 40t65 14.5z" />
<glyph unicode="&#x22d;" horiz-adv-x="1100" d="M999 471q0 -117 -33.5 -209t-93 -155.5t-141.5 -97.5t-180 -34t-180 34t-142.5 97.5t-94.5 155.5t-34 209t34 209t94.5 155.5t142.5 97.5t180 34t180 -34t141.5 -97.5t93 -155.5t33.5 -209zM842 471q0 182 -81 274.5t-210 92.5t-211 -92.5t-82 -274.5t82 -274.5 t211 -92.5t210 92.5t81 274.5zM234 1600h614v-113h-614v113zM402 1356q40 0 76 -15.5t68.5 -34.5t61 -34.5t54.5 -15.5q17 0 28 9t17.5 23t10.5 32.5t7 37.5l113 -43q4 -30 -4 -63.5t-28.5 -61.5t-52.5 -46.5t-75 -18.5q-41 0 -76.5 15.5t-67 34.5t-60 34.5t-55.5 15.5 q-15 0 -25.5 -8.5t-17.5 -22.5t-12 -32.5t-9 -38.5l-112 43q-2 40 9.5 75t33 60.5t51.5 40t65 14.5z" />
<glyph unicode="&#x22e;" horiz-adv-x="1444" d="M1321 668q0 -162 -45 -291t-125 -218t-189.5 -136.5t-238.5 -47.5t-239.5 47.5t-190.5 136.5t-125 218t-45 291q0 163 45 291t125 217.5t190.5 135.5t239.5 46t238.5 -46t189.5 -135.5t125 -217.5t45 -291zM1153 668q0 135 -30.5 239.5t-88 174t-136.5 105.5t-175 36 t-175 -36t-137.5 -105.5t-90 -174t-31.5 -239.5q0 -136 31.5 -240t90 -175t137.5 -106.5t175 -35.5t175 35.5t136.5 106.5t88 175t30.5 240zM830 1675q0 -55 -35 -90q-39 -33 -82 -33q-41 0 -78 33q-35 33 -35 90t35 86q33 31 78 31t82 -31q35 -31 35 -86z" />
<glyph unicode="&#x22f;" horiz-adv-x="1100" d="M999 471q0 -117 -33.5 -209t-93 -155.5t-141.5 -97.5t-180 -34t-180 34t-142.5 97.5t-94.5 155.5t-34 209t34 209t94.5 155.5t142.5 97.5t180 34t180 -34t141.5 -97.5t93 -155.5t33.5 -209zM842 471q0 182 -81 274.5t-210 92.5t-211 -92.5t-82 -274.5t82 -274.5 t211 -92.5t210 92.5t81 274.5zM664 1284q0 -55 -35 -90q-39 -33 -82 -33q-41 0 -78 33q-35 33 -35 90t35 86q33 31 78 31t82 -31q35 -31 35 -86z" />
<glyph unicode="&#x230;" horiz-adv-x="1444" d="M1321 668q0 -162 -45 -291t-125 -218t-189.5 -136.5t-238.5 -47.5t-239.5 47.5t-190.5 136.5t-125 218t-45 291q0 163 45 291t125 217.5t190.5 135.5t239.5 46t238.5 -46t189.5 -135.5t125 -217.5t45 -291zM1153 668q0 135 -30.5 239.5t-88 174t-136.5 105.5t-175 36 t-175 -36t-137.5 -105.5t-90 -174t-31.5 -239.5q0 -136 31.5 -240t90 -175t137.5 -106.5t175 -35.5t175 35.5t136.5 106.5t88 175t30.5 240zM845 1625q0 -55 -35 -90q-39 -33 -82 -33q-41 0 -78 33q-35 33 -35 90t35 86q33 31 78 31t82 -31q35 -31 35 -86zM423 1951h614 v-113h-614v113z" />
<glyph unicode="&#x231;" horiz-adv-x="1100" d="M999 471q0 -117 -33.5 -209t-93 -155.5t-141.5 -97.5t-180 -34t-180 34t-142.5 97.5t-94.5 155.5t-34 209t34 209t94.5 155.5t142.5 97.5t180 34t180 -34t141.5 -97.5t93 -155.5t33.5 -209zM842 471q0 182 -81 274.5t-210 92.5t-211 -92.5t-82 -274.5t82 -274.5 t211 -92.5t210 92.5t81 274.5zM669 1234q0 -55 -35 -90q-39 -33 -82 -33q-41 0 -78 33q-35 33 -35 90t35 86q33 31 78 31t82 -31q35 -31 35 -86zM247 1560h614v-113h-614v113z" />
<glyph unicode="&#x232;" horiz-adv-x="1092" d="M20 1333h175l348 -690l354 690h174l-448 -821v-512h-162v512zM236 1665h614v-113h-614v113z" />
<glyph unicode="&#x233;" horiz-adv-x="969" d="M489 -369q-30 -90 -97.5 -129t-141.5 -39q-47 0 -83 8.5t-63 20.5l27 125q27 -14 54.5 -19.5t52.5 -5.5q49 0 77.5 27t40.5 72l68 235l-371 1016h178l275 -803l246 803h178l-441 -1311v0zM176 1274h614v-113h-614v113z" />
<glyph unicode="&#x237;" horiz-adv-x="524" d="M340 942v-1175q0 -144 -79 -224t-204 -80q-28 0 -60 4.5t-54 10.5l20 125q35 -11 72 -11q26 0 53 8.5t48.5 30t34.5 58.5t13 94v1159h156z" />
<glyph unicode="&#x243;" horiz-adv-x="1217" d="M850 717q76 -25 137 -70q51 -39 94 -103.5t43 -162.5q0 -191 -117.5 -286t-347.5 -95h-454v324h-164v116h164v893h481q180 0 285.5 -84t105.5 -243q0 -82 -35.5 -135.5t-76.5 -86.5q-52 -36 -113 -61zM670 125q141 0 217 57.5t76 179.5q0 123 -62.5 199t-200.5 76h-344 v-197h258v-116h-258v-199h314zM356 754h320q117 0 176 60t59 165q0 111 -65.5 170t-200.5 59h-289v-454z" />
<glyph unicode="&#x259;" horiz-adv-x="1040" d="M784 504q0 155 -72.5 245.5t-211.5 90.5q-70 0 -115 -19.5t-76 -44.5q-35 -28 -55 -63l-139 71q32 50 88 93q47 34 119.5 62t183.5 28q127 0 211 -44t133 -116t69.5 -164t20.5 -186q0 -111 -30.5 -199t-88 -151.5t-136.5 -97.5t-175 -34q-98 0 -174 35t-127 97.5 t-78 148.5t-27 188v30t2 30h678zM516 102q127 0 198.5 71t71.5 206h-516v-17q0 -47 14.5 -93t45 -82.5t77 -60.5t109.5 -24z" />
<glyph unicode="&#x280;" horiz-adv-x="1079" d="M905 664q0 -56 -18.5 -100t-45 -77.5t-61.5 -56t-71 -35.5l274 -395h-156l-235 360h-252v-360h-156v942h348q183 0 280 -73.5t93 -204.5zM340 473h221q53 0 88 12.5t57.5 36t30.5 54t8 67.5q0 86 -49 135t-155 49h-201v-354z" />
<glyph unicode="&#x2c6;" horiz-adv-x="512" d="M-123 1161l326 328h127l325 -328h-168l-221 238l-221 -238h-168z" />
<glyph unicode="&#x2c7;" horiz-adv-x="512" d="M647 1489l-325 -328h-129l-324 328h166l223 -238l221 238h168z" />
<glyph unicode="&#x2d8;" horiz-adv-x="512" d="M256 1274q94 0 144.5 61.5t50.5 151.5h139q0 -70 -21.5 -129.5t-63.5 -103.5t-104.5 -68.5t-144.5 -24.5q-166 0 -250 91t-84 235h137q0 -90 53.5 -151.5t143.5 -61.5z" />
<glyph unicode="&#x2d9;" horiz-adv-x="512" d="M371 1284q0 -55 -35 -90q-39 -33 -82 -33q-41 0 -78 33q-35 33 -35 90t35 86q33 31 78 31t82 -31q35 -31 35 -86z" />
<glyph unicode="&#x2da;" horiz-adv-x="512" d="M16 1395q0 98 64.5 165.5t175.5 67.5q53 0 97 -18.5t76 -50t49.5 -73.5t17.5 -91t-17.5 -92t-49.5 -74t-76 -49.5t-97 -18.5q-111 0 -175.5 67.5t-64.5 166.5zM119 1395q0 -60 39 -101t98 -41q57 0 97 41t40 101q0 57 -40 99t-97 42q-59 0 -98 -42t-39 -99z" />
<glyph unicode="&#x2db;" horiz-adv-x="512" d="M387 18q-240 -116 -240 -227q0 -102 89 -102q59 0 110 43l51 -76q-78 -64 -166 -64q-211 0 -211 181q0 121 187 227q31 20 63 35z" />
<glyph unicode="&#x2dc;" horiz-adv-x="512" d="M113 1394q40 0 76 -15.5t68.5 -34.5t61 -34.5t54.5 -15.5q17 0 28 9t17.5 23t10.5 32.5t7 37.5l113 -43q4 -30 -4 -63.5t-28.5 -61.5t-52.5 -46.5t-75 -18.5q-41 0 -76.5 15.5t-67 34.5t-60 34.5t-55.5 15.5q-15 0 -25.5 -8.5t-17.5 -22.5t-12 -32.5t-9 -38.5l-112 43 q-2 40 9.5 75t33 60.5t51.5 40t65 14.5z" />
<glyph unicode="&#x2dd;" horiz-adv-x="512" d="M315 1554l81 -77l-274 -318l-82 78zM646 1554l82 -77l-274 -318l-82 78z" />
<glyph unicode="&#x300;" horiz-adv-x="2" d="M-368 1243l-84 -84l-297 299l84 84z" />
<glyph unicode="&#x301;" horiz-adv-x="2" d="M-329 1542l84 -84l-297 -299l-84 84z" />
<glyph unicode="&#x302;" horiz-adv-x="2" d="M-922 1161l326 328h127l325 -328h-168l-221 238l-221 -238h-168z" />
<glyph unicode="&#x303;" horiz-adv-x="2" d="M-686 1394q40 0 76 -15.5t68.5 -34.5t61 -34.5t54.5 -15.5q17 0 28 9t17.5 23t10.5 32.5t7 37.5l113 -43q4 -30 -4 -63.5t-28.5 -61.5t-52.5 -46.5t-75 -18.5q-41 0 -76.5 15.5t-67 34.5t-60 34.5t-55.5 15.5q-15 0 -25.5 -8.5t-17.5 -22.5t-12 -32.5t-9 -38.5l-112 43 q-2 40 9.5 75t33 60.5t51.5 40t65 14.5z" />
<glyph unicode="&#x304;" horiz-adv-x="2" d="M-850 1274h614v-113h-614v113z" />
<glyph unicode="&#x306;" horiz-adv-x="2" d="M-543 1274q94 0 144.5 61.5t50.5 151.5h139q0 -70 -21.5 -129.5t-63.5 -103.5t-104.5 -68.5t-144.5 -24.5q-166 0 -250 91t-84 235h137q0 -90 53.5 -151.5t143.5 -61.5z" />
<glyph unicode="&#x307;" horiz-adv-x="2" d="M-428 1284q0 -55 -35 -90q-39 -33 -82 -33q-41 0 -78 33q-35 33 -35 90t35 86q33 31 78 31t82 -31q35 -31 35 -86z" />
<glyph unicode="&#x308;" horiz-adv-x="2" d="M-633 1274q0 -49 -33 -82q-35 -31 -82 -31q-49 0 -82 31q-30 31 -30 82q0 53 30 84q35 28 82 28t82 -28q33 -33 33 -84zM-221 1274q0 -49 -33 -82q-35 -31 -80 -31q-51 0 -84 31q-31 31 -31 82q0 53 31 84q35 28 84 28q45 0 80 -28q33 -33 33 -84z" />
<glyph unicode="&#x30a;" horiz-adv-x="2" d="M-783 1395q0 98 64.5 165.5t175.5 67.5q53 0 97 -18.5t76 -50t49.5 -73.5t17.5 -91t-17.5 -92t-49.5 -74t-76 -49.5t-97 -18.5q-111 0 -175.5 67.5t-64.5 166.5zM-680 1395q0 -60 39 -101t98 -41q57 0 97 41t40 101q0 57 -40 99t-97 42q-59 0 -98 -42t-39 -99z" />
<glyph unicode="&#x30b;" horiz-adv-x="2" d="M-449 1554l81 -77l-274 -318l-82 78zM-118 1554l82 -77l-274 -318l-82 78z" />
<glyph unicode="&#x30c;" horiz-adv-x="2" d="M-152 1489l-325 -328h-129l-324 328h166l223 -238l221 238h168z" />
<glyph unicode="&#x312;" horiz-adv-x="2" d="M-429.989 1461.97l-36.998 -308.981l-148.991 21.999l74.9961 298.981z" />
<glyph unicode="&#x313;" horiz-adv-x="2" d="M-602 1165l37 309l149 -22l-75 -299z" />
<glyph unicode="&#x323;" horiz-adv-x="0" d="M-448 -317q0 -58 -35 -90.5t-82 -32.5q-43 0 -78 32.5t-35 90.5q0 53 35 84.5t78 31.5q47 0 82 -31.5t35 -84.5z" />
<glyph unicode="&#x326;" horiz-adv-x="2" d="M-668 -510l37 309l149 -22l-75 -299z" />
<glyph unicode="&#x327;" horiz-adv-x="2" d="M-559 35q35 -17 64 -35q145 -90 145 -207q0 -201 -235 -201q-103 0 -172 64l51 76q57 -43 127 -43q102 0 102 114q0 121 -199 215z" />
<glyph unicode="&#x328;" horiz-adv-x="2" d="M-383 18q-240 -116 -240 -227q0 -102 89 -102q59 0 110 43l51 -76q-78 -64 -166 -64q-211 0 -211 181q0 121 187 227q31 20 63 35z" />
<glyph unicode="&#x3c0;" horiz-adv-x="1161" d="M1079 942v-129h-149v-813h-156v813h-387v-813h-156v813h-149v129h997z" />
<glyph unicode="&#x1e0c;" horiz-adv-x="1348" d="M184 0v1333h445q289 0 447.5 -172t158.5 -495q0 -320 -158.5 -493t-447.5 -173h-445zM631 135q219 0 327.5 136.5t108.5 394.5q0 260 -108.5 396t-327.5 136h-285v-1063h285zM759 -317q0 -58 -35 -90.5t-82 -32.5q-43 0 -78 32.5t-35 90.5q0 53 35 84.5t78 31.5 q47 0 82 -31.5t35 -84.5z" />
<glyph unicode="&#x1e0d;" horiz-adv-x="1186" d="M260 471q0 -182 86 -274.5t215 -92.5t213 92.5t84 274.5t-84 275.5t-213 93.5t-215 -93.5t-86 -275.5zM1001 1456v-1263q0 -35 3.5 -91.5t7.5 -101.5h-142q-2 10 -4 29.5t-3 42t-3 45t-2 41.5h-10q-21 -35 -53.5 -67t-74.5 -58.5t-92 -42t-104 -15.5q-90 0 -167.5 35 t-134 99.5t-89.5 154.5t-33 201q0 110 34 203.5t92.5 160t138 103.5t172.5 37q51 0 98 -14.5t87 -39t70.5 -54.5t49.5 -60h10q-4 28 -5 62t-1 55v538h155zM647 -317q0 -58 -35 -90.5t-82 -32.5q-43 0 -78 32.5t-35 90.5q0 53 35 84.5t78 31.5q47 0 82 -31.5t35 -84.5z" />
<glyph unicode="&#x1e10;" horiz-adv-x="1348" d="M184 0v1333h445q289 0 447.5 -172t158.5 -495q0 -320 -158.5 -493t-447.5 -173h-445zM631 135q219 0 327.5 136.5t108.5 394.5q0 260 -108.5 396t-327.5 136h-285v-1063h285zM532 -510l37 309l149 -22l-75 -299z" />
<glyph unicode="&#x1e11;" horiz-adv-x="1186" d="M260 471q0 -182 86 -274.5t215 -92.5t213 92.5t84 274.5t-84 275.5t-213 93.5t-215 -93.5t-86 -275.5zM1001 1456v-1263q0 -35 3.5 -91.5t7.5 -101.5h-142q-2 10 -4 29.5t-3 42t-3 45t-2 41.5h-10q-21 -35 -53.5 -67t-74.5 -58.5t-92 -42t-104 -15.5q-90 0 -167.5 35 t-134 99.5t-89.5 154.5t-33 201q0 110 34 203.5t92.5 160t138 103.5t172.5 37q51 0 98 -14.5t87 -39t70.5 -54.5t49.5 -60h10q-4 28 -5 62t-1 55v538h155zM444 -510l37 309l149 -22l-75 -299z" />
<glyph unicode="&#x1e16;" horiz-adv-x="1137" d="M346 1198v-459h582v-135h-582v-469h668v-135h-830v1333h803v-135h-641zM784 2108l84 -84l-297 -299l-84 84zM292 1643h614v-113h-614v113z" />
<glyph unicode="&#x1e17;" horiz-adv-x="1040" d="M256 453q4 -181 86 -266t207 -85q65 0 109 19.5t73 44.5q31 27 49 63l140 -71q-29 -54 -80 -92q-43 -35 -114 -63t-175 -28q-117 0 -202 39t-140 106.5t-82 158t-27 190.5q0 117 33 210t92.5 156.5t141.5 97.5t178 34q98 0 172 -34t122 -95.5t72.5 -144.5t24.5 -181 v-29.5t-2 -29.5h-678zM537 840q-117 0 -189 -74t-84 -188h506v16q0 43 -13.5 87t-41 80t-71.5 57.5t-107 21.5zM720 1717l84 -84l-297 -299l-84 84zM228 1252h614v-113h-614v113z" />
<glyph unicode="&#x1e24;" horiz-adv-x="1403" d="M1219 1333v-1333h-162v602h-711v-602h-162v1333h162v-596h711v596h162zM828 -317q0 -58 -35 -90.5t-82 -32.5q-43 0 -78 32.5t-35 90.5q0 53 35 84.5t78 31.5q47 0 82 -31.5t35 -84.5z" />
<glyph unicode="&#x1e25;" horiz-adv-x="1133" d="M330 1456v-700q30 57 78 104q41 41 103 74t151 33q67 0 124.5 -19.5t100.5 -62.5t67.5 -108.5t24.5 -158.5v-618h-156v621q0 43 -13 82.5t-39 69.5t-65.5 48.5t-93.5 18.5q-71 0 -124.5 -32t-88 -82t-52 -110.5t-17.5 -117.5v-498h-156v1456h156zM671 -317 q0 -58 -35 -90.5t-82 -32.5q-43 0 -78 32.5t-35 90.5q0 53 35 84.5t78 31.5q47 0 82 -31.5t35 -84.5z" />
<glyph unicode="&#x1e36;" horiz-adv-x="1034" d="M346 1333v-1198h627v-135h-789v1333h162zM670 -317q0 -58 -35 -90.5t-82 -32.5q-43 0 -78 32.5t-35 90.5q0 53 35 84.5t78 31.5q47 0 82 -31.5t35 -84.5z" />
<glyph unicode="&#x1e37;" horiz-adv-x="524" d="M184 1456h156v-1456h-156v1456zM371 -317q0 -58 -35 -90.5t-82 -32.5q-43 0 -78 32.5t-35 90.5q0 53 35 84.5t78 31.5q47 0 82 -31.5t35 -84.5z" />
<glyph unicode="&#x1e38;" horiz-adv-x="1034" d="M346 1333v-1198h627v-135h-789v1333h162zM248 1665h614v-113h-614v113zM670 -317q0 -58 -35 -90.5t-82 -32.5q-43 0 -78 32.5t-35 90.5q0 53 35 84.5t78 31.5q47 0 82 -31.5t35 -84.5z" />
<glyph unicode="&#x1e39;" horiz-adv-x="524" d="M184 1333h156v-1333h-156v1333zM-47 1673h614v-113h-614v113zM372 -317q0 -58 -35 -90.5t-82 -32.5q-43 0 -78 32.5t-35 90.5q0 53 35 84.5t78 31.5q47 0 82 -31.5t35 -84.5z" />
<glyph unicode="&#x1e42;" horiz-adv-x="1614" d="M721 248l-377 880v-1128h-160v1333h238l389 -932l387 932h232v-1333h-160v1128l-377 -880h-172zM927 -317q0 -58 -35 -90.5t-82 -32.5q-43 0 -78 32.5t-35 90.5q0 53 35 84.5t78 31.5q47 0 82 -31.5t35 -84.5z" />
<glyph unicode="&#x1e43;" horiz-adv-x="1710" d="M948 0h-155v621q0 43 -11.5 82.5t-36 69.5t-61.5 48.5t-86 18.5q-66 0 -114 -31t-79.5 -79t-48 -107.5t-16.5 -114.5v-508h-156v748q0 30 -3 86.5t-7 107.5h152q2 -12 3 -35.5t2 -49.5t1 -53.5v-47.5h8q18 39 47 76.5t68 67.5t85 48.5t97 18.5q92 0 147.5 -37t87.5 -82 q37 -53 56 -119h8q14 45 44 88t71 76t93 53.5t111 20.5q95 0 153 -35t91 -86t45 -110.5t12 -106.5v-629h-155v621q0 32 -9.5 71t-32 72t-59 54.5t-94.5 21.5q-57 0 -105 -28t-82 -74t-52.5 -105.5t-18.5 -122.5v-510zM983 -317q0 -58 -35 -90.5t-82 -32.5q-43 0 -78 32.5 t-35 90.5q0 53 35 84.5t78 31.5q47 0 82 -31.5t35 -84.5z" />
<glyph unicode="&#x1e44;" horiz-adv-x="1374" d="M340 0h-156v1333h219l631 -1147v1147h156v-1333h-221l-629 1143v-1143zM825 1675q0 -55 -35 -90q-39 -33 -82 -33q-41 0 -78 33q-35 33 -35 90t35 86q33 31 78 31t82 -31q35 -31 35 -86z" />
<glyph unicode="&#x1e45;" horiz-adv-x="1143" d="M834 621q0 43 -13.5 82.5t-39 69.5t-65.5 48.5t-95 18.5q-70 0 -122.5 -31t-88 -80t-53 -110.5t-17.5 -122.5v-496h-156v748q0 30 -3 86.5t-7 107.5h152q2 -12 3 -35.5t2 -49.5t1 -53.5v-47.5h10q16 39 47 76.5t72 67.5t91 48.5t110 18.5q69 0 128.5 -19.5t103.5 -60.5 t69.5 -106.5t25.5 -157.5v-623h-155v621zM686 1284q0 -55 -35 -90q-39 -33 -82 -33q-41 0 -78 33q-35 33 -35 90t35 86q33 31 78 31t82 -31q35 -31 35 -86z" />
<glyph unicode="&#x1e46;" horiz-adv-x="1374" d="M340 0h-156v1333h219l631 -1147v1147h156v-1333h-221l-629 1143v-1143zM790 -317q0 -58 -35 -90.5t-82 -32.5q-43 0 -78 32.5t-35 90.5q0 53 35 84.5t78 31.5q47 0 82 -31.5t35 -84.5z" />
<glyph unicode="&#x1e47;" horiz-adv-x="1143" d="M834 621q0 43 -13.5 82.5t-39 69.5t-65.5 48.5t-95 18.5q-70 0 -122.5 -31t-88 -80t-53 -110.5t-17.5 -122.5v-496h-156v748q0 30 -3 86.5t-7 107.5h152q2 -12 3 -35.5t2 -49.5t1 -53.5v-47.5h10q16 39 47 76.5t72 67.5t91 48.5t110 18.5q69 0 128.5 -19.5t103.5 -60.5 t69.5 -106.5t25.5 -157.5v-623h-155v621zM686 -317q0 -58 -35 -90.5t-82 -32.5q-43 0 -78 32.5t-35 90.5q0 53 35 84.5t78 31.5q47 0 82 -31.5t35 -84.5z" />
<glyph unicode="&#x1e52;" horiz-adv-x="1444" d="M1321 668q0 -162 -45 -291t-125 -218t-189.5 -136.5t-238.5 -47.5t-239.5 47.5t-190.5 136.5t-125 218t-45 291q0 163 45 291t125 217.5t190.5 135.5t239.5 46t238.5 -46t189.5 -135.5t125 -217.5t45 -291zM1153 668q0 135 -30.5 239.5t-88 174t-136.5 105.5t-175 36 t-175 -36t-137.5 -105.5t-90 -174t-31.5 -239.5q0 -136 31.5 -240t90 -175t137.5 -106.5t175 -35.5t175 35.5t136.5 106.5t88 175t30.5 240zM901 2108l84 -84l-297 -299l-84 84zM409 1643h614v-113h-614v113z" />
<glyph unicode="&#x1e53;" horiz-adv-x="1100" d="M999 471q0 -117 -33.5 -209t-93 -155.5t-141.5 -97.5t-180 -34t-180 34t-142.5 97.5t-94.5 155.5t-34 209t34 209t94.5 155.5t142.5 97.5t180 34t180 -34t141.5 -97.5t93 -155.5t33.5 -209zM842 471q0 182 -81 274.5t-210 92.5t-211 -92.5t-82 -274.5t82 -274.5 t211 -92.5t210 92.5t81 274.5zM740 1717l84 -84l-297 -299l-84 84zM248 1252h614v-113h-614v113z" />
<glyph unicode="&#x1e5a;" horiz-adv-x="1198" d="M346 659h250q88 0 146.5 19.5t92 56.5t47 88t13.5 115q0 121 -61.5 190.5t-215.5 69.5h-272v-539zM901 0l-252 532h-303v-532h-162v1333h416q227 0 344 -102.5t117 -290.5q0 -78 -25.5 -141.5t-65.5 -111.5t-86 -77.5t-87 -42.5l288 -567h-184zM690 -317q0 -58 -35 -90.5 t-82 -32.5q-43 0 -78 32.5t-35 90.5q0 53 35 84.5t78 31.5q47 0 82 -31.5t35 -84.5z" />
<glyph unicode="&#x1e5b;" horiz-adv-x="700" d="M645 791q-20 4 -49 4q-119 0 -187.5 -87t-68.5 -235v-473h-156v768q0 35 -3 86t-7 88h148q4 -49 7 -105.5t3 -86.5h10q10 41 39 78.5t66.5 67.5t80.5 48.5t84 18.5q11 0 25 -1t18 -4zM371 -317q0 -58 -35 -90.5t-82 -32.5q-43 0 -78 32.5t-35 90.5q0 53 35 84.5t78 31.5 q47 0 82 -31.5t35 -84.5z" />
<glyph unicode="&#x1e5c;" horiz-adv-x="1198" d="M346 659h250q88 0 146.5 19.5t92 56.5t47 88t13.5 115q0 121 -61.5 190.5t-215.5 69.5h-272v-539zM901 0l-252 532h-303v-532h-162v1333h416q227 0 344 -102.5t117 -290.5q0 -78 -25.5 -141.5t-65.5 -111.5t-86 -77.5t-87 -42.5l288 -567h-184zM275 1665h614v-113h-614 v113zM690 -317q0 -58 -35 -90.5t-82 -32.5q-43 0 -78 32.5t-35 90.5q0 53 35 84.5t78 31.5q47 0 82 -31.5t35 -84.5z" />
<glyph unicode="&#x1e5d;" horiz-adv-x="700" d="M645 791q-20 4 -49 4q-119 0 -187.5 -87t-68.5 -235v-473h-156v768q0 35 -3 86t-7 88h148q4 -49 7 -105.5t3 -86.5h10q10 41 39 78.5t66.5 67.5t80.5 48.5t84 18.5q11 0 25 -1t18 -4zM92 1274h614v-113h-614v113zM371 -317q0 -58 -35 -90.5t-82 -32.5q-43 0 -78 32.5 t-35 90.5q0 53 35 84.5t78 31.5q47 0 82 -31.5t35 -84.5z" />
<glyph unicode="&#x1e6c;" horiz-adv-x="1120" d="M61 1333h998v-137h-418v-1196h-162v1196h-418v137zM670 -317q0 -58 -35 -90.5t-82 -32.5q-43 0 -78 32.5t-35 90.5q0 53 35 84.5t78 31.5q47 0 82 -31.5t35 -84.5z" />
<glyph unicode="&#x1e6d;" horiz-adv-x="762" d="M221 942v197l156 20v-217h282v-129h-282v-553q0 -33 5 -60.5t19.5 -49t41 -34t67.5 -12.5q47 0 72.5 8.5t50.5 24.5l26 -123q-30 -16 -71 -28.5t-94 -12.5q-119 0 -196 61.5t-77 203.5v575h-149v129h149zM491 -317q0 -58 -35 -90.5t-82 -32.5q-43 0 -78 32.5t-35 90.5 q0 53 35 84.5t78 31.5q47 0 82 -31.5t35 -84.5z" />
<glyph unicode="&#x1e80;" horiz-adv-x="1845" d="M1028 1333l293 -1179l281 1179h167l-337 -1333h-222l-295 1194l-288 -1194h-221l-340 1333h170l280 -1179l293 1179h219zM1004 1634l-84 -84l-297 299l84 84z" />
<glyph unicode="&#x1e81;" horiz-adv-x="1466" d="M840 942l204 -819l187 819h153l-229 -942h-217l-209 819l-201 -819h-215l-231 942h158l182 -819l205 819h213zM822 1243l-84 -84l-297 299l84 84z" />
<glyph unicode="&#x1e82;" horiz-adv-x="1845" d="M1028 1333l293 -1179l281 1179h167l-337 -1333h-222l-295 1194l-288 -1194h-221l-340 1333h170l280 -1179l293 1179h219zM1121 1933l84 -84l-297 -299l-84 84z" />
<glyph unicode="&#x1e83;" horiz-adv-x="1466" d="M840 942l204 -819l187 819h153l-229 -942h-217l-209 819l-201 -819h-215l-231 942h158l182 -819l205 819h213zM942 1542l84 -84l-297 -299l-84 84z" />
<glyph unicode="&#x1e84;" horiz-adv-x="1845" d="M1028 1333l293 -1179l281 1179h167l-337 -1333h-222l-295 1194l-288 -1194h-221l-340 1333h170l280 -1179l293 1179h219zM825 1665q0 -49 -33 -82q-35 -31 -82 -31q-49 0 -82 31q-30 31 -30 82q0 53 30 84q35 28 82 28t82 -28q33 -33 33 -84zM1237 1665q0 -49 -33 -82 q-35 -31 -80 -31q-51 0 -84 31q-31 31 -31 82q0 53 31 84q35 28 84 28q45 0 80 -28q33 -33 33 -84z" />
<glyph unicode="&#x1e85;" horiz-adv-x="1466" d="M840 942l204 -819l187 819h153l-229 -942h-217l-209 819l-201 -819h-215l-231 942h158l182 -819l205 819h213zM641 1274q0 -49 -33 -82q-35 -31 -82 -31q-49 0 -82 31q-30 31 -30 82q0 53 30 84q35 28 82 28t82 -28q33 -33 33 -84zM1053 1274q0 -49 -33 -82 q-35 -31 -80 -31q-51 0 -84 31q-31 31 -31 82q0 53 31 84q35 28 84 28q45 0 80 -28q33 -33 33 -84z" />
<glyph unicode="&#x1e9e;" horiz-adv-x="1329" d="M174 856q0 223 120 350t378 127h452v-104l-61 -80l-293 -377v-8q94 0 179 -25.5t148.5 -75t101.5 -120t38 -162.5q0 -76 -25.5 -148.5t-80 -130t-140.5 -92.5t-205 -35q-67 0 -126.5 10.5t-102.5 24.5v152q37 -21 102.5 -37t133.5 -16q129 0 205.5 69.5t76.5 190.5 q0 143 -99 206.5t-306 63.5q-13 0 -24 -1t-21 -3q-11 -2 -21 -2l-20 86l67 90l299 391h-278q-74 0 -134.5 -20.5t-105.5 -63.5t-69.5 -107.5t-24.5 -152.5v-856h-164v856z" />
<glyph unicode="&#x1ef2;" horiz-adv-x="1092" d="M20 1333h175l348 -690l354 690h174l-448 -821v-512h-162v512zM658 1634l-84 -84l-297 299l84 84z" />
<glyph unicode="&#x1ef3;" horiz-adv-x="969" d="M489 -369q-30 -90 -97.5 -129t-141.5 -39q-47 0 -83 8.5t-63 20.5l27 125q27 -14 54.5 -19.5t52.5 -5.5q49 0 77.5 27t40.5 72l68 235l-371 1016h178l275 -803l246 803h178l-441 -1311v0zM588 1243l-84 -84l-297 299l84 84z" />
<glyph unicode="&#x2002;" horiz-adv-x="983" />
<glyph unicode="&#x2003;" horiz-adv-x="1597" />
<glyph unicode="&#x2004;" horiz-adv-x="532" />
<glyph unicode="&#x2005;" horiz-adv-x="399" />
<glyph unicode="&#x2006;" horiz-adv-x="266" />
<glyph unicode="&#x2008;" horiz-adv-x="410" />
<glyph unicode="&#x2009;" horiz-adv-x="319" />
<glyph unicode="&#x200a;" horiz-adv-x="199" />
<glyph unicode="&#x200b;" horiz-adv-x="0" />
<glyph unicode="&#x2010;" horiz-adv-x="696" d="M61 530h574v-135h-574v135z" />
<glyph unicode="&#x2011;" horiz-adv-x="696" d="M61 530h574v-135h-574v135z" />
<glyph unicode="&#x2012;" horiz-adv-x="1106" d="M20 530h1065v-135h-1065v135z" />
<glyph unicode="&#x2013;" horiz-adv-x="983" d="M20 530h943v-135h-943v135z" />
<glyph unicode="&#x2014;" horiz-adv-x="1597" d="M20 530h1557v-135h-1557v135z" />
<glyph unicode="&#x2016;" horiz-adv-x="862" d="M184 -329v1784h146v-1784h-146zM532 -329v1784h146v-1784h-146z" />
<glyph unicode="&#x2018;" horiz-adv-x="410" d="M268 879h-155v219q0 104 45 170.5t110 95.5l101 -84q-41 -16 -71 -60t-30 -122v-219z" />
<glyph unicode="&#x2019;" horiz-adv-x="410" d="M141 1333h156v-219q0 -104 -45 -170.5t-111 -95.5l-100 84q41 16 70.5 60t29.5 122v219z" />
<glyph unicode="&#x201a;" horiz-adv-x="410" d="M141 217h156v-219q0 -104 -45 -171t-111 -95l-100 84q41 16 70.5 60t29.5 122v219z" />
<glyph unicode="&#x201c;" horiz-adv-x="717" d="M268 879h-155v219q0 104 45 170.5t110 95.5l101 -84q-41 -16 -71 -60t-30 -122v-219zM575 879h-155v219q0 104 45 170.5t110 95.5l101 -84q-41 -16 -71 -60t-30 -122v-219z" />
<glyph unicode="&#x201d;" horiz-adv-x="717" d="M141 1333h156v-219q0 -104 -45 -170.5t-111 -95.5l-100 84q41 16 70.5 60t29.5 122v219zM448 1333h156v-219q0 -104 -45 -170.5t-111 -95.5l-100 84q41 16 70.5 60t29.5 122v219z" />
<glyph unicode="&#x201e;" horiz-adv-x="717" d="M141 217h156v-219q0 -104 -45 -171t-111 -95l-100 84q41 16 70.5 60t29.5 122v219zM448 217h156v-219q0 -104 -45 -171t-111 -95l-100 84q41 16 70.5 60t29.5 122v219z" />
<glyph unicode="&#x2020;" horiz-adv-x="819" d="M41 994h295v340h145v-340h297v-127h-297v-989h-145v989h-295v127z" />
<glyph unicode="&#x2021;" horiz-adv-x="983" d="M123 993h295v340h145v-340h297v-127h-297v-525h297v-127h-297v-337h-145v337h-295v127h295v525h-295v127z" />
<glyph unicode="&#x2022;" horiz-adv-x="819" d="M635 537q0 -113 -66.5 -177.5t-158.5 -64.5q-41 0 -81 16.5t-73 48t-52.5 76.5t-19.5 101q0 49 19.5 91t52.5 71.5t73 46t81 16.5q45 0 86 -16.5t71.5 -46t49 -71.5t18.5 -91z" />
<glyph unicode="&#x2026;" horiz-adv-x="1843" d="M1622 109q0 -58 -34.5 -90.5t-81.5 -32.5q-43 0 -78 32.5t-35 90.5q0 53 35 84.5t78 31.5q47 0 81.5 -31.5t34.5 -84.5zM454 109q0 -58 -34.5 -90.5t-81.5 -32.5q-43 0 -78 32.5t-35 90.5q0 53 35 84.5t78 31.5q47 0 81.5 -31.5t34.5 -84.5zM1028 109q0 -58 -34.5 -90.5 t-81.5 -32.5q-43 0 -78 32.5t-35 90.5q0 53 35 84.5t78 31.5q47 0 81.5 -31.5t34.5 -84.5z" />
<glyph unicode="&#x2030;" horiz-adv-x="2455" d="M510 0h-131l752 1333h131zM700 975q0 -172 -81.5 -273.5t-225.5 -101.5q-147 0 -231 101.5t-84 273.5q0 170 84 270.5t231 100.5q144 0 225.5 -100.5t81.5 -270.5zM573 973q0 123 -49 197t-135 74t-136 -74t-50 -197t50 -195.5t136 -72.5t135 72.5t49 195.5zM1606 358 q0 -172 -81.5 -273.5t-225.5 -101.5q-147 0 -231 101.5t-84 273.5q0 170 84 270.5t231 100.5q144 0 225.5 -100.5t81.5 -270.5zM1479 356q0 123 -49 197t-135 74t-136 -74t-50 -197t50 -195.5t136 -72.5t135 72.5t49 195.5zM2377 358q0 -172 -81.5 -273.5t-225.5 -101.5 q-147 0 -231 101.5t-84 273.5q0 170 84 270.5t231 100.5q144 0 225.5 -100.5t81.5 -270.5zM2250 356q0 123 -49 197t-135 74t-136 -74t-50 -197t50 -195.5t136 -72.5t135 72.5t49 195.5z" />
<glyph unicode="&#x2032;" horiz-adv-x="410" d="M195 1333h143l-123 -522h-143z" />
<glyph unicode="&#x2033;" horiz-adv-x="676" d="M195 1333h143l-123 -522h-143zM502 1333h143l-123 -522h-143z" />
<glyph unicode="&#x2039;" horiz-adv-x="573" d="M311 74l-250 368l250 369h144l-226 -369l226 -368h-144z" />
<glyph unicode="&#x203a;" horiz-adv-x="573" d="M262 811l250 -369l-250 -368h-143l225 368l-225 369h143z" />
<glyph unicode="&#x2042;" horiz-adv-x="1810" d="M838 1395h137l-10 -297l6 -6l281 102l43 -131l-287 -82l-2 -6l182 -234l-110 -82l-168 248l-6 -2l-166 -246l-113 80l184 238l-4 4l-284 82l41 131l280 -102l6 6zM1292 711h137l-10 -297l6 -6l281 102l43 -131l-287 -82l-2 -6l182 -234l-110 -82l-168 248l-6 -2 l-166 -246l-113 80l184 238l-4 4l-284 82l41 131l280 -102l6 6zM379 711h137l-10 -297l6 -6l281 102l43 -131l-287 -82l-2 -6l182 -234l-110 -82l-168 248l-6 -2l-166 -246l-113 80l184 238l-4 4l-284 82l41 131l280 -102l6 6z" />
<glyph unicode="&#x2044;" horiz-adv-x="83" d="M-269 0h-131l752 1333h131z" />
<glyph unicode="&#x2070;" horiz-adv-x="778" d="M700 1335q0 -172 -81.5 -273.5t-225.5 -101.5q-147 0 -231 101.5t-84 273.5q0 170 84 270.5t231 100.5q144 0 225.5 -100.5t81.5 -270.5zM573 1333q0 123 -49 197t-135 74t-136 -74t-50 -197t50 -195.5t136 -72.5t135 72.5t49 195.5z" />
<glyph unicode="&#x2074;" horiz-adv-x="717" d="M360 1694h187v-480h135v-98h-135v-139h-113v139h-366l-37 72l35 53zM434 1608l-252 -394h252v394z" />
<glyph unicode="&#x2075;" horiz-adv-x="717" d="M242 1415q22 10 59 16.5t74 6.5q49 0 95 -15.5t82 -44t57.5 -72.5t21.5 -102q0 -112 -82 -176.5t-207 -64.5q-100 0 -164.5 33.5t-95.5 74.5l82 88q20 -41 65 -73.5t111 -32.5q86 0 126 42t40 103q0 68 -41 109t-115 41q-45 0 -83 -17.5t-60 -36.5l-82 43l47 359h432v-97 h-338z" />
<glyph unicode="&#x2076;" horiz-adv-x="717" d="M362 960q-75 0 -129.5 27t-88 73t-50 107.5t-16.5 134.5q0 64 13 134.5t48 131t98.5 99.5t161.5 39q99 0 157 -38t81 -75l-94 -63q-11 28 -45.5 57t-104.5 29q-57 0 -94 -25.5t-59.5 -65.5t-31.5 -87t-9 -90h6q22 40 69.5 67t122.5 27q62 0 109 -19.5t78.5 -52.5t48 -75 t16.5 -87q0 -39 -15.5 -83t-49 -80.5t-89 -60.5t-133.5 -24zM524 1198q0 68 -44 110t-115 42q-31 0 -58.5 -10.5t-50.5 -30t-37 -46t-14 -59.5q0 -57 40 -105t117 -48q66 0 114 38.5t48 108.5z" />
<glyph unicode="&#x2077;" horiz-adv-x="655" d="M612 1696v-82q-59 -66 -104 -143.5t-77 -160.5t-50.5 -169t-24.5 -166h-120q8 184 70.5 337.5t174.5 282.5h-434v101h565z" />
<glyph unicode="&#x2078;" horiz-adv-x="717" d="M483 1358q62 -21 114 -66t52 -117q0 -104 -83 -159.5t-208 -55.5q-61 0 -114.5 14.5t-93 41t-62 66.5t-22.5 89q0 39 14 69t36.5 53.5t52.5 39t58 25.5q-49 20 -86 58t-37 99q0 76 70 133.5t184 57.5q52 0 98 -13.5t80.5 -38t55 -59t20.5 -75.5q0 -68 -40 -106t-89 -56z M223 1507q0 -47 38 -77.5t97 -30.5q56 0 96 28.5t40 79.5t-39 80t-97 29q-59 0 -97 -30t-38 -79zM188 1178q0 -62 47.5 -94.5t120.5 -32.5q72 0 121 31.5t49 95.5q0 59 -49 95t-121 36q-71 0 -119.5 -35t-48.5 -96z" />
<glyph unicode="&#x2079;" horiz-adv-x="717" d="M354 1706q76 0 130.5 -26.5t88 -72.5t50 -107.5t16.5 -135.5q0 -64 -13.5 -134.5t-48 -131t-98 -99.5t-162.5 -39q-98 0 -156.5 38t-80.5 75l94 64q10 -29 45 -57.5t105 -28.5q57 0 94 25.5t59.5 65.5t31.5 87t9 90h-6q-23 -41 -70 -67.5t-123 -26.5q-61 0 -108 19.5 t-79 52t-48 74.5t-16 87q0 39 15 83t49 81t89 60.5t133 23.5zM193 1468q0 -67 44 -109t115 -42q31 0 58.5 10t50 29.5t37 46t14.5 59.5q0 58 -40 106t-118 48q-65 0 -113 -39t-48 -109z" />
<glyph unicode="&#x207a;" horiz-adv-x="840" d="M98 1383h264v267h115v-267h264v-102h-264v-266h-115v266h-264v102z" />
<glyph unicode="&#x207b;" horiz-adv-x="840" d="M98 1383h643v-102h-643v102z" />
<glyph unicode="&#x207c;" horiz-adv-x="840" d="M98 1486h643v-103h-643v103zM98 1281h643v-102h-643v102z" />
<glyph unicode="&#x207d;" horiz-adv-x="410" d="M102 1330q0 86 17.5 152.5t40.5 113.5q26 56 59 95h119q-29 -48 -51 -105q-21 -49 -36 -114.5t-15 -141.5t15 -140.5t36 -115.5q22 -57 51 -100h-119q-33 37 -59 92q-23 47 -40.5 113.5t-17.5 150.5z" />
<glyph unicode="&#x207e;" horiz-adv-x="410" d="M307 1334q0 -86 -17.5 -152.5t-39.5 -113.5q-27 -55 -60 -94h-118q28 47 51 104q20 49 35.5 114.5t15.5 141.5t-15.5 140.5t-35.5 115.5q-23 58 -51 101h118q33 -37 60 -93q22 -47 39.5 -113.5t17.5 -150.5z" />
<glyph unicode="&#x2080;" horiz-adv-x="778" d="M700 8q0 -172 -81.5 -273.5t-225.5 -101.5q-147 0 -231 101.5t-84 273.5q0 170 84 270.5t231 100.5q144 0 225.5 -100.5t81.5 -270.5zM573 6q0 123 -49 197t-135 74t-136 -74t-50 -197t50 -195.5t136 -72.5t135 72.5t49 195.5z" />
<glyph unicode="&#x2081;" horiz-adv-x="717" d="M84 -252h221v461q-22 -14 -74.5 -23.5t-117.5 -9.5l-13 98q52 0 86.5 7.5t66.5 19.5t57.5 29.5t37.5 36.5h78v-619h211v-98h-553v98z" />
<glyph unicode="&#x2082;" horiz-adv-x="717" d="M109 117q-11 37 -11 63q0 43 19.5 79t52.5 62.5t78 42t96 15.5t97 -14.5t82 -41t56.5 -67.5t20.5 -92q0 -70 -25.5 -126t-68.5 -105.5t-100.5 -91.5t-120.5 -85h350v-106h-545v78q74 45 143.5 97t124 107.5t88 110.5t33.5 107q0 47 -31.5 88t-107.5 41q-57 0 -94 -34 t-37 -87q0 -31 10 -76z" />
<glyph unicode="&#x2083;" horiz-adv-x="717" d="M82 262q29 51 95.5 84t162.5 33q121 0 181.5 -53.5t60.5 -120.5q0 -49 -21.5 -80t-46.5 -47q-31 -21 -68 -29q50 -10 89 -33q34 -20 62 -58t28 -103q0 -56 -27 -98t-68 -69.5t-90 -41t-92 -13.5q-43 -2 -94 8.5t-85 27t-64.5 37t-43.5 40.5l82 94q17 -37 67 -74.5 t120 -37.5q32 0 63 7t55.5 21.5t40 38t15.5 58.5q0 59 -36 90.5t-128 31.5q-14 0 -35.5 -2t-42.5 -4q-24 -4 -51 -6l4 111q10 -2 42 -3t42 -1q66 0 114 24.5t48 96.5q0 38 -34 67t-110 29q-73 0 -113 -30t-59 -77z" />
<glyph unicode="&#x2084;" horiz-adv-x="717" d="M360 367h187v-480h135v-98h-135v-139h-113v139h-366l-37 72l35 53zM434 281l-252 -394h252v394z" />
<glyph unicode="&#x2085;" horiz-adv-x="717" d="M242 88q22 10 59 16.5t74 6.5q49 0 95 -15.5t82 -44t57.5 -72.5t21.5 -102q0 -112 -82 -176.5t-207 -64.5q-100 0 -164.5 33.5t-95.5 74.5l82 88q20 -41 65 -73.5t111 -32.5q86 0 126 42t40 103q0 68 -41 109t-115 41q-45 0 -83 -17.5t-60 -36.5l-82 43l47 359h432v-97 h-338z" />
<glyph unicode="&#x2086;" horiz-adv-x="717" d="M362 -367q-75 0 -129.5 27t-88 73t-50 107.5t-16.5 134.5q0 64 13 134.5t48 131t98.5 99.5t161.5 39q99 0 157 -38t81 -75l-94 -63q-11 28 -45.5 57t-104.5 29q-57 0 -94 -25.5t-59.5 -65.5t-31.5 -87t-9 -90h6q22 40 69.5 67t122.5 27q62 0 109 -19.5t78.5 -52.5t48 -75 t16.5 -87q0 -39 -15.5 -83t-49 -80.5t-89 -60.5t-133.5 -24zM524 -129q0 68 -44 110t-115 42q-31 0 -58.5 -10.5t-50.5 -30t-37 -46t-14 -59.5q0 -57 40 -105t117 -48q66 0 114 38.5t48 108.5z" />
<glyph unicode="&#x2087;" horiz-adv-x="655" d="M612 369v-82q-59 -66 -104 -143.5t-77 -160.5t-50.5 -169t-24.5 -166h-120q8 184 70.5 337.5t174.5 282.5h-434v101h565z" />
<glyph unicode="&#x2088;" horiz-adv-x="717" d="M483 31q62 -21 114 -66t52 -117q0 -104 -83 -159.5t-208 -55.5q-61 0 -114.5 14.5t-93 41t-62 66.5t-22.5 89q0 39 14 69t36.5 53.5t52.5 39t58 25.5q-49 20 -86 58t-37 99q0 76 70 133.5t184 57.5q52 0 98 -13.5t80.5 -38t55 -59t20.5 -75.5q0 -68 -40 -106t-89 -56z M223 180q0 -47 38 -77.5t97 -30.5q56 0 96 28.5t40 79.5t-39 80t-97 29q-59 0 -97 -30t-38 -79zM188 -149q0 -62 47.5 -94.5t120.5 -32.5q72 0 121 31.5t49 95.5q0 59 -49 95t-121 36q-71 0 -119.5 -35t-48.5 -96z" />
<glyph unicode="&#x2089;" horiz-adv-x="717" d="M354 379q76 0 130.5 -26.5t88 -72.5t50 -107.5t16.5 -135.5q0 -64 -13.5 -134.5t-48 -131t-98 -99.5t-162.5 -39q-98 0 -156.5 38t-80.5 75l94 64q10 -29 45 -57.5t105 -28.5q57 0 94 25.5t59.5 65.5t31.5 87t9 90h-6q-23 -41 -70 -67.5t-123 -26.5q-61 0 -108 19.5 t-79 52t-48 74.5t-16 87q0 39 15 83t49 81t89 60.5t133 23.5zM193 141q0 -67 44 -109t115 -42q31 0 58.5 10t50 29.5t37 46t14.5 59.5q0 58 -40 106t-118 48q-65 0 -113 -39t-48 -109z" />
<glyph unicode="&#x208a;" horiz-adv-x="840" d="M98 56h264v267h115v-267h264v-102h-264v-266h-115v266h-264v102z" />
<glyph unicode="&#x208b;" horiz-adv-x="840" d="M98 56h643v-102h-643v102z" />
<glyph unicode="&#x208c;" horiz-adv-x="840" d="M98 159h643v-103h-643v103zM98 -46h643v-102h-643v102z" />
<glyph unicode="&#x208d;" horiz-adv-x="410" d="M102 3q0 86 17.5 152.5t40.5 113.5q26 56 59 95h119q-29 -48 -51 -105q-21 -49 -36 -114.5t-15 -141.5t15 -140.5t36 -115.5q22 -57 51 -100h-119q-33 37 -59 92q-23 47 -40.5 113.5t-17.5 150.5z" />
<glyph unicode="&#x208e;" horiz-adv-x="410" d="M307 7q0 -86 -17.5 -152.5t-39.5 -113.5q-27 -55 -60 -94h-118q28 47 51 104q20 49 35.5 114.5t15.5 141.5t-15.5 140.5t-35.5 115.5q-23 58 -51 101h118q33 -37 60 -93q22 -47 39.5 -113.5t17.5 -150.5z" />
<glyph unicode="&#x2090;" horiz-adv-x="788" d="M92 229q92 150 281 150q73 0 125.5 -18.5t84 -51.5t46 -77t14.5 -97v-285q0 -53 12.5 -69.5t38.5 -16.5q21 0 37 11l6 -107q-10 -8 -26.5 -13t-46.5 -5q-52 0 -86.5 33.5t-40.5 85.5q-33 -58 -94.5 -96t-135.5 -38q-92 0 -153.5 49.5t-61.5 139.5q0 57 25.5 95t76 63.5 t138.5 35.5l186 27v78q0 69 -36 109t-113 40q-117 0 -166 -96zM334 -262q41 0 75.5 13t58.5 35.5t37 50.5t13 59v55q-24 -4 -65 -9.5t-80 -11.5q-33 -4 -61.5 -10t-49.5 -18q-41 -23 -41 -76q0 -47 36 -67.5t77 -20.5z" />
<glyph unicode="&#x2091;" horiz-adv-x="791" d="M209 -6q2 -129 61.5 -191.5t151.5 -62.5q49 0 81 15.5t52 33.5q23 18 37 47l115 -53q-23 -41 -60 -72q-35 -31 -89 -53.5t-132 -22.5q-90 0 -154.5 29t-107.5 80t-62.5 118.5t-19.5 143.5q0 86 24.5 156.5t69.5 118t107.5 73t138.5 25.5q74 0 130 -25.5t93 -72 t55.5 -108.5t18.5 -136v-21.5t-2 -21.5h-508zM414 272q-86 0 -138.5 -49t-60.5 -127h369v13q0 28 -10.5 58t-30 54.5t-51 37.5t-78.5 13z" />
<glyph unicode="&#x2092;" horiz-adv-x="848" d="M766 6q0 -86 -25.5 -155.5t-70.5 -116.5t-107.5 -73t-136.5 -26q-76 0 -138.5 26t-108.5 73t-71.5 116.5t-25.5 155.5q0 88 25.5 157.5t71.5 117t108.5 73t138.5 25.5q74 0 136.5 -25.5t107.5 -73t70.5 -117t25.5 -157.5zM637 6q0 133 -59.5 199.5t-153.5 66.5 q-92 0 -152.5 -66.5t-60.5 -199.5q0 -131 60.5 -197.5t152.5 -66.5q94 0 153.5 66.5t59.5 197.5z" />
<glyph unicode="&#x2093;" horiz-adv-x="750" d="M373 80l176 287h141l-231 -349l239 -358h-145l-180 299l-176 -299h-146l240 358l-232 349h142z" />
<glyph unicode="&#x2094;" horiz-adv-x="791" d="M582 31q0 125 -55.5 184t-159.5 59q-48 0 -85.5 -14t-54.5 -33q-22 -18 -39 -49l-114 53q20 37 59 70q33 31 95.5 54.5t140.5 23.5q94 0 158.5 -31t104.5 -82t58.5 -120.5t18.5 -145.5q0 -176 -93.5 -270.5t-242.5 -94.5q-74 0 -131.5 28t-97.5 75t-60.5 111.5 t-20.5 138.5v21t3 22h516zM377 -258q88 0 144.5 49t60.5 137h-383v-12q0 -31 11 -61.5t32.5 -55t55.5 -41t79 -16.5z" />
<glyph unicode="&#x20ac;" horiz-adv-x="1270" d="M113 868h145q27 119 84 210t134 153.5t169 94.5t193 32q116 0 202 -26.5t134 -63.5l-46 -135q-45 36 -124.5 63t-176.5 27q-157 0 -258.5 -94.5t-142.5 -260.5h623l-39 -125h-602q-2 -22 -3.5 -43.5t-1.5 -44.5v-34.5t3 -32.5h557l-41 -125h-498q41 -170 151.5 -261 t270.5 -91q110 0 190 28.5t125 69.5v-162q-55 -29 -140 -50.5t-187 -21.5q-101 0 -194 31t-170 92.5t-133 152.5t-83 212h-182l41 125h125q-2 16 -2 32.5v34.5q0 23 1 44.5t3 43.5h-168z" />
<glyph unicode="&#x2122;" horiz-adv-x="1827" d="M1543 1333v-716h-111v573l-194 -457h-117l-194 457v-573h-110v716h161l203 -475l200 475h162zM689 1239h-264v-622h-110v622h-254v94h628v-94z" />
<glyph unicode="&#x2153;" horiz-adv-x="1638" d="M510 0h-131l752 1333h131zM82 715h221v461q-22 -14 -74.5 -23.5t-117.5 -9.5l-13 98q52 0 86.5 7.5t66.5 19.5t57.5 29.5t37.5 36.5h78v-619h211v-98h-553v98zM1004 612q29 51 95.5 84t162.5 33q121 0 181.5 -53.5t60.5 -120.5q0 -49 -21.5 -80t-46.5 -47 q-31 -21 -68 -29q50 -10 89 -33q34 -20 62 -58t28 -103q0 -56 -27 -98t-68 -69.5t-90 -41t-92 -13.5q-43 -2 -94 8.5t-85 27t-64.5 37t-43.5 40.5l82 94q17 -37 67 -74.5t120 -37.5q32 0 63 7t55.5 21.5t40 38t15.5 58.5q0 59 -36 90.5t-128 31.5q-14 0 -35.5 -2t-42.5 -4 q-24 -4 -51 -6l4 111q10 -2 42 -3t42 -1q66 0 114 24.5t48 96.5q0 38 -34 67t-110 29q-73 0 -113 -30t-59 -77z" />
<glyph unicode="&#x2154;" horiz-adv-x="1638" d="M510 0h-131l752 1333h131zM1004 612q29 51 95.5 84t162.5 33q121 0 181.5 -53.5t60.5 -120.5q0 -49 -21.5 -80t-46.5 -47q-31 -21 -68 -29q50 -10 89 -33q34 -20 62 -58t28 -103q0 -56 -27 -98t-68 -69.5t-90 -41t-92 -13.5q-43 -2 -94 8.5t-85 27t-64.5 37t-43.5 40.5 l82 94q17 -37 67 -74.5t120 -37.5q32 0 63 7t55.5 21.5t40 38t15.5 58.5q0 59 -36 90.5t-128 31.5q-14 0 -35.5 -2t-42.5 -4q-24 -4 -51 -6l4 111q10 -2 42 -3t42 -1q66 0 114 24.5t48 96.5q0 38 -34 67t-110 29q-73 0 -113 -30t-59 -77zM99 1084q-11 37 -11 63 q0 43 19.5 79t52.5 62.5t78 42t96 15.5t97 -14.5t82 -41t56.5 -67.5t20.5 -92q0 -70 -25.5 -126t-68.5 -105.5t-100.5 -91.5t-120.5 -85h350v-106h-545v78q74 45 143.5 97t124 107.5t88 110.5t33.5 107q0 47 -31.5 88t-107.5 41q-57 0 -94 -34t-37 -87q0 -31 10 -76z" />
<glyph unicode="&#x2155;" horiz-adv-x="1638" d="M510 0h-131l752 1333h131zM80 715h221v461q-22 -14 -74.5 -23.5t-117.5 -9.5l-13 98q52 0 86.5 7.5t66.5 19.5t57.5 29.5t37.5 36.5h78v-619h211v-98h-553v98zM1149 438q22 10 59 16.5t74 6.5q49 0 95 -15.5t82 -44t57.5 -72.5t21.5 -102q0 -112 -82 -176.5t-207 -64.5 q-100 0 -164.5 33.5t-95.5 74.5l82 88q20 -41 65 -73.5t111 -32.5q86 0 126 42t40 103q0 68 -41 109t-115 41q-45 0 -83 -17.5t-60 -36.5l-82 43l47 359h432v-97h-338z" />
<glyph unicode="&#x2156;" horiz-adv-x="1638" d="M510 0h-131l752 1333h131zM1149 438q22 10 59 16.5t74 6.5q49 0 95 -15.5t82 -44t57.5 -72.5t21.5 -102q0 -112 -82 -176.5t-207 -64.5q-100 0 -164.5 33.5t-95.5 74.5l82 88q20 -41 65 -73.5t111 -32.5q86 0 126 42t40 103q0 68 -41 109t-115 41q-45 0 -83 -17.5 t-60 -36.5l-82 43l47 359h432v-97h-338zM99 1084q-11 37 -11 63q0 43 19.5 79t52.5 62.5t78 42t96 15.5t97 -14.5t82 -41t56.5 -67.5t20.5 -92q0 -70 -25.5 -126t-68.5 -105.5t-100.5 -91.5t-120.5 -85h350v-106h-545v78q74 45 143.5 97t124 107.5t88 110.5t33.5 107 q0 47 -31.5 88t-107.5 41q-57 0 -94 -34t-37 -87q0 -31 10 -76z" />
<glyph unicode="&#x2157;" horiz-adv-x="1638" d="M510 0h-131l752 1333h131zM1149 438q22 10 59 16.5t74 6.5q49 0 95 -15.5t82 -44t57.5 -72.5t21.5 -102q0 -112 -82 -176.5t-207 -64.5q-100 0 -164.5 33.5t-95.5 74.5l82 88q20 -41 65 -73.5t111 -32.5q86 0 126 42t40 103q0 68 -41 109t-115 41q-45 0 -83 -17.5 t-60 -36.5l-82 43l47 359h432v-97h-338zM96 1229q29 51 95.5 84t162.5 33q121 0 181.5 -53.5t60.5 -120.5q0 -49 -21.5 -80t-46.5 -47q-31 -21 -68 -29q50 -10 89 -33q34 -20 62 -58t28 -103q0 -56 -27 -98t-68 -69.5t-90 -41t-92 -13.5q-43 -2 -94 8.5t-85 27t-64.5 37 t-43.5 40.5l82 94q17 -37 67 -74.5t120 -37.5q32 0 63 7t55.5 21.5t40 38t15.5 58.5q0 59 -36 90.5t-128 31.5q-14 0 -35.5 -2t-42.5 -4q-24 -4 -51 -6l4 111q10 -2 42 -3t42 -1q66 0 114 24.5t48 96.5q0 38 -34 67t-110 29q-73 0 -113 -30t-59 -77z" />
<glyph unicode="&#x2158;" horiz-adv-x="1638" d="M510 0h-131l752 1333h131zM1149 438q22 10 59 16.5t74 6.5q49 0 95 -15.5t82 -44t57.5 -72.5t21.5 -102q0 -112 -82 -176.5t-207 -64.5q-100 0 -164.5 33.5t-95.5 74.5l82 88q20 -41 65 -73.5t111 -32.5q86 0 126 42t40 103q0 68 -41 109t-115 41q-45 0 -83 -17.5 t-60 -36.5l-82 43l47 359h432v-97h-338zM360 1334h187v-480h135v-98h-135v-139h-113v139h-366l-37 72l35 53zM434 1248l-252 -394h252v394z" />
<glyph unicode="&#x2159;" horiz-adv-x="1638" d="M510 0h-131l752 1333h131zM82 715h221v461q-22 -14 -74.5 -23.5t-117.5 -9.5l-13 98q52 0 86.5 7.5t66.5 19.5t57.5 29.5t37.5 36.5h78v-619h211v-98h-553v98zM1263 -17q-75 0 -129.5 27t-88 73t-50 107.5t-16.5 134.5q0 64 13 134.5t48 131t98.5 99.5t161.5 39 q99 0 157 -38t81 -75l-94 -63q-11 28 -45.5 57t-104.5 29q-57 0 -94 -25.5t-59.5 -65.5t-31.5 -87t-9 -90h6q22 40 69.5 67t122.5 27q62 0 109 -19.5t78.5 -52.5t48 -75t16.5 -87q0 -39 -15.5 -83t-49 -80.5t-89 -60.5t-133.5 -24zM1425 221q0 68 -44 110t-115 42 q-31 0 -58.5 -10.5t-50.5 -30t-37 -46t-14 -59.5q0 -57 40 -105t117 -48q66 0 114 38.5t48 108.5z" />
<glyph unicode="&#x215a;" horiz-adv-x="1638" d="M510 0h-131l752 1333h131zM1263 -17q-75 0 -129.5 27t-88 73t-50 107.5t-16.5 134.5q0 64 13 134.5t48 131t98.5 99.5t161.5 39q99 0 157 -38t81 -75l-94 -63q-11 28 -45.5 57t-104.5 29q-57 0 -94 -25.5t-59.5 -65.5t-31.5 -87t-9 -90h6q22 40 69.5 67t122.5 27 q62 0 109 -19.5t78.5 -52.5t48 -75t16.5 -87q0 -39 -15.5 -83t-49 -80.5t-89 -60.5t-133.5 -24zM1425 221q0 68 -44 110t-115 42q-31 0 -58.5 -10.5t-50.5 -30t-37 -46t-14 -59.5q0 -57 40 -105t117 -48q66 0 114 38.5t48 108.5zM238 1055q22 10 59 16.5t74 6.5 q49 0 95 -15.5t82 -44t57.5 -72.5t21.5 -102q0 -112 -82 -176.5t-207 -64.5q-100 0 -164.5 33.5t-95.5 74.5l82 88q20 -41 65 -73.5t111 -32.5q86 0 126 42t40 103q0 68 -41 109t-115 41q-45 0 -83 -17.5t-60 -36.5l-82 43l47 359h432v-97h-338z" />
<glyph unicode="&#x215b;" horiz-adv-x="1638" d="M510 0h-131l752 1333h131zM82 715h221v461q-22 -14 -74.5 -23.5t-117.5 -9.5l-13 98q52 0 86.5 7.5t66.5 19.5t57.5 29.5t37.5 36.5h78v-619h211v-98h-553v98zM1378 381q62 -21 114 -66t52 -117q0 -104 -83 -159.5t-208 -55.5q-61 0 -114.5 14.5t-93 41t-62 66.5 t-22.5 89q0 39 14 69t36.5 53.5t52.5 39t58 25.5q-49 20 -86 58t-37 99q0 76 70 133.5t184 57.5q52 0 98 -13.5t80.5 -38t55 -59t20.5 -75.5q0 -68 -40 -106t-89 -56zM1118 530q0 -47 38 -77.5t97 -30.5q56 0 96 28.5t40 79.5t-39 80t-97 29q-59 0 -97 -30t-38 -79z M1083 201q0 -62 47.5 -94.5t120.5 -32.5q72 0 121 31.5t49 95.5q0 59 -49 95t-121 36q-71 0 -119.5 -35t-48.5 -96z" />
<glyph unicode="&#x215c;" horiz-adv-x="1638" d="M510 0h-131l752 1333h131zM1378 381q62 -21 114 -66t52 -117q0 -104 -83 -159.5t-208 -55.5q-61 0 -114.5 14.5t-93 41t-62 66.5t-22.5 89q0 39 14 69t36.5 53.5t52.5 39t58 25.5q-49 20 -86 58t-37 99q0 76 70 133.5t184 57.5q52 0 98 -13.5t80.5 -38t55 -59t20.5 -75.5 q0 -68 -40 -106t-89 -56zM1118 530q0 -47 38 -77.5t97 -30.5q56 0 96 28.5t40 79.5t-39 80t-97 29q-59 0 -97 -30t-38 -79zM1083 201q0 -62 47.5 -94.5t120.5 -32.5q72 0 121 31.5t49 95.5q0 59 -49 95t-121 36q-71 0 -119.5 -35t-48.5 -96zM96 1229q29 51 95.5 84t162.5 33 q121 0 181.5 -53.5t60.5 -120.5q0 -49 -21.5 -80t-46.5 -47q-31 -21 -68 -29q50 -10 89 -33q34 -20 62 -58t28 -103q0 -56 -27 -98t-68 -69.5t-90 -41t-92 -13.5q-43 -2 -94 8.5t-85 27t-64.5 37t-43.5 40.5l82 94q17 -37 67 -74.5t120 -37.5q32 0 63 7t55.5 21.5t40 38 t15.5 58.5q0 59 -36 90.5t-128 31.5q-14 0 -35.5 -2t-42.5 -4q-24 -4 -51 -6l4 111q10 -2 42 -3t42 -1q66 0 114 24.5t48 96.5q0 38 -34 67t-110 29q-73 0 -113 -30t-59 -77z" />
<glyph unicode="&#x215d;" horiz-adv-x="1638" d="M510 0h-131l752 1333h131zM1378 381q62 -21 114 -66t52 -117q0 -104 -83 -159.5t-208 -55.5q-61 0 -114.5 14.5t-93 41t-62 66.5t-22.5 89q0 39 14 69t36.5 53.5t52.5 39t58 25.5q-49 20 -86 58t-37 99q0 76 70 133.5t184 57.5q52 0 98 -13.5t80.5 -38t55 -59t20.5 -75.5 q0 -68 -40 -106t-89 -56zM1118 530q0 -47 38 -77.5t97 -30.5q56 0 96 28.5t40 79.5t-39 80t-97 29q-59 0 -97 -30t-38 -79zM1083 201q0 -62 47.5 -94.5t120.5 -32.5q72 0 121 31.5t49 95.5q0 59 -49 95t-121 36q-71 0 -119.5 -35t-48.5 -96zM238 1055q22 10 59 16.5t74 6.5 q49 0 95 -15.5t82 -44t57.5 -72.5t21.5 -102q0 -112 -82 -176.5t-207 -64.5q-100 0 -164.5 33.5t-95.5 74.5l82 88q20 -41 65 -73.5t111 -32.5q86 0 126 42t40 103q0 68 -41 109t-115 41q-45 0 -83 -17.5t-60 -36.5l-82 43l47 359h432v-97h-338z" />
<glyph unicode="&#x215e;" horiz-adv-x="1638" d="M510 0h-131l752 1333h131zM1378 381q62 -21 114 -66t52 -117q0 -104 -83 -159.5t-208 -55.5q-61 0 -114.5 14.5t-93 41t-62 66.5t-22.5 89q0 39 14 69t36.5 53.5t52.5 39t58 25.5q-49 20 -86 58t-37 99q0 76 70 133.5t184 57.5q52 0 98 -13.5t80.5 -38t55 -59t20.5 -75.5 q0 -68 -40 -106t-89 -56zM1118 530q0 -47 38 -77.5t97 -30.5q56 0 96 28.5t40 79.5t-39 80t-97 29q-59 0 -97 -30t-38 -79zM1083 201q0 -62 47.5 -94.5t120.5 -32.5q72 0 121 31.5t49 95.5q0 59 -49 95t-121 36q-71 0 -119.5 -35t-48.5 -96zM653 1336v-82 q-59 -66 -104 -143.5t-77 -160.5t-50.5 -169t-24.5 -166h-120q8 184 70.5 337.5t174.5 282.5h-434v101h565z" />
<glyph unicode="&#x215f;" horiz-adv-x="1638" d="M510 0h-131l752 1333h131zM82 715h221v461q-22 -14 -74.5 -23.5t-117.5 -9.5l-13 98q52 0 86.5 7.5t66.5 19.5t57.5 29.5t37.5 36.5h78v-619h211v-98h-553v98z" />
<glyph unicode="&#x2190;" horiz-adv-x="1434" d="M610 1036l82 -96l-364 -348h993v-135h-993l364 -348l-82 -97l-512 512z" />
<glyph unicode="&#x2191;" d="M1126 606l-98 -82l-346 363v-991h-137v991l-346 -363l-97 82l512 512z" />
<glyph unicode="&#x2192;" horiz-adv-x="1434" d="M824 13l-82 96l364 348h-993v135h993l-364 348l82 97l512 -512z" />
<glyph unicode="&#x2193;" d="M1126 408.037l-98 81.9951l-346 -362.979v990.94h-137v-990.94l-346 362.979l-97 -81.9951l512 -511.969z" />
<glyph unicode="&#x2212;" horiz-adv-x="1044" d="M952 526v-127h-880v127h880v0z" />
<glyph unicode="&#x25a0;" horiz-adv-x="1638" d="M184 1333h1270v-1333h-1270v1333z" />
<glyph unicode="&#x25a1;" horiz-adv-x="1638" d="M184 1333h1270v-1333h-1270v1333zM346 135h946v1063h-946v-1063z" />
<glyph unicode="&#x25fb;" horiz-adv-x="1393" d="M184 1100h1024v-1100h-1024v1100zM344 131h705v838h-705v-838z" />
<glyph unicode="&#x25fc;" horiz-adv-x="940" d="M0 940h940v-940h-940v940z" />
<glyph unicode="&#x261c;" horiz-adv-x="2460" d="M1758.04 963q-9 0 -18.999 -11.5t-26.998 -11.5q-13.999 0 -57.9971 14.5q-43.9971 14.5 -95.9941 32q-51.9961 17.5 -102.493 31.5t-70.9961 20t-46.9971 15.5t-60.4961 19.5t-69.4961 18.5t-62.4961 8.5q-50.9971 0 -148.491 -18.5q-97.4932 -18.5 -215.486 -18.5 q-20.999 0 -50.4971 -7t-62.4961 -16.5t-65.4961 -17.5t-61.4961 -12t-78.9951 -15.5t-104.494 -26q-54.4961 -14.5 -101.493 -27.5t-66.9961 -19q-20.999 -7 -43.4971 -15q-22.499 -8 -40.998 -17t-30.498 -19.5t-11.999 -20.5q0 -53 52.9971 -70.5 q52.9961 -17.5 136.991 -17.5q167.99 0 216.986 26h104.994q34.998 0 73.4951 6.5q38.498 6.5 76.4951 14.5q37.998 8 68.9961 14t46.9971 6h44.9971q22.999 27 56.4971 64t71.4951 69.5q37.998 32.5 75.9961 55q37.9971 22.5 63.9961 22.5q12.999 0 22.998 -4 q10 -4 19.999 -8l20.999 -10v-10h-59.9971q-19.998 0 -51.4961 -19.5t-66.4961 -49.5t-67.9961 -61.5t-56.9961 -56.5q-24.999 -24 -51.4971 -54t-46.9971 -58.5t-33.998 -56t-13.499 -50.5q0 -22 10.499 -38.5t23.499 -28q12.999 -11.5 27.498 -17.5t20.499 -6 q14.999 0 30.998 42t60.9961 128t85.9951 140.5q40.9971 54.5 57.9961 54.5q13.999 0 34.998 -9q7.99902 -4 17.999 -8v-8h-28.999q-17.998 0 -42.4971 -28.5q-24.498 -28.5 -53.4971 -73.5q-28.998 -45 -56.4961 -98.5t-49.9971 -102.5t-35.998 -87t-13.499 -50 q0 -39 31.998 -56.5t62.9961 -17.5q13.999 0 22.999 62.5q8.99902 62.5 41.9971 160.5t64.4961 134t50.4971 36q9.99902 0 16.999 -1q6.99902 -1 11.999 -1q6 -2 9.99902 -2v-10h-20.998q-19.999 0 -41.498 -30q-21.498 -30 -39.9971 -74t-34.998 -96t-27.498 -98 t-18.499 -78t-7.5 -36q0 -6 6.5 -17.5t16.499 -21.5t21.499 -17q11.499 -7 23.498 -7h146.991q55.9971 0 77.4951 25.5q21.499 25.5 21.499 47.5v54q0 8 -12.499 19q-12.5 11 -27.999 20.5t-30.498 15.5t-18.999 6q-4.99902 0 -8.99902 -7t-7.99902 -15.5q-4 -8.5 -8 -15.5 t-6 -7q-9.99902 0 -9.99902 8q0 4 3 16.5t7.99902 26q5 13.5 11 23.5q5.99902 10 13.999 10q16.999 0 41.4971 -16.5q24.499 -16.5 83.4951 -44.5q59.9961 -29 118.493 -42.5q58.4961 -13.5 131.491 -13.5q73.9961 0 132.492 5t97.4941 12v168q0 47 -5.5 117.5 q-5.49902 70.5 -11.499 136.5q-8 75 -17.999 155h150.991q16.999 -57 28.998 -121q9.99902 -53 19.499 -118.5q9.49902 -65.5 9.49902 -131.5q0 -65 -2 -128.5t-4 -117q-1.99902 -53.5 -5.49902 -95t-7.5 -66.5h-7.99902q5.99902 47 9.99902 153.5t4 233.5h-11.999 q0 -35 -1 -86t-5 -111h-9.99902v158h-13v-72q0 -28 -0.999023 -57q-1 -29 -3 -45h-8v150h-9.99902v-31.5v-45t-1 -47t-3 -36.5h-7.99902v133h-11q0 -72 -5.99902 -127h-8v123h-9.99902q0 -27 -3 -65t-5 -54h-10.999q0 4 1 18.5t2.5 33t1.5 38v33.5h-14.999 q0 -119 -18.499 -185.5t-22.499 -82.5h-7.99902q1.99902 6 5.99902 24.5t8 41t7.49902 43q3.5 20.5 3.5 32.5l-124.992 -12q0 -76 23.498 -130.5q23.499 -54.5 45.498 -91.5h198.987l-4 -20h-77.9951q0 -31 15.499 -57.5t39.498 -26.5h315.98q19.999 53 36.998 121 q13.999 59 23.998 144q10 85 10 196q0 110 -12 206.5q-11.999 96.5 -28.998 168.5q-17.999 84 -42.9971 153h-302.981q-15.999 0 -42.498 -10q-26.498 -10 -37.4971 -16h-80.9951zM217.137 903q-9.99902 -10 -27.498 -21.5t-29.498 -15.5l-4 6q13.999 7 29.498 18t21.499 15 zM1874.04 229q16.999 0 32.998 -8t15.999 -31q0 -32 -28.499 -48.5q-28.498 -16.5 -59.4961 -16.5q-31.998 0 -31.998 39q0 29 23.499 47q23.498 18 47.4971 18z" />
<glyph unicode="&#x261e;" horiz-adv-x="2460" d="M702 963q9 0 19 -11.5t27 -11.5q14 0 58 14.5t96 32t102.5 31.5t71 20t47 15.5t60.5 19.5t69.5 18.5t62.5 8.5q51 0 148.5 -18.5t215.5 -18.5q21 0 50.5 -7t62.5 -16.5t65.5 -17.5t61.5 -12t79 -15.5t104.5 -26t101.5 -27.5t67 -19q21 -7 43.5 -15t41 -17t30.5 -19.5 t12 -20.5q0 -53 -53 -70.5t-137 -17.5q-168 0 -217 26h-105q-35 0 -73.5 6.5t-76.5 14.5t-69 14t-47 6h-45q-23 27 -56.5 64t-71.5 69.5t-76 55t-64 22.5q-13 0 -23 -4l-20 -8l-21 -10v-10h60q20 0 51.5 -19.5t66.5 -49.5t68 -61.5t57 -56.5q25 -24 51.5 -54t47 -58.5 t34 -56t13.5 -50.5q0 -22 -10.5 -38.5t-23.5 -28t-27.5 -17.5t-20.5 -6q-15 0 -31 42t-61 128t-86 140.5t-58 54.5q-14 0 -35 -9q-8 -4 -18 -8v-8h29q18 0 42.5 -28.5t53.5 -73.5t56.5 -98.5t50 -102.5t36 -87t13.5 -50q0 -39 -32 -56.5t-63 -17.5q-14 0 -23 62.5t-42 160.5 t-64.5 134t-50.5 36q-10 0 -17 -1t-12 -1q-6 -2 -10 -2v-10h21q20 0 41.5 -30t40 -74t35 -96t27.5 -98t18.5 -78t7.5 -36q0 -6 -6.5 -17.5t-16.5 -21.5t-21.5 -17t-23.5 -7h-147q-56 0 -77.5 25.5t-21.5 47.5v54q0 8 12.5 19t28 20.5t30.5 15.5t19 6q5 0 9 -7t8 -15.5 t8 -15.5t6 -7q10 0 10 8q0 4 -3 16.5t-8 26t-11 23.5t-14 10q-17 0 -41.5 -16.5t-83.5 -44.5q-60 -29 -118.5 -42.5t-131.5 -13.5q-74 0 -132.5 5t-97.5 12v168q0 47 5.5 117.5t11.5 136.5q8 75 18 155h-151q-17 -57 -29 -121q-10 -53 -19.5 -118.5t-9.5 -131.5 q0 -65 2 -128.5t4 -117t5.5 -95t7.5 -66.5h8q-6 47 -10 153.5t-4 233.5h12q0 -35 1 -86t5 -111h10v158h13v-72q0 -28 1 -57t3 -45h8v150h10v-31.5v-45t1 -47t3 -36.5h8v133h11q0 -72 6 -127h8v123h10q0 -27 3 -65t5 -54h11q0 4 -1 18.5t-2.5 33t-1.5 38v33.5h15 q0 -119 18.5 -185.5t22.5 -82.5h8q-2 6 -6 24.5t-8 41t-7.5 43t-3.5 32.5l125 -12q0 -76 -23.5 -130.5t-45.5 -91.5h-199l4 -20h78q0 -31 -15.5 -57.5t-39.5 -26.5h-316q-20 53 -37 121q-14 59 -24 144t-10 196q0 110 12 206.5t29 168.5q18 84 43 153h303q16 0 42.5 -10 t37.5 -16h81zM2243 903q10 -10 27.5 -21.5t29.5 -15.5l4 6q-14 7 -29.5 18t-21.5 15zM586 229q-17 0 -33 -8t-16 -31q0 -32 28.5 -48.5t59.5 -16.5q32 0 32 39q0 29 -23.5 47t-47.5 18z" />
<glyph unicode="&#xf6c3;" horiz-adv-x="512" d="M174 -510l37 309l149 -22l-75 -299z" />
<glyph unicode="&#xfb00;" horiz-adv-x="1298" d="M231 0v813h-170v129h170v236q0 143 79 223t208 80q23 0 42.5 -2t35.5 -6q18 -5 33 -7l-21 -125q-10 2 -22 5q-11 2 -24 4t-30 2q-61 0 -103 -40t-42 -153v-217h215v-129h-215v-813h-156zM880 0v813h-170v129h170v236q0 143 79 223t208 80q23 0 42.5 -2t35.5 -6 q18 -5 33 -7l-21 -125q-10 2 -22 5q-11 2 -24 4t-30 2q-61 0 -103 -40t-42 -153v-217h215v-129h-215v-813h-156z" />
<glyph unicode="&#xfb01;" horiz-adv-x="1174" d="M231 0v813h-170v129h170v236q0 143 79 223t208 80q23 0 42.5 -2t35.5 -6q18 -5 33 -7l-21 -125q-10 2 -22 5q-11 2 -24 4t-30 2q-61 0 -103 -40t-42 -153v-217h215v-129h-215v-813h-156zM1026 1284q0 -55 -35 -90q-39 -33 -82 -33q-41 0 -78 33q-35 33 -35 90t35 86 q33 31 78 31t82 -31q35 -31 35 -86zM833 0v942h156v-942h-156z" />
<glyph unicode="&#xfb02;" horiz-adv-x="1174" d="M231 0v813h-170v129h170v236q0 143 79 223t208 80q23 0 42.5 -2t35.5 -6q18 -5 33 -7l-21 -125q-10 2 -22 5q-11 2 -24 4t-30 2q-61 0 -103 -40t-42 -153v-217h215v-129h-215v-813h-156zM833 1456h156v-1456h-156v1456z" />
<glyph unicode="&#xfb03;" horiz-adv-x="1823" d="M231 0v813h-170v129h170v236q0 143 79 223t208 80q23 0 42.5 -2t35.5 -6q18 -5 33 -7l-21 -125q-10 2 -22 5q-11 2 -24 4t-30 2q-61 0 -103 -40t-42 -153v-217h215v-129h-215v-813h-156zM880 0v813h-170v129h170v236q0 143 79 223t208 80q23 0 42.5 -2t35.5 -6 q18 -5 33 -7l-21 -125q-10 2 -22 5q-11 2 -24 4t-30 2q-61 0 -103 -40t-42 -153v-217h215v-129h-215v-813h-156zM1676 1284q0 -55 -35 -90q-39 -33 -82 -33q-41 0 -78 33q-35 33 -35 90t35 86q33 31 78 31t82 -31q35 -31 35 -86zM1482 0v942h156v-942h-156z" />
<glyph unicode="&#xfb04;" horiz-adv-x="1823" d="M231 0v813h-170v129h170v236q0 143 79 223t208 80q23 0 42.5 -2t35.5 -6q18 -5 33 -7l-21 -125q-10 2 -22 5q-11 2 -24 4t-30 2q-61 0 -103 -40t-42 -153v-217h215v-129h-215v-813h-156zM880 0v813h-170v129h170v236q0 143 79 223t208 80q23 0 42.5 -2t35.5 -6 q18 -5 33 -7l-21 -125q-10 2 -22 5q-11 2 -24 4t-30 2q-61 0 -103 -40t-42 -153v-217h215v-129h-215v-813h-156zM1482 1456h156v-1456h-156v1456z" />
<glyph horiz-adv-x="1126" d="M59 0l396 1100h213l397 -1100h-170l-100 279h-476l-96 -279h-164zM360 410h394l-195 583z" />
<glyph horiz-adv-x="1112" d="M725 582q76 -15 135 -50q51 -28 93 -80.5t42 -138.5q0 -155 -108.5 -234t-319.5 -79h-383v1100h410q164 0 261 -71t97 -206q0 -71 -35.5 -116t-78.5 -72q-52 -31 -113 -45v-8zM332 631h221q111 0 173 50t62 134q0 168 -235 168h-221v-352zM569 117q129 0 195.5 43 t66.5 155q0 88 -64.5 144.5t-197.5 56.5h-237v-399h237z" />
<glyph horiz-adv-x="1139" d="M915 836q-47 77 -114.5 117t-165.5 40q-72 0 -135.5 -29.5t-110.5 -87t-74.5 -139.5t-27.5 -188q0 -213 97 -328t261 -115q100 0 163.5 34t106.5 112l129 -84q-69 -98 -173.5 -145.5t-225.5 -47.5q-117 0 -213 42t-164.5 119t-106.5 181.5t-38 231.5q0 125 40 230.5 t109.5 182t162.5 119.5t200 43q135 0 239.5 -53t165.5 -158z" />
<glyph horiz-adv-x="1210" d="M184 0v1100h377q137 0 237.5 -38t166 -109.5t97.5 -174t32 -231.5q0 -256 -129 -401.5t-404 -145.5h-377zM553 131q104 0 177 25.5t117 78t63.5 130t19.5 182.5q0 205 -87 313.5t-298 108.5h-201v-838h209z" />
<glyph horiz-adv-x="1051" d="M344 969v-346h514v-131h-514v-361h578v-131h-738v1100h713v-131h-553z" />
<glyph horiz-adv-x="956" d="M344 969v-389h461v-134h-461v-446h-160v1100h662v-131h-502z" />
<glyph horiz-adv-x="1233" d="M973 190q-55 -118 -143.5 -166.5t-208.5 -48.5q-107 0 -198 41t-157.5 116t-104.5 179.5t-38 229.5q0 129 40 236.5t111.5 184t170 119.5t214.5 43q123 0 231.5 -52t172.5 -154l-121 -84q-45 86 -124 122.5t-165 36.5q-80 0 -147.5 -29.5t-115.5 -87t-75.5 -141.5 t-27.5 -190q0 -209 97 -324t261 -115q78 0 134.5 22t92 58.5t53 82.5t17.5 96v49h-293v127h449v-541h-109z" />
<glyph horiz-adv-x="1294" d="M184 0v1100h160v-488h606v488h160v-1100h-160v481h-606v-481h-160z" />
<glyph horiz-adv-x="528" d="M184 0v1100h160v-1100h-160z" />
<glyph horiz-adv-x="868" d="M694 1100v-740q0 -104 -28.5 -177.5t-81 -120t-124 -67t-155.5 -20.5q-78 0 -134 17.5t-91 40.5q-41 24 -70 59l113 103q18 -27 45 -48q22 -16 59 -30.5t86 -14.5q115 0 168.5 63.5t53.5 209.5v725h159z" />
<glyph horiz-adv-x="1114" d="M184 1100h160v-545l483 545h193l-434 -479l461 -621h-201l-367 514l-135 -135v-379h-160v1100z" />
<glyph horiz-adv-x="946" d="M344 1100v-969h516v-131h-676v1100h160z" />
<glyph horiz-adv-x="1487" d="M649 184l-303 705v-889h-151v1100h213l325 -758l350 758h209v-1100h-151v889l-328 -705h-164z" />
<glyph horiz-adv-x="1245" d="M184 0v1100h205l520 -899v899h152v-1100h-195l-530 901v-901h-152z" />
<glyph horiz-adv-x="1327" d="M1204 549q0 -119 -43 -223.5t-116.5 -182t-171 -123t-207.5 -45.5q-117 0 -217.5 42t-172 119t-112.5 181.5t-41 231.5q0 125 44 230.5t118.5 182t173 119.5t207.5 43q116 0 214.5 -42t171 -118.5t112.5 -182t40 -232.5zM1040 549q0 221 -103 332.5t-271 111.5 q-78 0 -146.5 -29.5t-120 -87t-82 -139.5t-30.5 -188q0 -107 28.5 -188.5t78.5 -138t120 -86.5t152 -30q174 0 274 115t100 328z" />
<glyph horiz-adv-x="1051" d="M956 741q0 -84 -27.5 -152.5t-76.5 -115.5t-117.5 -72.5t-150.5 -25.5h-240v-375h-160v1100h355q211 0 314 -97.5t103 -261.5zM344 502h217q68 0 113 18.5t71.5 50t37 74.5t10.5 90q0 105 -60.5 171.5t-193.5 66.5h-195v-471z" />
<glyph horiz-adv-x="1327" d="M1204 549q0 -78 -21.5 -148.5t-58.5 -133t-87 -115t-107 -89.5q24 -28 59 -55.5t72 -53.5t71.5 -45.5t63.5 -31.5l-137 -76q-33 15 -63.5 39.5t-58.5 53t-52.5 58.5t-44.5 54q-41 -14 -84 -22.5t-90 -8.5q-117 0 -217.5 42t-172 119t-112.5 181.5t-41 231.5 q0 125 44 230.5t117.5 182t171 119.5t206.5 43q116 0 215.5 -42t172 -118.5t113.5 -182t41 -232.5zM1040 549q0 221 -105.5 332.5t-272.5 111.5q-78 0 -145.5 -29.5t-119 -87t-81 -139.5t-29.5 -188q0 -107 28.5 -188.5t78.5 -138t120 -86.5t152 -30q174 0 274 115t100 328z " />
<glyph horiz-adv-x="1161" d="M971 772q0 -65 -18.5 -116.5t-49.5 -90.5t-68.5 -65.5t-76.5 -40.5l291 -459h-189l-258 424h-258v-424h-160v1100h369q201 0 309.5 -87t108.5 -241zM344 537h227q68 0 113 16t72.5 45t39 68t11.5 86q0 108 -59.5 170.5t-192.5 62.5h-211v-448z" />
<glyph horiz-adv-x="1006" d="M748 866q-29 56 -95.5 95.5t-160.5 39.5q-99 0 -155 -45t-56 -118q0 -43 18 -74t49 -52.5t71 -38t85 -30.5q65 -25 135 -46.5t127 -55t94 -87t37 -141.5q0 -73 -28.5 -135.5t-81 -106.5t-127 -70t-166.5 -26q-152 0 -249.5 59.5t-125.5 145.5l108 84q29 -69 98.5 -117.5 t172.5 -48.5q49 0 93 11.5t76.5 34t52 56t19.5 81.5q0 53 -22.5 86.5t-61.5 57.5t-89 40t-101 35q-62 20 -121 44.5t-107.5 59.5t-77 85t-28.5 124q0 76 31 134.5t82 98t118.5 59t143.5 19.5q135 0 225 -52t125 -124z" />
<glyph horiz-adv-x="1004" d="M43 1100h918v-131h-379v-969h-160v969h-379v131z" />
<glyph horiz-adv-x="1200" d="M334 1100v-703q0 -141 74.5 -216t203.5 -75q144 0 199 71t55 212v711h160v-723q0 -84 -21.5 -158t-70.5 -128t-128 -85t-192 -31q-112 0 -195 30t-137.5 83t-81 126t-26.5 161v725h160z" />
<glyph horiz-adv-x="1053" d="M991 1100l-362 -1100h-193l-383 1100h172l312 -955l286 955h168z" />
<glyph horiz-adv-x="1686" d="M948 1100l271 -953l208 953h168l-278 -1100h-205l-260 958l-252 -958h-205l-297 1100h168l236 -953l256 953h190z" />
<glyph horiz-adv-x="1063" d="M532 457l-280 -457h-191l371 559l-360 541h184l276 -438l263 438h184l-352 -541l374 -559h-192z" />
<glyph horiz-adv-x="1028" d="M39 1100h178l295 -545l297 545h180l-403 -678v-422h-152v422z" />
<glyph horiz-adv-x="1004" d="M889 1004l-45 -66l-551 -811h622v-127h-827v96l47 68l549 811h-590v125h795v-96z" />
<glyph horiz-adv-x="1571" d="M713 991l-326 -579h326v579zM713 281h-389l-158 -281h-168l625 1100h802v-131h-553v-346h514v-131h-514v-361h578v-131h-737v281z" />
<glyph horiz-adv-x="1034" d="M522 918q213 0 321.5 -92.5t108.5 -252.5q0 -75 -27.5 -141.5t-76.5 -116t-119 -78t-151 -28.5h-234v-209h-160v1100h160v-182h178zM549 340q74 0 121 22.5t72.5 56.5t35.5 76t10 80q0 41 -15 79t-46 68t-80 47t-117 17h-186v-446h205z" />
<glyph horiz-adv-x="1139" d="M915 836q-47 77 -114.5 117t-165.5 40q-72 0 -135.5 -29.5t-110.5 -87t-74.5 -139.5t-27.5 -188q0 -213 97 -328t261 -115q100 0 163.5 34t106.5 112l129 -84q-69 -98 -173.5 -145.5t-225.5 -47.5q-117 0 -213 42t-164.5 119t-106.5 181.5t-38 231.5q0 125 40 230.5 t109.5 182t162.5 119.5t200 43q135 0 239.5 -53t165.5 -158zM588 35q35 -17 64 -35q145 -90 145 -207q0 -201 -235 -201q-103 0 -172 64l51 76q57 -43 127 -43q102 0 102 114q0 121 -199 215z" />
<glyph horiz-adv-x="1051" d="M344 969v-346h514v-131h-514v-361h578v-131h-738v1100h713v-131h-553zM686 1346l-84 -84l-297 299l84 84z" />
<glyph horiz-adv-x="1051" d="M344 969v-346h514v-131h-514v-361h578v-131h-738v1100h713v-131h-553zM770 1645l84 -84l-297 -299l-84 84z" />
<glyph horiz-adv-x="1051" d="M344 969v-346h514v-131h-514v-361h578v-131h-738v1100h713v-131h-553zM153 1264l326 328h127l325 -328h-168l-221 238l-221 -238h-168z" />
<glyph horiz-adv-x="1051" d="M344 969v-346h514v-131h-514v-361h578v-131h-738v1100h713v-131h-553zM445 1377q0 -49 -33 -82q-35 -31 -82 -31q-49 0 -82 31q-30 31 -30 82q0 53 30 84q35 28 82 28t82 -28q33 -33 33 -84zM857 1377q0 -49 -33 -82q-35 -31 -80 -31q-51 0 -84 31q-31 31 -31 82 q0 53 31 84q35 28 84 28q45 0 80 -28q33 -33 33 -84z" />
<glyph horiz-adv-x="528" d="M184 0v1100h160v-1100h-160zM344 1346l-84 -84l-297 299l84 84z" />
<glyph horiz-adv-x="528" d="M184 0v1100h160v-1100h-160zM474 1645l84 -84l-297 -299l-84 84z" />
<glyph horiz-adv-x="528" d="M184 0v1100h160v-1100h-160zM-125 1264l326 328h127l325 -328h-168l-221 238l-221 -238h-168z" />
<glyph horiz-adv-x="528" d="M184 0v1100h160v-1100h-160zM168 1377q0 -49 -33 -82q-35 -31 -82 -31q-49 0 -82 31q-30 31 -30 82q0 53 30 84q35 28 82 28t82 -28q33 -33 33 -84zM580 1377q0 -49 -33 -82q-35 -31 -80 -31q-51 0 -84 31q-31 31 -31 82q0 53 31 84q35 28 84 28q45 0 80 -28 q33 -33 33 -84z" />
<glyph horiz-adv-x="1231" d="M205 0v492h-164v131h164v477h377q137 0 237.5 -38t166 -109.5t97 -174t31.5 -231.5q0 -256 -129 -401.5t-403 -145.5h-377zM573 131q105 0 177.5 25.5t116.5 78t63.5 130t19.5 182.5q0 205 -87 313.5t-298 108.5h-200v-346h245v-131h-245v-361h208z" />
<glyph horiz-adv-x="1245" d="M184 0v1100h205l520 -899v899h152v-1100h-195l-530 901v-901h-152zM468 1497q40 0 76 -15.5t68.5 -34.5t61 -34.5t54.5 -15.5q17 0 28 9t17.5 23t10.5 32.5t7 37.5l113 -43q4 -30 -4 -63.5t-28.5 -61.5t-52.5 -46.5t-75 -18.5q-41 0 -76.5 15.5t-67 34.5t-60 34.5 t-55.5 15.5q-15 0 -25.5 -8.5t-17.5 -22.5t-12 -32.5t-9 -38.5l-112 43q-2 40 9.5 75t33 60.5t51.5 40t65 14.5z" />
<glyph horiz-adv-x="1327" d="M1204 549q0 -119 -43 -223.5t-116.5 -182t-171 -123t-207.5 -45.5q-117 0 -217.5 42t-172 119t-112.5 181.5t-41 231.5q0 125 44 230.5t118.5 182t173 119.5t207.5 43q116 0 214.5 -42t171 -118.5t112.5 -182t40 -232.5zM1040 549q0 221 -103 332.5t-271 111.5 q-78 0 -146.5 -29.5t-120 -87t-82 -139.5t-30.5 -188q0 -107 28.5 -188.5t78.5 -138t120 -86.5t152 -30q174 0 274 115t100 328zM758 1346l-84 -84l-297 299l84 84z" />
<glyph horiz-adv-x="1327" d="M1204 549q0 -119 -43 -223.5t-116.5 -182t-171 -123t-207.5 -45.5q-117 0 -217.5 42t-172 119t-112.5 181.5t-41 231.5q0 125 44 230.5t118.5 182t173 119.5t207.5 43q116 0 214.5 -42t171 -118.5t112.5 -182t40 -232.5zM1040 549q0 221 -103 332.5t-271 111.5 q-78 0 -146.5 -29.5t-120 -87t-82 -139.5t-30.5 -188q0 -107 28.5 -188.5t78.5 -138t120 -86.5t152 -30q174 0 274 115t100 328zM867 1645l84 -84l-297 -299l-84 84z" />
<glyph horiz-adv-x="1327" d="M1204 549q0 -119 -43 -223.5t-116.5 -182t-171 -123t-207.5 -45.5q-117 0 -217.5 42t-172 119t-112.5 181.5t-41 231.5q0 125 44 230.5t118.5 182t173 119.5t207.5 43q116 0 214.5 -42t171 -118.5t112.5 -182t40 -232.5zM1040 549q0 221 -103 332.5t-271 111.5 q-78 0 -146.5 -29.5t-120 -87t-82 -139.5t-30.5 -188q0 -107 28.5 -188.5t78.5 -138t120 -86.5t152 -30q174 0 274 115t100 328zM270 1264l326 328h127l325 -328h-168l-221 238l-221 -238h-168z" />
<glyph horiz-adv-x="1327" d="M1204 549q0 -119 -43 -223.5t-116.5 -182t-171 -123t-207.5 -45.5q-117 0 -217.5 42t-172 119t-112.5 181.5t-41 231.5q0 125 44 230.5t118.5 182t173 119.5t207.5 43q116 0 214.5 -42t171 -118.5t112.5 -182t40 -232.5zM1040 549q0 221 -103 332.5t-271 111.5 q-78 0 -146.5 -29.5t-120 -87t-82 -139.5t-30.5 -188q0 -107 28.5 -188.5t78.5 -138t120 -86.5t152 -30q174 0 274 115t100 328zM525 1497q40 0 76 -15.5t68.5 -34.5t61 -34.5t54.5 -15.5q17 0 28 9t17.5 23t10.5 32.5t7 37.5l113 -43q4 -30 -4 -63.5t-28.5 -61.5 t-52.5 -46.5t-75 -18.5q-41 0 -76.5 15.5t-67 34.5t-60 34.5t-55.5 15.5q-15 0 -25.5 -8.5t-17.5 -22.5t-12 -32.5t-9 -38.5l-112 43q-2 40 9.5 75t33 60.5t51.5 40t65 14.5z" />
<glyph horiz-adv-x="1327" d="M1204 549q0 -119 -43 -223.5t-116.5 -182t-171 -123t-207.5 -45.5q-117 0 -217.5 42t-172 119t-112.5 181.5t-41 231.5q0 125 44 230.5t118.5 182t173 119.5t207.5 43q116 0 214.5 -42t171 -118.5t112.5 -182t40 -232.5zM1040 549q0 221 -103 332.5t-271 111.5 q-78 0 -146.5 -29.5t-120 -87t-82 -139.5t-30.5 -188q0 -107 28.5 -188.5t78.5 -138t120 -86.5t152 -30q174 0 274 115t100 328zM572 1377q0 -49 -33 -82q-35 -31 -82 -31q-49 0 -82 31q-30 31 -30 82q0 53 30 84q35 28 82 28t82 -28q33 -33 33 -84zM984 1377q0 -49 -33 -82 q-35 -31 -80 -31q-51 0 -84 31q-31 31 -31 82q0 53 31 84q35 28 84 28q45 0 80 -28q33 -33 33 -84z" />
<glyph horiz-adv-x="1327" d="M1204 549q0 -119 -43 -223.5t-116.5 -182t-171 -123t-207.5 -45.5q-86 0 -162 22.5t-139 63.5l-82 -110l-95 72l86 114q-71 78 -111 181.5t-40 230.5q0 125 44 230.5t118.5 182t173 119.5t207.5 43q82 0 153.5 -21.5t132.5 -60.5l84 113l94 -72l-86 -114 q76 -78 118 -184.5t42 -235.5zM1040 549q0 98 -22.5 175t-61.5 132l-505 -686q90 -64 215 -64q174 0 274 115t100 328zM287 549q0 -90 21.5 -164t58.5 -127l503 680q-82 55 -204 55q-78 0 -146.5 -29.5t-120 -87t-82 -139.5t-30.5 -188z" />
<glyph horiz-adv-x="1200" d="M334 1100v-703q0 -141 74.5 -216t203.5 -75q144 0 199 71t55 212v711h160v-723q0 -84 -21.5 -158t-70.5 -128t-128 -85t-192 -31q-112 0 -195 30t-137.5 83t-81 126t-26.5 161v725h160zM699 1346l-84 -84l-297 299l84 84z" />
<glyph horiz-adv-x="1200" d="M334 1100v-703q0 -141 74.5 -216t203.5 -75q144 0 199 71t55 212v711h160v-723q0 -84 -21.5 -158t-70.5 -128t-128 -85t-192 -31q-112 0 -195 30t-137.5 83t-81 126t-26.5 161v725h160zM829 1645l84 -84l-297 -299l-84 84z" />
<glyph horiz-adv-x="1200" d="M334 1100v-703q0 -141 74.5 -216t203.5 -75q144 0 199 71t55 212v711h160v-723q0 -84 -21.5 -158t-70.5 -128t-128 -85t-192 -31q-112 0 -195 30t-137.5 83t-81 126t-26.5 161v725h160zM209 1264l326 328h127l325 -328h-168l-221 238l-221 -238h-168z" />
<glyph horiz-adv-x="1200" d="M334 1100v-703q0 -141 74.5 -216t203.5 -75q144 0 199 71t55 212v711h160v-723q0 -84 -21.5 -158t-70.5 -128t-128 -85t-192 -31q-112 0 -195 30t-137.5 83t-81 126t-26.5 161v725h160zM516 1377q0 -49 -33 -82q-35 -31 -82 -31q-49 0 -82 31q-30 31 -30 82q0 53 30 84 q35 28 82 28t82 -28q33 -33 33 -84zM928 1377q0 -49 -33 -82q-35 -31 -80 -31q-51 0 -84 31q-31 31 -31 82q0 53 31 84q35 28 84 28q45 0 80 -28q33 -33 33 -84z" />
<glyph horiz-adv-x="1028" d="M39 1100h178l295 -545l297 545h180l-403 -678v-422h-152v422zM706 1645l84 -84l-297 -299l-84 84z" />
<glyph horiz-adv-x="1028" d="M39 1100h178l295 -545l297 545h180l-403 -678v-422h-152v422zM422 1377q0 -49 -33 -82q-35 -31 -82 -31q-49 0 -82 31q-30 31 -30 82q0 53 30 84q35 28 82 28t82 -28q33 -33 33 -84zM834 1377q0 -49 -33 -82q-35 -31 -80 -31q-51 0 -84 31q-31 31 -31 82q0 53 31 84 q35 28 84 28q45 0 80 -28q33 -33 33 -84z" />
<glyph horiz-adv-x="1126" d="M59 0l396 1100h213l397 -1100h-170l-100 279h-476l-96 -279h-164zM360 410h394l-195 583zM652 1346l-84 -84l-297 299l84 84z" />
<glyph horiz-adv-x="1126" d="M59 0l396 1100h213l397 -1100h-170l-100 279h-476l-96 -279h-164zM360 410h394l-195 583zM793 1645l84 -84l-297 -299l-84 84z" />
<glyph horiz-adv-x="1126" d="M59 0l396 1100h213l397 -1100h-170l-100 279h-476l-96 -279h-164zM360 410h394l-195 583zM172 1264l326 328h127l325 -328h-168l-221 238l-221 -238h-168z" />
<glyph horiz-adv-x="1126" d="M59 0l396 1100h213l397 -1100h-170l-100 279h-476l-96 -279h-164zM360 410h394l-195 583zM424 1497q40 0 76 -15.5t68.5 -34.5t61 -34.5t54.5 -15.5q17 0 28 9t17.5 23t10.5 32.5t7 37.5l113 -43q4 -30 -4 -63.5t-28.5 -61.5t-52.5 -46.5t-75 -18.5q-41 0 -76.5 15.5 t-67 34.5t-60 34.5t-55.5 15.5q-15 0 -25.5 -8.5t-17.5 -22.5t-12 -32.5t-9 -38.5l-112 43q-2 40 9.5 75t33 60.5t51.5 40t65 14.5z" />
<glyph horiz-adv-x="1126" d="M59 0l396 1100h213l397 -1100h-170l-100 279h-476l-96 -279h-164zM360 410h394l-195 583zM467 1377q0 -49 -33 -82q-35 -31 -82 -31q-49 0 -82 31q-30 31 -30 82q0 53 30 84q35 28 82 28t82 -28q33 -33 33 -84zM879 1377q0 -49 -33 -82q-35 -31 -80 -31q-51 0 -84 31 q-31 31 -31 82q0 53 31 84q35 28 84 28q45 0 80 -28q33 -33 33 -84z" />
<glyph horiz-adv-x="1126" d="M59 0l396 1100h213l397 -1100h-170l-100 279h-476l-96 -279h-164zM360 410h394l-195 583zM320 1498q0 98 64.5 165.5t175.5 67.5q53 0 97 -18.5t76 -50t49.5 -73.5t17.5 -91t-17.5 -92t-49.5 -74t-76 -49.5t-97 -18.5q-111 0 -175.5 67.5t-64.5 166.5zM423 1498 q0 -60 39 -101t98 -41q57 0 97 41t40 101q0 57 -40 99t-97 42q-59 0 -98 -42t-39 -99z" />
<glyph horiz-adv-x="1004" d="M889 1004l-45 -66l-551 -811h622v-127h-827v96l47 68l549 811h-590v125h795v-96zM872 1592l-325 -328h-129l-324 328h166l223 -238l221 238h168z" />
<glyph horiz-adv-x="1006" d="M748 866q-29 56 -95.5 95.5t-160.5 39.5q-99 0 -155 -45t-56 -118q0 -43 18 -74t49 -52.5t71 -38t85 -30.5q65 -25 135 -46.5t127 -55t94 -87t37 -141.5q0 -73 -28.5 -135.5t-81 -106.5t-127 -70t-166.5 -26q-152 0 -249.5 59.5t-125.5 145.5l108 84q29 -69 98.5 -117.5 t172.5 -48.5q49 0 93 11.5t76.5 34t52 56t19.5 81.5q0 53 -22.5 86.5t-61.5 57.5t-89 40t-101 35q-62 20 -121 44.5t-107.5 59.5t-77 85t-28.5 124q0 76 31 134.5t82 98t118.5 59t143.5 19.5q135 0 225 -52t125 -124zM878 1592l-325 -328h-129l-324 328h166l223 -238 l221 238h168z" />
<glyph horiz-adv-x="963" d="M360 1100v-422l222 67v-120l-222 -62v-440h605v-123h-760v528l-164 -49v121l164 41v459h155z" />
<glyph horiz-adv-x="1989" d="M1860 123v-123h-754v170q-31 -35 -71 -69.5t-91 -62.5t-111.5 -45.5t-134.5 -17.5q-123 0 -228 39t-182 113t-121 180.5t-44 241.5t44 242.5t121 181.5t182 112.5t228 38.5q64 0 125.5 -17t114.5 -45t96 -62.5t72 -69.5v170h729v-123h-571v-359h512v-122h-512v-373h596z M692 96q92 0 171 27t136.5 83t89 142t31.5 207q0 113 -32.5 197t-90 140t-136.5 84t-169 28q-184 0 -297.5 -117t-113.5 -338t113.5 -337t297.5 -116z" />
<glyph horiz-adv-x="1518" d="M344 969v-389h461v-134h-461v-446h-160v1100h662v-131h-502zM1171 0v1100h160v-1100h-160z" />
<glyph horiz-adv-x="1888" d="M344 969v-389h461v-134h-461v-446h-160v1100h662v-131h-502zM1331 1100v-969h516v-131h-676v1100h160z" />
<glyph horiz-adv-x="1092" d="M993 453q-4 -78 -32.5 -147.5t-63.5 -112.5l141 -156l-120 -62l-109 123q-49 -47 -130 -85t-196 -38q-80 0 -151.5 21.5t-126.5 63.5t-88 102.5t-33 140.5q0 62 20.5 114t55.5 92t82 70.5t100 49.5q-53 47 -89 113.5t-36 142.5q0 110 80 174.5t209 64.5q67 0 120.5 -18.5 t88.5 -50t53 -74.5t18 -90q0 -53 -20.5 -97t-55 -82t-79.5 -68t-96 -50l272 -309q29 26 41 75.5t12 92.5h133zM498 92q77 0 135.5 26.5t99.5 63.5l-319 365q-72 -29 -124 -85t-52 -140q0 -43 16 -85t48 -74t81 -51.5t115 -19.5zM360 872q0 -59 32 -107t71 -87q92 29 141 86 t49 123q0 59 -39 97t-104 38q-74 0 -112 -46t-38 -104z" />
<glyph horiz-adv-x="543" d="M195 313v787h147v-787h-147zM371 90q0 -47 -30 -75.5t-71 -28.5q-39 0 -69.5 28.5t-30.5 75.5t30.5 73.5t69.5 26.5q41 0 71 -26.5t30 -73.5z" />
<glyph horiz-adv-x="778" d="M63 963q31 65 110 113t187 48q70 0 134.5 -16t113.5 -52t78 -90.5t29 -129.5q0 -99 -43 -159.5t-94 -94.5q-62 -41 -138 -60v-207h-147v283q43 0 92 11.5t89 39t66.5 70.5t26.5 108q0 74 -52 128.5t-157 54.5q-75 0 -118 -33t-56 -80zM467 90q0 -47 -30.5 -75.5 t-71.5 -28.5q-39 0 -69 28.5t-30 75.5t30 73.5t69 26.5q41 0 71.5 -26.5t30.5 -73.5z" />
<glyph horiz-adv-x="543" d="M195 787.02v-786.952h147v786.952h-147zM371 1010.01q0 46.9971 -30 75.4951t-71 28.498q-39 0 -69.5 -28.498t-30.5 -75.4951t30.5 -73.4961q30.5 -26.498 69.5 -26.498q41 0 71 26.498q30 26.499 30 73.4961z" />
<glyph horiz-adv-x="778" d="M715.004 135.059q-30.998 -64.9961 -109.993 -112.993t-186.989 -47.9971q-69.9951 0 -134.491 15.999t-113.493 51.9971t-77.9951 90.4941q-28.998 54.4971 -28.998 129.492q0 98.9941 42.9971 159.49t93.9941 94.4941q61.9961 40.998 137.992 59.9971v206.987h146.99 v-282.983q-42.9971 0 -91.9941 -11.499t-88.9941 -38.9971q-39.998 -27.499 -66.4961 -70.4961q-26.499 -42.9971 -26.499 -107.993q0 -73.9961 51.9971 -128.492q51.9971 -54.4971 156.99 -54.4971q74.9961 0 117.993 32.998t55.9971 79.9951zM311.028 1008.01 q0 46.9971 30.498 75.4951t71.4961 28.498q38.9971 0 68.9951 -28.498q29.999 -28.498 29.999 -75.4951t-29.999 -73.4961q-29.998 -26.498 -68.9951 -26.498q-40.998 0 -71.4961 26.498q-30.498 26.499 -30.498 73.4961z" />
<glyph horiz-adv-x="1114" d="M78 743h151q23 93 73 161.5t117.5 114.5t146.5 69.5t163 23.5q88 0 151.5 -13.5t104.5 -29.5q47 -20 78 -43l-47 -133q-31 22 -72 41q-37 16 -91 29.5t-128 13.5q-127 0 -212 -59.5t-116 -174.5h570l-43 -125h-551q-2 -10 -2 -22q-2 -10 -2 -24.5v-30.5v-31t2 -25 q2 -12 4 -22h495l-43 -125h-430q68 -227 336 -227q72 0 125 11t92 28q43 16 78 38v-147q-39 -18 -84 -33q-41 -12 -93 -22.5t-118 -10.5q-90 0 -171 21.5t-148.5 65.5t-115.5 113t-71 163h-192l43 125h129q-2 10 -4 22q-2 11 -2 25v31v30.5t2 24.5q0 12 2 22h-170z" />
<glyph horiz-adv-x="1188" d="M592 1124q100 0 188 -33.5t153.5 -103t103.5 -177.5t38 -255q0 -149 -38 -258t-103.5 -180.5t-153.5 -106.5t-188 -35t-187.5 35t-152 106.5t-102 180.5t-37.5 258q0 150 37.5 257.5t102 177t152 102t187.5 32.5zM592 98q143 0 235.5 110.5t92.5 346.5q0 117 -25 201 t-68 139t-103 80.5t-132 25.5q-70 0 -129.5 -26.5t-102.5 -80.5t-67.5 -139t-24.5 -200q0 -117 24.5 -203t67.5 -142t102.5 -84t129.5 -28z" />
<glyph horiz-adv-x="909" d="M117 123h301v766q-53 -23 -122 -40.5t-128 -17.5l-31 113q45 0 95.5 12.5t97.5 34t86 49t63 60.5h94v-977h267v-123h-723v123z" />
<glyph horiz-adv-x="1004" d="M113 815q0 59 23.5 115.5t69.5 99.5t114.5 68.5t160.5 25.5q72 0 140.5 -22.5t122 -67.5t85 -112.5t31.5 -155.5q0 -92 -40 -181t-106.5 -171t-152.5 -154t-178 -129h510v-131h-760v106q113 64 217.5 141t183 161t126 173t47.5 181q0 102 -61.5 170.5t-172.5 68.5 q-57 0 -99 -18t-70 -48t-41 -69t-13 -82q0 -30 5 -69t15 -62l-137 41q-10 23 -15 57.5t-5 63.5z" />
<glyph horiz-adv-x="1004" d="M676 831q0 31 -11.5 62t-37 55.5t-65.5 41t-97 16.5q-96 0 -147.5 -45.5t-86.5 -124.5l-106 90q47 98 142 149t202 51q86 0 153.5 -22.5t112.5 -61t68.5 -88t23.5 -104.5q0 -74 -30.5 -124t-65.5 -79q-41 -35 -94 -53q70 -16 125 -53q47 -33 86 -90.5t39 -153.5 q0 -66 -28 -124t-81 -102t-130 -70t-173 -26q-104 0 -175 29t-114 64q-51 41 -80 94l103 117q27 -54 65 -93q33 -34 83.5 -62t119.5 -28q129 0 190.5 59.5t61.5 147.5q0 43 -18.5 82t-52 68.5t-82 47t-109.5 17.5q-35 0 -66.5 -1t-56.5 -3q-29 -2 -53 -4l6 129 q33 -2 65.5 -2h47.5q129 0 197.5 53t68.5 141z" />
<glyph horiz-adv-x="1065" d="M1006 289h-195v-289h-145v289h-535l-49 88l51 72l467 651h211v-686h195v-125zM666 414v555l-404 -555h404z" />
<glyph horiz-adv-x="1004" d="M524 696q76 0 144.5 -21.5t119 -64.5t80 -108.5t29.5 -151.5q0 -170 -112.5 -272.5t-311.5 -102.5q-129 0 -220 57.5t-130 139.5l98 104q27 -69 96.5 -123.5t171.5 -54.5q64 0 112 20.5t79 54.5t46 77t15 90q0 111 -64.5 174.5t-172.5 63.5q-47 0 -86 -11.5t-68 -23.5 q-33 -15 -57 -33l-113 61l76 529h598v-127h-477l-45 -322q24 13 53 23q25 8 59.5 15t79.5 7z" />
<glyph horiz-adv-x="1067" d="M547 -25q-115 0 -194 40t-127 112t-69.5 170t-21.5 217q0 102 22.5 209.5t76 197t141.5 146.5t221 57q51 0 101.5 -11t92 -30.5t72.5 -45t47 -54.5l-92 -109q-31 58 -92 95t-139 37q-82 0 -137.5 -36t-89 -97.5t-49 -141.5t-17.5 -166l12 21.5t44 46t86 45t138 20.5 q105 0 173.5 -34.5t109.5 -89t57.5 -118t16.5 -120.5q0 -47 -16.5 -108.5t-59.5 -118t-117.5 -95.5t-189.5 -39zM303 348q0 -51 16.5 -97t47 -81t73.5 -55.5t97 -20.5q102 0 168.5 59.5t66.5 182.5t-66.5 185.5t-168.5 62.5q-50 0 -92 -17.5t-73.5 -49.5t-50 -75t-18.5 -94z " />
<glyph horiz-adv-x="909" d="M874 1100v-96q-88 -109 -160.5 -225.5t-123.5 -250.5q-47 -120 -72.5 -250.5t-25.5 -277.5h-156q0 162 29.5 299t78.5 256q52 123 117.5 225.5t136.5 192.5h-635v127h811z" />
<glyph horiz-adv-x="1065" d="M942 295q0 -76 -32.5 -135.5t-88 -100.5t-128 -62.5t-152.5 -21.5q-86 0 -162 20.5t-132.5 59.5t-90 96.5t-33.5 129.5q0 79 32.5 136.5t73.5 92.5q47 41 109 68q-43 18 -78 53q-29 28 -52.5 75.5t-23.5 118.5q0 64 27 118t74 94t111.5 63.5t140.5 23.5q73 0 138.5 -20.5 t114 -58t76 -91t27.5 -116.5q0 -70 -26.5 -119t-59.5 -80q-37 -37 -84 -61q59 -25 108 -62q41 -33 76 -87t35 -134zM332 819q0 -43 17.5 -78.5t45 -60.5t64.5 -38t78 -13t78.5 13t66.5 38t46 60.5t17 78.5q0 45 -17 80t-46 58.5t-66.5 36t-78.5 12.5t-78 -12.5t-64.5 -36 t-45 -58.5t-17.5 -80zM279 297q0 -88 72.5 -143.5t178.5 -55.5q54 0 100 14.5t80.5 41t55 63.5t20.5 80q0 102 -72.5 158.5t-183.5 56.5q-110 0 -180.5 -56.5t-70.5 -158.5z" />
<glyph horiz-adv-x="1065" d="M524 1124q207 0 308.5 -143t101.5 -393q0 -109 -23.5 -218.5t-77 -197.5t-143.5 -142.5t-221 -54.5q-117 0 -201 41t-114 101l88 100q28 -47 92.5 -85t142.5 -38t134.5 34t92 94.5t54 142t20.5 178.5q-28 -58 -102 -95.5t-184 -37.5q-105 0 -173.5 33.5t-109.5 86 t-57.5 115t-16.5 117.5q0 47 20.5 109.5t66.5 119t120 95t182 38.5zM762 750q0 106 -61.5 181t-176.5 75q-102 0 -166.5 -63.5t-64.5 -180.5t66.5 -177.5t168.5 -60.5q50 0 92 16.5t73.5 47t50 71.5t18.5 91z" />
<glyph horiz-adv-x="1079" d="M463 -23q-129 7 -221 67t-129 136l106 76q35 -55 99.5 -102.5t144.5 -57.5v391q-60 17 -117 39.5t-101 58.5t-72 89t-28 131q0 67 26 120.5t70 91.5t101 60.5t121 30.5v113h127v-113q125 -10 206 -60.5t115 -111.5l-108 -80q-29 47 -79 88t-134 51v-374 q61 -17 120.5 -38.5t106.5 -56t76 -86t29 -127.5q0 -131 -91.5 -222t-240.5 -109v-111h-127v106zM780 285q0 45 -15 75.5t-42 52t-61.5 35t-71.5 21.5v-371q84 8 137 55.5t53 131.5zM287 821q0 -78 52 -122t124 -54v352q-86 -4 -131 -55t-45 -121z" />
<glyph horiz-adv-x="1038" d="M795 455h-318q12 -35 20.5 -68t8.5 -61q0 -64 -21.5 -106t-74.5 -79v-6h538v-135h-815v131q127 19 175 65t48 121q0 31 -9 66t-23 72h-191v125h137q-26 57 -44.5 113.5t-18.5 109.5q0 63 22.5 121.5t68.5 103.5t116.5 70.5t167.5 25.5q157 0 245 -63.5t127 -151.5 l-127 -96q-28 76 -86.5 130t-162.5 54q-101 0 -155 -53t-56 -145q-2 -45 17 -102.5t44 -116.5h367v-125z" />
<glyph horiz-adv-x="1106" d="M623 0h-148v293h-315v125h315l-76 125h-239v125h164l-263 432h164l326 -572l328 572h165l-268 -432h162v-125h-240l-75 -125h315v-125h-315v-293z" />
<glyph horiz-adv-x="1096" d="M905 856q-28 51 -83.5 90t-166.5 47v-891q101 4 164.5 45t85.5 93l127 -76q-16 -35 -50 -68t-82 -58.5t-110.5 -41.5t-134.5 -19v-186h-137v191q-92 14 -169 59t-132 117.5t-86 171t-31 219.5q0 119 30 216t85 169t132 117t171 61v193h137v-187q74 -2 135.5 -19.5 t108.5 -43t81 -58t52 -65.5zM258 549q0 -172 64.5 -292t195.5 -148v876q-139 -35 -199.5 -151.5t-60.5 -284.5z" />
<glyph horiz-adv-x="1225" d="M954 840q45 -60 70 -134.5t25 -160.5q0 -84 -24 -157t-64 -132l143 -139l-76 -76l-135 137q-59 -55 -136 -85t-163 -30t-164 30t-137 85l-133 -137l-76 76l139 139q-41 59 -63.5 132t-22.5 157q0 86 24.5 161.5t69.5 135.5l-147 145l76 76l143 -145q59 51 133 78.5 t158 27.5t157.5 -28.5t133.5 -80.5l143 148l76 -76zM899 545q0 69 -23.5 129.5t-64.5 105.5t-96.5 72t-120.5 27q-66 0 -122 -27t-97 -72t-64.5 -105.5t-23.5 -129.5q0 -70 24.5 -130.5t65.5 -106.5t97 -72.5t120 -26.5q63 0 118.5 26.5t97.5 72.5t65.5 106.5t23.5 130.5z " />
<glyph horiz-adv-x="1188" d="M594 1124q104 0 193.5 -36.5t156 -109.5t104 -180.5t37.5 -246.5q0 -135 -37.5 -242.5t-104 -181.5t-156 -113t-193.5 -39q-105 0 -194 39t-155.5 113t-104.5 181.5t-38 242.5q0 143 38 250.5t104.5 179.5t155.5 107.5t194 35.5zM594 104q72 0 132 31t104 89.5t69 141.5 t25 185q0 215 -92.5 329.5t-237.5 114.5q-72 0 -133.5 -29.5t-105.5 -86t-68.5 -139.5t-24.5 -189q0 -102 24.5 -185t68.5 -141.5t105.5 -89.5t133.5 -31z" />
<glyph horiz-adv-x="881" d="M135 127h287v774q-45 -24 -127 -44.5t-166 -20.5l-37 125q43 0 101.5 10t118 28.5t108.5 44t74 56.5h84v-973h253v-127h-696v127z" />
<glyph horiz-adv-x="1044" d="M88 791q0 65 27.5 125.5t79 106.5t124 73.5t162.5 27.5q84 0 157 -23.5t126 -68.5t84 -111.5t31 -154.5q0 -104 -48.5 -198.5t-125 -174.5t-173 -145.5t-192.5 -114.5h592v-133h-830v111q121 63 234 138t199 157.5t137 172t51 181.5q0 110 -65.5 174.5t-188.5 64.5 q-119 0 -179.5 -66.5t-60.5 -174.5q0 -60 21 -119l-133 20q-13 21 -21 58t-8 74z" />
<glyph horiz-adv-x="1044" d="M729 772q0 41 -12 82t-42 72.5t-77 52t-115 20.5q-61 0 -107 -19t-79 -50t-52.5 -69t-25.5 -75l-113 88q7 44 35.5 89t75.5 80.5t115.5 58t154.5 22.5q101 0 177.5 -27.5t128 -75.5t77 -109.5t25.5 -129.5q0 -65 -28.5 -116.5t-71.5 -90t-94.5 -66.5t-98.5 -44 q62 -12 123 -42t109.5 -75t78 -105.5t29.5 -131.5q0 -80 -34 -152t-95 -126t-147 -86t-191 -32q-84 0 -149.5 18.5t-114.5 49.5t-82 68.5t-51 74.5l92 123q35 -92 113.5 -148.5t191.5 -56.5q76 0 133.5 23.5t96 61.5t57 86t18.5 98q0 53 -20.5 103t-60.5 88t-99 60.5 t-137 22.5q-37 0 -89 -2t-100 -12l7 145q6 0 20 -1t32.5 -2t36 -1h29.5q176 0 253 74t77 184z" />
<glyph horiz-adv-x="1126" d="M1067 86h-178v-330h-148v330h-641l-37 102l56 82l559 830h211v-883h178v-131zM741 217v741l-491 -741h491z" />
<glyph horiz-adv-x="1044" d="M551 614q74 0 149.5 -26.5t137 -80.5t100.5 -136t39 -193q0 -98 -34 -183t-95.5 -147.5t-149.5 -97.5t-196 -35q-148 0 -253.5 57.5t-158.5 139.5l98 123q15 -35 42.5 -69t67.5 -61.5t92 -45t116 -17.5q80 0 137 27t96 72t57.5 104t18.5 125q0 74 -23.5 132t-63.5 99 t-96.5 62.5t-119.5 21.5q-70 0 -132.5 -23.5t-96.5 -58.5l-121 62l74 635h704v-135h-584l-47 -408q37 23 100.5 40t141.5 17z" />
<glyph horiz-adv-x="1126" d="M569 -25q-118 2 -204 48.5t-142.5 126t-84 191.5t-27.5 245q0 149 27.5 286.5t89 242t158.5 166.5t235 62q71 0 130.5 -16t105.5 -41.5t77 -59.5t45 -67l-102 -102q-7 26 -27.5 56t-54 52.5t-79.5 38t-104 15.5q-106 0 -171.5 -53.5t-103.5 -134.5t-53.5 -177t-17.5 -184 l6 -2q25 53 72 96q39 35 103.5 65.5t160.5 30.5q113 0 194 -41t131 -103.5t73.5 -139t23.5 -146.5q0 -74 -24.5 -153.5t-80 -146.5t-143.5 -111t-213 -44zM281 434q0 -65 19 -125.5t56 -106.5t90.5 -75t122.5 -29q54 0 107 18.5t95 58.5t68.5 100.5t26.5 144.5 q0 76 -22.5 135t-60.5 99t-90 60.5t-111 20.5q-58 0 -112 -19.5t-95 -57t-66.5 -94t-27.5 -130.5z" />
<glyph horiz-adv-x="1004" d="M918 1100v-107q-97 -125 -172.5 -279.5t-129.5 -328.5q-51 -162 -80.5 -328t-39.5 -317h-156q2 151 35 327.5t92 350.5q51 153 120.5 290.5t147.5 254.5h-684v137h867z" />
</font>
</defs>
</svg>
