<svg xmlns="http://www.w3.org/2000/svg" xmlns:xlink="http://www.w3.org/1999/xlink" viewBox="0 0 705.55 340.13"><defs><radialGradient id="a" cx="314.28" cy="254" r="401.95" gradientTransform="matrix(0.9, 0.43, -0.24, 0.5, 90.46, -7.76)" gradientUnits="userSpaceOnUse"><stop offset="0" stop-color="#fe9b7e"/><stop offset="0" stop-color="#fe9b7e" stop-opacity="0.98"/><stop offset="0.05" stop-color="#fe9b7e" stop-opacity="0.8"/><stop offset="0.09" stop-color="#fe9b7e" stop-opacity="0.63"/><stop offset="0.15" stop-color="#fe9b7e" stop-opacity="0.48"/><stop offset="0.2" stop-color="#fe9b7e" stop-opacity="0.35"/><stop offset="0.27" stop-color="#fe9b7e" stop-opacity="0.24"/><stop offset="0.33" stop-color="#fe9b7e" stop-opacity="0.15"/><stop offset="0.42" stop-color="#fe9b7e" stop-opacity="0.08"/><stop offset="0.51" stop-color="#fe9b7e" stop-opacity="0.04"/><stop offset="0.65" stop-color="#fe9b7e" stop-opacity="0.01"/><stop offset="1" stop-color="#fe9b7e" stop-opacity="0"/></radialGradient><linearGradient id="b" x1="175.36" y1="89.19" x2="318.14" y2="206.06" gradientUnits="userSpaceOnUse"><stop offset="0" stop-color="#c9c69e"/><stop offset="1" stop-color="#a6a88d"/></linearGradient><clipPath id="c"><polygon points="310.92 253.87 179.23 194.33 179.23 47.77 310.92 96.77 310.92 253.87" style="fill:none"/></clipPath><linearGradient id="d" x1="218.61" y1="144.92" x2="271.35" y2="136.88" gradientUnits="userSpaceOnUse"><stop offset="0" stop-color="#ffe0b3"/><stop offset="0.12" stop-color="#fbddb1"/><stop offset="0.23" stop-color="#efd4aa"/><stop offset="0.35" stop-color="#dbc69e"/><stop offset="0.42" stop-color="#ccbb95"/><stop offset="0.57" stop-color="#d4c19a"/><stop offset="0.82" stop-color="#ebd1a7"/><stop offset="1" stop-color="#ffe0b3"/></linearGradient><linearGradient id="e" x1="220.42" y1="173.34" x2="228.33" y2="172.02" gradientUnits="userSpaceOnUse"><stop offset="0" stop-color="#c9c69e"/><stop offset="0.45" stop-color="#ecd289"/><stop offset="0.79" stop-color="#f4da8e"/><stop offset="0.86" stop-color="#f7dd90"/><stop offset="0.9" stop-color="#f8e098"/><stop offset="0.95" stop-color="#fbe7af"/><stop offset="1" stop-color="#ffefc7"/></linearGradient><radialGradient id="f" cx="218.94" cy="117.53" r="6.01" gradientUnits="userSpaceOnUse"><stop offset="0.08" stop-color="#ffefc7"/><stop offset="0.29" stop-color="#f7dd90"/><stop offset="0.34" stop-color="#f4da8e"/><stop offset="0.55" stop-color="#ecd289"/><stop offset="1" stop-color="#c9c69e"/></radialGradient><linearGradient id="g" x1="45.6" y1="39.22" x2="172.19" y2="142.84" xlink:href="#b"/><clipPath id="h"><polygon points="164.14 187.51 50.84 136.28 50.84 0 164.14 42.16 164.14 187.51" style="fill:none"/></clipPath><linearGradient id="i" x1="84.64" y1="89.05" x2="130.31" y2="82.09" xlink:href="#d"/><linearGradient id="j" x1="85.94" y1="115.49" x2="93.65" y2="114.2" xlink:href="#e"/><radialGradient id="k" cx="85.12" cy="63.82" r="5.49" xlink:href="#f"/><linearGradient id="l" x1="393.95" y1="217.2" x2="528.08" y2="326.99" gradientUnits="userSpaceOnUse"><stop offset="0" stop-color="#a88d8d"/><stop offset="1" stop-color="#eb7c60"/></linearGradient><radialGradient id="m" cx="439.12" cy="284.21" fx="447.3535759314429" fy="343.53140314666587" r="59.89" gradientUnits="userSpaceOnUse"><stop offset="0.2" stop-color="#ff8b6b"/><stop offset="0.9" stop-color="#cca262"/></radialGradient></defs><title>Asset 3</title><g style="isolation:isolate"><polygon points="0 113.53 500.04 340.13 705.55 217.72 225.87 67.08 0 113.53" style="fill:url(#a)"/><polygon points="180.23 195.03 180.23 49.21 309.92 97.47 309.92 253.76 180.23 195.03" style="fill:url(#b)"/><path d="M181.23,50.65,308.92,98.16V252.21L181.23,194.39V50.65m-2-2.88V195.68l131.69,59.63V96.77l-131.69-49Z" style="fill:#e6e6e6"/><polygon points="310.92 117.94 179.23 67.52 179.23 47.77 310.92 96.77 310.92 117.94" style="fill:#f2f2f2"/><polyline points="205.14 64.98 206.8 59.96 220.81 65.19 222.5 71.51" style="fill:#d0d2d3"/><polyline points="224.18 72.14 225.87 67.08 240.18 72.42 241.89 78.81" style="fill:#d0d2d3"/><polygon points="310.92 117.94 179.23 67.52 179.23 55.23 182.66 56.52 184.34 51.58 201.4 57.95 203.09 64.21 310.92 104.77 310.92 117.94" style="fill:#e6e6e6"/><polygon points="180.66 58.7 184.66 60.21 184.66 66.67 180.66 65.14 180.66 58.7" style="fill:#d0d2d3"/><polygon points="185.78 60.63 189.8 62.15 189.8 68.63 185.78 67.09 185.78 60.63" style="fill:#d0d2d3"/><polygon points="190.92 62.58 194.97 64.11 194.97 70.6 190.92 69.06 190.92 62.58" style="fill:#d0d2d3"/><polygon points="196.42 64.66 307.58 106.64 307.58 113.53 196.42 71.15 196.42 64.66" style="fill:#fff"/><g style="clip-path:url(#c)"><path d="M276.66,145.5c-19.16-23.87-38.09,7.27-56.79-21.16q1.38,20.08,2.81,39C240.81,169.13,258.8,131,276.66,145.5Z" style="fill:url(#d)"/><polygon points="228.11 224.11 216.94 120.55 220.75 121.01 231.97 224.79 228.11 224.11" style="fill:url(#e)"/><path d="M221.82,119.32c.31,2.9-.86,5.07-2.61,4.86s-3.42-2.74-3.74-5.63.86-5.06,2.6-4.85S221.5,116.42,221.82,119.32Z" style="fill:url(#f)"/></g><polygon points="51.84 136.89 51.84 1.44 163.14 42.85 163.14 187.29 51.84 136.89" style="fill:url(#g)"/><path d="M52.84,2.88l109.3,40.67V185.74L52.84,136.25V2.88M50.84,0V137.54l113.3,51.3V42.16L50.84,0Z" style="fill:#e6e6e6"/><polygon points="164.14 61.74 50.84 18.36 50.84 0 164.14 42.16 164.14 61.74" style="fill:#f2f2f2"/><polyline points="73.22 15.36 74.65 10.65 86.73 15.16 88.19 20.99" style="fill:#d0d2d3"/><polyline points="89.64 21.53 91.1 16.79 103.41 21.39 104.89 27.27" style="fill:#d0d2d3"/><polygon points="164.14 61.74 50.84 18.36 50.84 6.94 53.8 8.05 55.25 3.42 69.99 8.91 71.45 14.69 164.14 49.56 164.14 61.74" style="fill:#e6e6e6"/><polygon points="52.07 10.13 55.53 11.43 55.53 17.43 52.07 16.12 52.07 10.13" style="fill:#d0d2d3"/><polygon points="56.5 11.8 59.97 13.11 59.97 19.13 56.5 17.8 56.5 11.8" style="fill:#d0d2d3"/><polygon points="60.94 13.48 64.44 14.8 64.44 20.83 60.94 19.5 60.94 13.48" style="fill:#d0d2d3"/><polygon points="65.69 15.27 161.28 51.38 161.28 57.75 65.69 21.31 65.69 15.27" style="fill:#fff"/><g style="clip-path:url(#h)"><path d="M134.74,88.46C118.29,66.61,102,95.83,85.92,70.12q1.18,18.59,2.42,36.09C103.94,111,119.41,75.31,134.74,88.46Z" style="fill:url(#i)"/><polygon points="93.03 162.49 83.39 66.66 86.68 66.99 96.35 163 93.03 162.49" style="fill:url(#j)"/><path d="M87.6,65.39c.27,2.68-.74,4.73-2.25,4.58s-2.95-2.45-3.22-5.12.74-4.73,2.24-4.58S87.33,62.7,87.6,65.39Z" style="fill:url(#k)"/></g><polygon points="329.27 264.26 440.61 218.88 594.44 281.3 483.26 333.95 329.27 264.26" style="fill:url(#l)"/><path d="M440.61,220,592,281.37,483.25,332.84,331.8,264.31,440.61,220m0-2.16L326.74,264.21l156.53,70.84,113.66-53.82L440.61,217.8Z" style="fill:#e6e6e6"/><polygon points="582.49 288.07 426.09 223.71 440.61 217.8 596.93 281.23 582.49 288.07" style="fill:#f2f2f2"/><polyline points="465.84 232.54 471.88 231.63 488.49 238.38 486.42 240.94" style="fill:#d0d2d3"/><polyline points="488.42 241.75 494.5 240.82 511.46 247.72 509.44 250.33" style="fill:#d0d2d3"/><polygon points="582.49 288.07 426.09 223.71 435.14 220.02 439.2 221.68 445.27 220.82 465.48 229.03 463.42 231.55 591.5 283.8 582.49 288.07" style="fill:#e6e6e6"/><polygon points="434.69 221.59 439.43 223.53 434.68 225.47 429.94 223.53 434.69 221.59" style="fill:#d0d2d3"/><polygon points="440.75 224.07 445.51 226.01 440.77 227.97 436 226.01 440.75 224.07" style="fill:#d0d2d3"/><polygon points="446.84 226.56 451.64 228.52 446.89 230.49 442.1 228.52 446.84 226.56" style="fill:#d0d2d3"/><polygon points="453.36 229.22 585.38 283.19 580.66 285.42 448.62 231.19 453.36 229.22" style="fill:#fff"/><g style="opacity:0.5;mix-blend-mode:color-burn"><polygon points="489.44 279.58 488.94 271.08 462.25 271.08 461.91 259.69 442.69 259.69 442.78 271.08 416.08 271.08 415.9 279.58 442.84 279.58 442.93 291.48 462.84 291.48 462.49 279.58 489.44 279.58" style="fill:url(#m)"/></g></g></svg>