<?xml version="1.0" encoding="UTF-8" standalone="no"?>
<!-- Created with Inkscape (http://www.inkscape.org/) -->

<svg
   xmlns:dc="http://purl.org/dc/elements/1.1/"
   xmlns:cc="http://creativecommons.org/ns#"
   xmlns:rdf="http://www.w3.org/1999/02/22-rdf-syntax-ns#"
   xmlns:svg="http://www.w3.org/2000/svg"
   xmlns="http://www.w3.org/2000/svg"
   version="1.1"
   width="512"
   height="356.8681"
   viewBox="0 0 96.875 67.522651"
   id="Capa_1"
   xml:space="preserve"><metadata
     id="metadata11"><rdf:RDF><cc:Work
         rdf:about=""><dc:format>image/svg+xml</dc:format><dc:type
           rdf:resource="http://purl.org/dc/dcmitype/StillImage" /><dc:title></dc:title></cc:Work></rdf:RDF></metadata><defs
     id="defs9" /><g
     transform="translate(0,-14.676174)"
     id="g3"><path
       d="M 95.201,25.538 C 94.015,20.386 89.801,16.585 84.728,16.018 72.715,14.677 60.556,14.67 48.453,14.677 36.348,14.67 24.187,14.677 12.174,16.018 7.104,16.585 2.893,20.386 1.707,25.538 0.019,32.875 0,40.884 0,48.438 0,55.992 0,64 1.688,71.336 c 1.184,5.151 5.396,8.952 10.469,9.52 12.012,1.342 24.172,1.349 36.277,1.342 12.107,0.007 24.264,0 36.275,-1.342 5.07,-0.567 9.285,-4.368 10.471,-9.52 1.689,-7.337 1.695,-15.345 1.695,-22.898 0,-7.554 0.014,-15.563 -1.674,-22.9 z M 35.936,63.474 c 0,-10.716 0,-21.32 0,-32.037 10.267,5.357 20.466,10.678 30.798,16.068 -10.3,5.342 -20.504,10.631 -30.798,15.969 z"
       id="path5"
       style="fill:#23527c" /></g></svg>